<?xml version="1.0" encoding="UTF-8"?>
<svg width="440px" height="330px" viewBox="0 0 440 330" version="1.1" xmlns="http://www.w3.org/2000/svg" xmlns:xlink="http://www.w3.org/1999/xlink">
    <title>Expertise</title>
    <defs>
        <linearGradient x1="50.1283917%" y1="99.8337853%" x2="50.1283917%" y2="-0.102812889%" id="linearGradient-1">
            <stop stop-color="#FFFFFF" offset="0%"></stop>
            <stop stop-color="#ADC0CB" offset="100%"></stop>
            <stop stop-color="#000000" offset="100%"></stop>
        </linearGradient>
        <linearGradient x1="49.914966%" y1="99.5341615%" x2="49.914966%" y2="-0.465838509%" id="linearGradient-2">
            <stop stop-color="#FFFFFF" offset="0%"></stop>
            <stop stop-color="#ADC0CB" offset="100%"></stop>
            <stop stop-color="#000000" offset="100%"></stop>
        </linearGradient>
        <linearGradient x1="50.0233401%" y1="99.9341672%" x2="50.0233401%" y2="-0.0164581962%" id="linearGradient-3">
            <stop stop-color="#FFFFFF" offset="0%"></stop>
            <stop stop-color="#ADC0CB" offset="100%"></stop>
            <stop stop-color="#000000" offset="100%"></stop>
        </linearGradient>
        <linearGradient x1="49.9392862%" y1="0.040371417%" x2="49.9392862%" y2="100.020186%" id="linearGradient-4">
            <stop stop-color="#FFFFFF" stop-opacity="0" offset="0%"></stop>
            <stop stop-color="#FEF7E2" stop-opacity="0.14" offset="8%"></stop>
            <stop stop-color="#FCE9B3" stop-opacity="0.36" offset="22%"></stop>
            <stop stop-color="#FBDE8A" stop-opacity="0.56" offset="36%"></stop>
            <stop stop-color="#FAD468" stop-opacity="0.72" offset="49%"></stop>
            <stop stop-color="#F9CD4F" stop-opacity="0.84" offset="63%"></stop>
            <stop stop-color="#F8C73C" stop-opacity="0.93" offset="76%"></stop>
            <stop stop-color="#F8C431" stop-opacity="0.98" offset="88%"></stop>
            <stop stop-color="#F8C32D" offset="100%"></stop>
        </linearGradient>
    </defs>
    <g id="Expertise" stroke="none" stroke-width="1" fill="none" fill-rule="evenodd">
        <path d="M168.716471,85.9453103 C103.120402,104.832526 114.356502,169.430219 118.452701,186.098756 C119.097297,188.749062 118.742858,191.543941 117.457097,193.949466 L105.282285,217.103373 C103.462336,220.57326 103.58675,224.741631 105.610409,228.096807 C107.634068,231.451982 111.263105,233.506739 115.181431,233.515908 C118.146345,233.508355 120.992823,234.678872 123.094668,236.769958 C125.196513,238.861044 126.381551,241.701406 126.389086,244.666192 L126.389086,264.292968 C126.389086,277.598932 137.176164,288.385546 150.482698,288.385546 L167.806205,288.385546 C173.996022,288.385546 179.013859,293.403169 179.013859,299.59272 L179.013859,330 L269.357795,313.985689 L269.357795,257.096484 C269.335981,254.533433 270.200152,252.041513 271.804136,250.042222 C291.597948,224.734983 302.415301,193.565131 302.554071,161.437285 C302.554071,105.28764 244.211687,64.2136339 168.716471,85.9453103 Z" id="Path" fill="#809BA8" fill-rule="nonzero"></path>
        <path d="M154.35133,187.23654 C148.144222,187.092028 142.224899,184.590154 137.795861,180.239168 C136.902809,179.552126 136.499481,178.402734 136.767413,177.308332 C137.035346,176.213929 137.924032,175.380822 139.033474,175.183991 C140.142916,174.98716 141.263974,175.46371 141.89206,176.399146 C142.404084,176.911149 153.042822,187.947655 167.834651,176.1147 C169.044861,175.177721 170.779548,175.366266 171.760174,176.541369 C172.697193,177.751528 172.508641,179.48614 171.333487,180.466724 C166.633743,184.631769 160.627665,187.026049 154.35133,187.23654 Z" id="Path" fill="#003A5D" fill-rule="nonzero"></path>
        <path d="M142.716988,245.633309 C138.645917,249.354404 133.264725,251.308327 127.754485,251.066228 C127.275167,251.02175 126.792867,251.110332 126.36064,251.322229 L126.36064,256.385369 C126.654301,256.529923 126.972959,256.616826 127.299352,256.64137 L129.148331,256.64137 C135.44273,256.445125 141.474403,254.072769 146.215825,249.928444 C147.208282,249.382163 147.781963,248.299079 147.67627,247.171187 C147.570577,246.043296 146.805662,245.085639 145.728991,244.733235 C144.65232,244.380832 143.469168,244.700872 142.716988,245.547975 L142.716988,245.633309 Z" id="Path" fill="#003A5D" fill-rule="nonzero"></path>
        <path d="M224.072044,261.732954 L138.734573,283.46463 C138.102419,283.616567 137.497803,283.86608 136.942486,284.20419 C140.964882,286.981361 145.73688,288.469447 150.624927,288.47088 L167.948434,288.47088 C170.920889,288.47088 173.7716,289.651633 175.873443,291.753385 C177.975285,293.855138 179.156089,296.705727 179.156089,299.678054 L179.156089,330 L186.239099,328.748437 L191.928263,305.33853 C192.306122,303.880956 193.144098,302.584146 194.317713,301.640731 L229.789655,273.736576 C232.332166,271.782635 233.163626,268.317856 231.784714,265.422952 C230.405803,262.528049 227.191477,260.990208 224.072044,261.732954 L224.072044,261.732954 Z" id="Path" fill="url(#linearGradient-1)" fill-rule="nonzero" style="mix-blend-mode: multiply;"></path>
        <path d="M259.145745,210.532669 C256.569851,215.931582 251.239019,219.481677 245.264183,219.777165 C239.293643,219.48997 233.967425,215.935664 231.411067,210.532669 L228.566484,210.532669 C229.846546,220.914949 236.844219,228.850993 245.292628,228.850993 C253.741038,228.850993 260.767157,220.914949 262.018773,210.532669 L259.145745,210.532669 Z" id="Path" fill="url(#linearGradient-2)" fill-rule="nonzero" style="mix-blend-mode: multiply;"></path>
        <path d="M282.727332,69.3905516 C282.702238,38.5730664 258.312018,13.2917602 227.513989,12.1600113 L224.328056,12.1600113 L222.820428,12.1600113 L222.365295,12.1600113 C197.97764,13.3116074 177.00251,29.7990541 170.124237,53.22396 C163.245963,76.6488658 171.977581,101.85838 191.871372,116.011255 C195.824608,118.842154 198.166262,123.408713 198.157899,128.270879 L198.157899,150.429224 L198.157899,150.429224 L198.157899,151.140339 C198.164673,155.146415 199.971463,158.937377 203.079026,161.46573 C203.615408,161.886638 204.175787,162.276036 204.75733,162.631959 L204.75733,172.758237 C204.730032,173.948455 205.380584,175.051037 206.435633,175.602697 L206.435633,180.665837 C206.435633,181.309927 206.957794,181.832065 207.601912,181.832065 L219.321592,181.832065 C219.210372,181.990327 219.150762,182.179082 219.150917,182.372513 C219.150917,183.823188 221.995499,184.989416 225.721902,184.989416 C229.448305,184.989416 232.292887,183.823188 232.292887,182.372513 C232.335207,182.194849 232.335207,182.009729 232.292887,181.832065 L240.826634,181.832065 C241.470752,181.832065 241.992913,181.309927 241.992913,180.665837 L241.992913,175.488919 C243.047963,174.937259 243.698514,173.834677 243.671217,172.644459 L243.671217,163.655964 C248.874003,161.696688 252.326194,156.728009 252.347193,151.168784 L252.347193,128.270879 C252.370559,123.36597 254.752409,118.771843 258.747503,115.925921 C271.44702,106.795206 279.863309,92.8714181 282.044633,77.3834849 C282.044633,77.6679309 282.044633,77.9808215 282.186862,78.2652676 C282.597124,75.3255427 282.777827,72.3583342 282.727332,69.3905516 Z" id="Path" fill="url(#linearGradient-3)" fill-rule="nonzero" style="mix-blend-mode: multiply;"></path>
        <path d="M309.864648,114.816582 C309.864648,114.333024 309.864648,114.333024 310.319781,113.849465 C310.774915,113.365907 311.742073,113.365907 312.197206,113.365907 L336.120143,112.910793 C336.575277,112.910793 336.575277,112.45568 336.575277,112.000566 L336.575277,112.000566 C336.575277,111.749214 336.371506,111.545453 336.120143,111.545453 L312.197206,110.97656 C311.286939,110.97656 310.831806,110.97656 310.319781,110.521447 C309.807757,110.066333 309.864648,110.066333 309.864648,109.582775 C309.974665,108.868595 310.314149,108.209624 310.831806,107.705431 L319.194878,98.8022706 C319.440547,98.5485865 319.440547,98.1457274 319.194878,97.8920433 L318.256166,97.8920433 L309.324178,106.425424 C308.869044,106.908982 308.413911,107.392541 307.930332,107.392541 C307.446753,107.392541 307.446753,107.392541 306.99162,106.908982 C306.536487,106.425424 306.508041,105.941866 306.508041,105.031639 L306.052908,80.6546142 C306.068962,80.5367761 306.035104,80.4175851 305.959499,80.3257821 C305.883893,80.2339791 305.773401,80.1778959 305.654666,80.1710553 L305.654666,80.1710553 C305.382629,80.1710553 305.157754,80.3830084 305.142641,80.6546142 L304.687508,105.031639 C304.759447,105.69135 304.598446,106.35545 304.232375,106.908982 C304.232375,107.392541 303.777242,107.392541 303.322109,107.392541 C302.603246,107.271479 301.938391,106.934104 301.416239,106.425424 L292.512696,97.8920433 L291.488646,97.8920433 C291.246382,98.1360549 291.246382,98.5298144 291.488646,98.773826 L291.488646,98.773826 L300.022393,107.676987 C300.612214,108.124223 300.967806,108.814461 300.989551,109.55433 C300.989551,110.037889 300.989551,110.037889 300.477526,110.493002 C299.931787,110.852604 299.278858,111.013318 298.628548,110.948116 L274.250477,111.460119 C273.766898,111.460119 273.766898,111.915232 273.766898,112.370346 L273.766898,112.370346 C273.766898,112.82546 274.250477,112.82546 274.250477,112.82546 L298.628548,113.280573 C299.211642,113.290266 299.777669,113.478933 300.24996,113.821021 C300.761985,113.821021 300.761985,114.304579 300.761985,114.788137 C300.761985,115.271695 300.24996,115.698365 299.794827,116.153478 L291.261079,125.085083 C291.032609,125.366979 291.032609,125.770304 291.261079,126.0522 L292.199792,126.0522 L301.103334,117.518819 C301.586913,117.063705 302.042047,116.608592 302.49718,116.608592 C302.952313,116.608592 303.009205,116.608592 303.464338,117.063705 C303.830409,117.617237 303.991409,118.281338 303.919471,118.941049 L304.374604,143.318074 C304.374604,143.569426 304.578374,143.773187 304.829737,143.773187 L304.829737,143.773187 C305.086827,143.790066 305.312005,143.602426 305.341762,143.346518 L305.341762,143.346518 L305.939124,119.111717 C305.939124,118.1446 305.939124,117.689487 306.394258,117.234373 C306.849391,116.779259 306.877837,116.779259 307.33297,116.779259 C307.788103,116.779259 308.300128,117.234373 308.755261,117.689487 L317.658804,126.222867 L318.597516,126.222867 C318.850483,125.950117 318.850483,125.528501 318.597516,125.255751 L310.063769,116.324146 C310.251792,115.81973 310.177187,115.254888 309.864648,114.816582 L309.864648,114.816582 Z" id="Path" fill="#FFFFFF" fill-rule="nonzero"></path>
        <ellipse id="Oval" fill="#003A5D" fill-rule="nonzero" cx="216.505455" cy="170.169778" rx="6.57098526" ry="2.61690343"></ellipse>
        <path d="M198.357019,169.629331 L231.52485,169.629331 C232.168968,169.629331 232.691129,169.107193 232.691129,168.463102 L232.691129,162.944849 L197.190741,162.944849 L197.190741,168.463102 C197.190741,169.107193 197.712902,169.629331 198.357019,169.629331 L198.357019,169.629331 Z" id="Path" fill="#D7DCE0" fill-rule="nonzero"></path>
        <path d="M198.641478,163.769873 L231.268837,163.769873 C232.981249,163.769873 234.369432,162.381619 234.369432,160.669281 L234.369432,146.788315 L195.512437,146.788315 L195.512437,160.669281 C195.512437,161.496527 195.842973,162.289483 196.430614,162.871757 C197.018255,163.454031 197.814231,163.777332 198.641478,163.769873 Z" id="Path" fill="#ADBAC0" fill-rule="nonzero"></path>
        <path d="M273.311777,57.3300401 C273.329228,30.2162082 254.335283,6.80334771 227.799439,1.22933436 C201.263595,-4.34467899 174.45397,9.4468665 163.559578,34.2759344 C152.665187,59.1050023 160.669982,88.1709578 182.740262,103.922299 C186.689818,106.75637 189.030429,111.320895 189.026789,116.181923 L189.026789,139.108272 C189.042436,146.469547 195.00629,152.433145 202.367881,152.448791 L229.704317,152.448791 C237.065908,152.433145 243.029762,146.469547 243.045408,139.108272 L243.045408,116.181923 C243.073448,111.278166 245.45426,106.686042 249.445719,103.836965 C264.437259,93.0915933 273.324019,75.7742767 273.311777,57.3300401 L273.311777,57.3300401 Z" id="Path" fill="#FFE600" fill-rule="nonzero"></path>
        <path d="M250.355985,11.4204516 C259.095896,21.2826204 263.931392,33.9980109 263.953089,47.175317 C263.865924,65.1519679 254.941884,81.9356739 240.087043,92.0608998 C236.130367,94.7326281 233.738005,99.1769146 233.686732,103.950744 L233.686732,126.0522 C233.531183,133.281269 227.576065,139.032981 220.345641,138.937605 L193.009205,138.937605 C191.620317,138.933411 190.239789,138.722506 188.913006,138.311824 L188.913006,138.994494 C188.928652,146.355769 194.892507,152.319367 202.254097,152.335013 L229.61898,152.335013 C236.98057,152.319367 242.944425,146.355769 242.960071,138.994494 L242.960071,116.238812 C242.959741,111.328096 245.346885,106.723758 249.360381,103.893854 C264.226021,93.2652636 273.12887,76.182626 273.325603,57.9097905 C273.522335,39.636955 264.989343,22.3666126 250.355985,11.4204516 L250.355985,11.4204516 Z" id="Path" fill="url(#linearGradient-4)" fill-rule="nonzero" style="mix-blend-mode: multiply;"></path>
        <path d="M216.306334,17.8204872 C244.500715,17.823651 268.505965,38.3297684 272.913523,66.1763115 C273.358324,63.2483536 273.58651,60.2915725 273.596223,57.3300401 C273.596223,25.6910664 247.946666,0.0426106013 216.306334,0.0426106013 C184.666002,0.0426106013 159.016445,25.6910664 159.016445,57.3300401 C159.021367,60.2928733 159.259147,63.2507374 159.727591,66.1763115 C164.111213,38.3279577 188.113897,17.8137236 216.306334,17.8204872 Z" id="Path" fill="#FFF48F" fill-rule="nonzero"></path>
        <path d="M218.069975,152.50568 L214.002222,152.50568 L214.002222,70.2723343 L198.328574,54.6846921 C197.308824,55.2418863 196.162355,55.5260415 195.000412,55.5095855 C191.343681,55.4938919 188.390557,52.5197045 188.400981,48.8631114 C188.41146,45.2065183 191.381538,42.2492598 195.038299,42.2544685 C198.695061,42.2596773 201.656701,45.2253851 201.656735,48.8819932 C201.663783,49.8682265 201.439713,50.8424 201.002481,51.7264534 L216.135659,66.8020927 L231.012825,51.9540102 C229.558287,49.3149683 230.05823,46.0279728 232.231629,43.9406823 C234.405028,41.8533918 237.709665,41.4865435 240.287963,43.0463472 C242.866262,44.6061508 244.074989,47.7034667 243.234705,50.5972571 C242.39442,53.4910476 239.714759,55.45937 236.70199,55.3958071 C235.71583,55.4018033 234.741854,55.1777985 233.857407,54.7415813 L217.813963,70.6990033 L218.069975,152.50568 Z M195.000412,46.3219789 C193.590304,46.3376471 192.458387,47.4906494 192.468804,48.9007457 C192.479221,50.3108421 193.628049,51.446997 195.038235,51.4418497 C196.448421,51.4366674 197.588895,50.292128 197.588982,48.8819932 C197.588982,48.198078 197.315397,47.5425803 196.82911,47.0616584 C196.342824,46.5807365 195.684315,46.3143799 195.000412,46.3219789 Z M236.844219,46.1797559 C235.434111,46.1954241 234.302193,47.3484264 234.31261,48.7585227 C234.323027,50.1686191 235.471856,51.304774 236.882041,51.2996267 C238.292227,51.2944444 239.432702,50.149905 239.432789,48.7397701 C239.419001,47.3645037 238.33207,46.2401411 236.958002,46.1797559 L236.844219,46.1797559 Z" id="Shape" fill="#003A5D" fill-rule="nonzero"></path>
    </g>
</svg>