<svg xmlns="http://www.w3.org/2000/svg" viewBox="0 0 300.82 301.41">
	<defs>
		<linearGradient id="linear-gradient" x1="45.38" y1="200.15" x2="237.64" y2="200.15" gradientTransform="rotate(180 137.825 192.4)" gradientUnits="userSpaceOnUse">
			<stop offset=".48" stop-color="#ffe600" />
			<stop offset="1" stop-color="#ffef89" />
		</linearGradient>
		<linearGradient id="linear-gradient-2" x1="38.01" y1="116.04" x2="230.27" y2="116.04" gradientUnits="userSpaceOnUse">
			<stop offset="0" stop-color="#009bdb" />
			<stop offset=".82" stop-color="#0ba3de" />
			<stop offset="1" stop-color="#0ea5df" />
		</linearGradient>
		<style>
			.cls-6{mix-blend-mode:multiply}.cls-3,.cls-6{fill:#003a5d}.cls-6{opacity:.25}
		</style>
	</defs>
	<g style="isolation:isolate">
		<g id="Layer_2" data-name="Layer 2">
			<g id="Layer_2-2" data-name="Layer 2">
				<path d="M300.74 30.75a16.63 16.63 0 0 0-.66-3.24 15.28 15.28 0 0 0-.56-1.52 16.6 16.6 0 0 0-15.3-10.14H31.86c-.53 0-1.06 0-1.58.08l-.51.07q-.52.06-1 .15l-.6.13c-.3.07-.6.14-.89.23l-.62.19q-.41.14-.81.3l-.62.25c-.25.1-.49.23-.73.35l-.63.31-.16.1a17 17 0 0 0-1.8 1.19l-.34.26c-.27.21-.53.44-.78.67l-.29.25c-.26.25-.51.51-.76.77l-.19.21c-.26.29-.51.59-.76.9a16.57 16.57 0 0 0-2.95 6.05 16.73 16.73 0 0 0-.53 4.09v252.41a16.57 16.57 0 0 0 2.39 8.55l.19.29c.15.23.29.45.45.68l.14.18a16.54 16.54 0 0 0 13.44 6.89h252.3a16.2 16.2 0 0 0 4.09-.53 16.42 16.42 0 0 0 6.05-2.95h.05c.31-.24.61-.5.9-.76l.21-.19c.27-.25.52-.5.77-.76l.26-.28c.23-.26.45-.51.67-.78l.25-.34a17.25 17.25 0 0 0 1.16-1.76l.13-.21c.11-.2.21-.42.32-.62s.24-.49.35-.74.17-.41.25-.62.2-.53.29-.81.13-.41.19-.62.16-.59.23-.89.09-.39.13-.59.11-.68.16-1c0-.17.05-.34.06-.51.05-.52.08-1.05.08-1.58V32.45c0-.57-.03-1.14-.08-1.7Z" style="mix-blend-mode:multiply;fill:#96a6ae;opacity:.16" />
				<rect class="cls-3" x=".52" width="285.56" height="285.56" rx="16.6" />
				<path d="M269.48 0H17.12A16.6 16.6 0 0 0 1.05 12.51 16.67 16.67 0 0 1 5.14 12H257.5a16.6 16.6 0 0 1 16.6 16.6V281a16.59 16.59 0 0 1-.53 4.08A16.58 16.58 0 0 0 286.08 269V16.6A16.6 16.6 0 0 0 269.48 0Z" style="fill:#fff;opacity:.37" />
				<g style="opacity:.3;mix-blend-mode:multiply">
					<path class="cls-3" d="M46.65 105.71a10.29 10.29 0 0 0-18.38 9 2.41 2.41 0 0 1-.58 2.53l-18 18a2.4 2.4 0 0 0-.69 1.65V188l-8.9 8.9v6.69L13 190.7a2.37 2.37 0 0 0 .7-1.68v-51.15L30.64 121a2.46 2.46 0 0 1 2.84-.45 10.3 10.3 0 0 0 13.17-14.8ZM255.35 239.72a10.33 10.33 0 0 0-11.33-.65 10.06 10.06 0 0 0-4.32 5 2.48 2.48 0 0 1-2.28 1.56H215a2.35 2.35 0 0 0-1.67.69l-39.47 39.47h6.69L216 250.33h21.4a2.47 2.47 0 0 1 2.28 1.57 10.1 10.1 0 0 0 4.31 5 10.31 10.31 0 0 0 11.36-17.16ZM163 30.24h-21.49a2.46 2.46 0 0 1-2.29-1.56 10.12 10.12 0 0 0-4.31-5 10.31 10.31 0 1 0 0 17.81 10.13 10.13 0 0 0 4.32-5 2.46 2.46 0 0 1 2.26-1.49h22.44a2.33 2.33 0 0 0 1.67-.7L199.68.21H193ZM178.94 257a10.39 10.39 0 1 0-14.7 0 10.39 10.39 0 0 0 14.7 0Z" />
					<circle class="cls-3" cx="252.08" cy="142.61" r="9.6" transform="rotate(-45 252.083 142.614)" />
					<circle class="cls-3" cx="61.37" cy="221.8" r="9.6" transform="rotate(-45 61.372 221.799)" />
					<circle class="cls-3" cx="38.13" cy="164.87" r="9.6" transform="rotate(-45 38.13 164.866)" />
					<path class="cls-3" d="m246.52 97-36.18 36.18h-23.91a2.48 2.48 0 0 1-2.33-1.69 10.33 10.33 0 1 0-.44 7.8 2.42 2.42 0 0 1 2.2-1.38h25.46a2.4 2.4 0 0 0 1.68-.69L249.17 101h36.42v-4.72h-37.4a2.36 2.36 0 0 0-1.67.72ZM143.61 215.51l-36.18 36.17H83.52a2.47 2.47 0 0 1-2.33-1.68 10.33 10.33 0 1 0-.44 7.81 2.42 2.42 0 0 1 2.2-1.38h25.46a2.33 2.33 0 0 0 1.67-.7l36.18-36.17h36.41v-4.73h-37.39a2.36 2.36 0 0 0-1.67.68ZM203.88 43.83a2.46 2.46 0 0 1-.5-2.73 10.13 10.13 0 0 0 .47-6.57 10.31 10.31 0 1 0-12.61 12.57 10.09 10.09 0 0 0 6.56-.45 2.46 2.46 0 0 1 2.72.51L216.39 63a2.36 2.36 0 0 0 1.67.69h67.53V59H219ZM65.55 26.65l15.16 15.16a2.48 2.48 0 0 1 .51 2.73 10.06 10.06 0 0 0-.48 6.57 10.31 10.31 0 1 0 12.61-12.57 10.1 10.1 0 0 0-6.56.45 2.47 2.47 0 0 1-2.72-.51L68.2 22.61a2.36 2.36 0 0 0-1.67-.69H0v4.73ZM152.9 285.76h6.69l-11.34-11.34a2.46 2.46 0 0 1-.5-2.73 10.13 10.13 0 0 0 .47-6.57 10.31 10.31 0 1 0-12.61 12.57 10.09 10.09 0 0 0 6.56-.45 2.47 2.47 0 0 1 2.72.51ZM142.22 56.61A10.39 10.39 0 1 0 152.62 67a10.39 10.39 0 0 0-10.4-10.39Z" />
					<path class="cls-3" d="M250.75 33.33a10.33 10.33 0 1 0-.09 7.8 2.42 2.42 0 0 1 2.24-1.49h32.69v-4.73H253a2.45 2.45 0 0 1-2.25-1.58ZM250.75 206.24a10.34 10.34 0 1 0-.09 7.79 2.42 2.42 0 0 1 2.24-1.48h32.69v-4.73H253a2.47 2.47 0 0 1-2.25-1.58Z" />
					<circle class="cls-3" cx="33.94" cy="52.69" r="9.6" />
					<path class="cls-3" d="M23.42 245.66a10.28 10.28 0 0 0-2.23 11.17 2.42 2.42 0 0 1-.54 2.64L2.4 277.72a16.7 16.7 0 0 0 3 3.67l18.48-18.48a2.45 2.45 0 0 1 2.73-.5 10.31 10.31 0 1 0-3.22-16.75Z" />
				</g>
				<path class="cls-6" d="m225.54 112.38-5.44-3.89-10.88-7.79-5.43-3.89-10.88-7.78.01 2 .01 2 .01 2v2.01l.03 6 .01 2v1.39l.01.7v.7H44.16v25.02h148.93l.01 1.96v.65l.01 2.03.01 2.02.01 4.05.01 2.02.01 2.02.02 4.05 5.4-3.94 5.41-3.93 10.81-7.87 5.41-3.94 5.4-3.94 10.82-7.87-10.88-7.78zM154.41 176.52H86.83v-1.96l-.01-.65-.01-2.03v-2.02l-.02-4.05-.01-2.02-.01-2.03-.02-4.04-5.4 3.93-5.41 3.94-10.81 7.87-5.4 3.94-5.41 3.94-10.81 7.87 10.87 7.78 5.44 3.89 10.88 7.78 5.44 3.9 10.87 7.78-.01-2v-2l-.01-2.01-.01-2-.03-6v-2l-.01-1.4v-1.39H235.77v-25.02h-81.36z" />
				<path style="fill:url(#linear-gradient)" d="m81.5 211.96-.01-2-.01-2-.02-6.01-.01-2-.01-1.39v-1.4h67.47v-25.02H81.33v-1.96l-.01-.65-.01-2.03v-2.02l-.02-4.04-.01-2.03-.01-2.02-.01-4.05-5.41 3.94-5.41 3.93-10.81 7.88-5.4 3.93-5.41 3.94-10.81 7.87 10.87 7.78 5.44 3.89 10.88 7.79 5.44 3.89 10.87 7.78-.01-2v-2z" />
				<path style="fill:#009bdb" d="M148.81 172.14h81.46v25.02h-81.46z" />
				<path style="fill:url(#linear-gradient-2)" d="m219.39 108.07-5.44-3.89-10.87-7.78-5.44-3.89-10.88-7.78.01 2 .01 2 .01 2 .01 2 .02 6.01.01 2 .01 1.39v1.39H38.01v25.03h148.93l.01 1.96v.65l.01 2.02.01 2.03.02 4.04.01 2.03v2.02l.02 4.05 5.41-3.94 5.4-3.94 10.82-7.87 5.4-3.93 5.41-3.94 10.81-7.87-10.88-7.79z" />
			</g>
		</g>
	</g>
</svg>
