<svg xmlns="http://www.w3.org/2000/svg" viewBox="0 0 103.16 104.71"><defs><style>.cls-1{fill:#231f20}</style></defs><g id="Layer_1" data-name="Layer 1"><path class="cls-1" d="M70.63 44.39A8.55 8.55 0 0076.3 33.7L67.84 6.05A8.57 8.57 0 0057.15.38L6.06 16A8.56 8.56 0 00.38 26.71l8.46 27.65A8.59 8.59 0 0017 60.42a8.75 8.75 0 002.54-.42l51.09-15.61zM7.23 19.85L58.32 4.2a4.38 4.38 0 011.33-.2A4.58 4.58 0 0164 7.23l4.23 13.82-59.8 18.31L4.2 25.54a4.55 4.55 0 013.03-5.69zm11.13 36.36a4.55 4.55 0 01-5.69-3L12 51.09l59.84-18.32.64 2.1a4.55 4.55 0 01-3 5.7z"/><path class="cls-1" d="M72.77 46.32l-7.63 2.34h21.8a5.17 5.17 0 005.17-5.17V27.31H76.23l2.43 7.92a8.88 8.88 0 01-5.89 11.09z"/><path class="cls-1" d="M100.66 27.31H95v16.18a8 8 0 01-8 8H55.87l-20.5 6.28-.08 37.15v7.3a2.49 2.49 0 002.5 2.49h62.87a2.49 2.49 0 002.5-2.49V29.81a2.5 2.5 0 00-2.5-2.5zm-44 66.93H43.79V81.35h12.89zm0-20H43.79V61.32h12.89zm17.93 20H61.72V81.35h12.89zm0-20H61.72V61.32h12.89zm18.21 20H79.93V81.35h12.89zm0-20H79.93V61.32h12.89z"/></g></svg>