<?xml version="1.0" encoding="utf-8"?><svg version="1.1" id="Layer_1" xmlns="http://www.w3.org/2000/svg" xmlns:xlink="http://www.w3.org/1999/xlink" x="0px" y="0px" viewBox="0 0 112.5 61.9" style="enable-background:new 0 0 112.5 61.9;" xml:space="preserve"> <g id="Layer_1_1_"> <path d="M87.1,13.9c-2.9,0-5.8,0.5-8.5,1.6C70.1,0.7,51.2-4.4,36.4,4.1C29,8.4,23.7,15.5,21.8,23.8c-1-0.2-2-0.3-3-0.3 c-10.6,0.2-19,9-18.7,19.6c0.2,10.3,8.5,18.5,18.7,18.7h68.4c13.2,0.8,24.6-9.3,25.3-22.6s-9.3-24.6-22.6-25.3 C89,13.9,88.1,13.9,87.1,13.9z M34.3,20.8l18.5,16.8c-2.9,0.7-5.6,2.4-7.6,4.7L33.4,21.4c-0.1-0.3,0-0.6,0.2-0.7 C33.9,20.6,34.1,20.6,34.3,20.8z M72.7,54.6h-29c0-0.1,0-0.3,0-0.4c0-8,6.5-14.5,14.5-14.5s14.5,6.5,14.5,14.5 C72.7,54.3,72.7,54.4,72.7,54.6z"/> </g> </svg>