<svg xmlns="http://www.w3.org/2000/svg" viewBox="0 0 443.05 280.69"><g data-name="Layer 1"><path d="M168.85 45 149.2 25.39 129.55 5.74a16.48 16.48 0 0 0-23.33 0L86.57 25.39 66.91 45a16.5 16.5 0 0 0 0 23.33L86.57 88l19.65 19.65a16.48 16.48 0 0 0 23.33 0L149.2 88l19.65-19.65a16.48 16.48 0 0 0 0-23.33ZM174.47 130.06h-27l-10 10-10 10a13.44 13.44 0 0 1-19 0l-10-10-10-10h-25a63.16 63.16 0 0 0-63 63v86.23h237v-86.24a63.16 63.16 0 0 0-63-63Z"/><g><path d="m373 98.31-19.7-19.65L333.65 59a16.48 16.48 0 0 0-23.33 0l-19.65 19.66L271 98.31a16.5 16.5 0 0 0 0 23.33l19.66 19.65 19.65 19.65a16.48 16.48 0 0 0 23.33 0l19.65-19.65L373 121.64a16.5 16.5 0 0 0 0-23.33ZM423.06 201.83a62.84 62.84 0 0 0-44.49-18.5h-27l-10 10-10 10a13.44 13.44 0 0 1-19 0l-10-10-10-10h-25a63.21 63.21 0 0 0-12.31 1.22v95.3h186.3v-33.53a62.84 62.84 0 0 0-18.5-44.49Z"/></g></g></svg>