<svg xmlns="http://www.w3.org/2000/svg" viewBox="0 0 110.07 110.99"><defs><style>.cls-1{fill:#231f20;}</style></defs><g id="Layer_1" data-name="Layer 1"><path class="cls-1" d="M62,108.92c0,1.15,1.23,2.07,2.76,2.07h2.92c1.53,0,2.76-.92,2.76-2.07v-5.27H62Z"/><path class="cls-1" d="M94.29,108.92c0,1.15,1.24,2.07,2.76,2.07H100c1.52,0,2.76-.92,2.76-2.07v-5.27H94.29Z"/><path class="cls-1" d="M73.76,56.71c1.26,1.1,2,1.79,2,3.24s-.67,2.1-1.85,3.14a.32.32,0,0,0,.2.56h3A5.58,5.58,0,0,0,78.36,60c0-2.71-1.59-4.1-2.87-5.22s-2-1.79-2-3.24.71-2.14,2-3.24,2.67-2.33,2.85-4.72a.47.47,0,0,0-.47-.5H76.2a.5.5,0,0,0-.49.42c-.12,1.18-.81,1.84-1.95,2.83s-2.87,2.5-2.87,5.21S72.48,55.59,73.76,56.71Z"/><path class="cls-1" d="M84.86,56.71c1.25,1.1,2,1.79,2,3.24s-.67,2.1-1.86,3.14a.32.32,0,0,0,.2.56h3A5.53,5.53,0,0,0,89.45,60c0-2.71-1.59-4.1-2.87-5.22s-2-1.79-2-3.24.72-2.14,2-3.24,2.68-2.33,2.86-4.72A.48.48,0,0,0,89,43H87.29a.48.48,0,0,0-.48.42c-.13,1.18-.82,1.84-2,2.83C83.58,47.39,82,48.78,82,51.49S83.58,55.59,84.86,56.71Z"/><path class="cls-1" d="M17.91,13.68c1.26,1.1,2,1.79,2,3.24S19.21,19,18,20.06a.32.32,0,0,0,.21.56h2.95a5.6,5.6,0,0,0,1.33-3.7c0-2.71-1.59-4.1-2.87-5.22s-2-1.79-2-3.24.71-2.14,2-3.24S22.31,2.88,22.49.49A.47.47,0,0,0,22,0H20.35a.49.49,0,0,0-.49.41c-.13,1.18-.82,1.84-1.95,2.83C16.63,4.36,15,5.75,15,8.46S16.63,12.56,17.91,13.68Z"/><path class="cls-1" d="M29,13.68c1.26,1.1,2,1.79,2,3.24S30.3,19,29.12,20.06a.32.32,0,0,0,.2.56h3a5.6,5.6,0,0,0,1.33-3.7c0-2.71-1.59-4.1-2.87-5.22s-2-1.79-2-3.24.71-2.14,2-3.24S33.4,2.88,33.58.49A.47.47,0,0,0,33.11,0H31.44A.49.49,0,0,0,31,.41c-.12,1.18-.81,1.84-1.95,2.83s-2.87,2.51-2.87,5.22S27.73,12.56,29,13.68Z"/><path class="cls-1" d="M108.08,80h-6.33l-2.59-9a4.85,4.85,0,0,0-4.75-3.79H68.3A4.8,4.8,0,0,0,63.58,71L61,80H55.44a2,2,0,0,0-2,2V97.71a2,2,0,0,0,2,2h52.64a2,2,0,0,0,2-2V82A2,2,0,0,0,108.08,80ZM66.49,71.75A1.84,1.84,0,0,1,68.3,70.3H94.41a1.88,1.88,0,0,1,1.84,1.54L98.63,80H64.09Zm4.17,20.34a1,1,0,0,1-1,1H62.81a1,1,0,0,1-1-1V88.35a1,1,0,0,1,1-1h6.85a1,1,0,0,1,1,1Zm32.53,0a1,1,0,0,1-1,1H95.34a1,1,0,0,1-1-1V88.35a1,1,0,0,1,1-1h6.86a1,1,0,0,1,1,1Z"/><path class="cls-1" d="M33.84,75.09V36.31H17.36V75.09A42.72,42.72,0,0,1,4.84,105.31L0,110.15H51.21l-4.85-4.84A42.76,42.76,0,0,1,33.84,75.09Z"/><rect class="cls-1" x="17.25" y="24.62" width="16.92" height="7.84"/></g></svg>