<svg xmlns="http://www.w3.org/2000/svg" viewBox="0 0 310.2 285.44"><g data-name="Layer 1"><path d="m128.34 148.49-10-10-10-9.95a8.37 8.37 0 0 0-11.81 0l-9.95 9.95-10 10a8.38 8.38 0 0 0 0 11.82l10 9.95 9.95 10a8.37 8.37 0 0 0 11.81 0l10-10 10-9.95a8.35 8.35 0 0 0 0-11.82ZM131.19 191.54h-13.65l-5.08 5.08-5.08 5.07a6.77 6.77 0 0 1-9.61 0l-5.08-5.07-5.08-5.08H75a32 32 0 0 0-31.9 31.89v17h120v-17a32 32 0 0 0-31.89-31.89ZM183.6 110.32h79.97v19.69H183.6zM183.6 185.29h79.97v19.69H183.6zM183.6 147.8h79.97v19.69H183.6zM183.6 222.77h79.97v19.69H183.6z"/><path d="M238.83 0H0v285.44h310.2V64Zm51.68 265.76H19.69V19.69h199.46v64h71.36Z"/></g></svg>