<svg xmlns="http://www.w3.org/2000/svg" viewBox="0 0 108.81 109.48"><defs><style>.cls-1{fill:#231f20}</style></defs><g id="Layer_1" data-name="Layer 1"><path class="cls-1" d="M82.85 38.66a25.93 25.93 0 00-20.34 42L60.18 83l3.93 4 2.28-2.28a26 26 0 1016.46-46zm0 46.91a21 21 0 1121-21 21 21 0 01-21 21zM37.93 102.14a1 1 0 000 1.39l5.66 5.66a1 1 0 001.39 0l18.3-18.31-7-7z"/><path class="cls-1" d="M53.81 70.78a29.94 29.94 0 0117-33.33.57.57 0 00.24-.82L48.47 1.84a4 4 0 00-6.76 0L.65 65.24A4 4 0 004 71.46h49.27a.55.55 0 00.54-.68zm-5.55-15.64h-6.47v-6.47h6.47zM48 44.87h-5.85l-.94-23.67H49z"/></g></svg>