<svg xmlns="http://www.w3.org/2000/svg" viewBox="0 0 107.72 111.88"><defs><style>.cls-1{fill:#231f20;}</style></defs><g id="Layer_1" data-name="Layer 1"><path class="cls-1" d="M22.12,32.1l7.41,13.42L31,32.5l17,8.43a.27.27,0,0,0,.32-.41L35.35,25.27l8.56-8.2a.39.39,0,0,0-.28-.67l-11.35.48L31.88,0,23.39,14.47,13.8.93l2,17.5L0,21l13.62,5.9L7.91,43.65Zm-1.8-10.42-.68-6.09,4.08,5.76,4.18-7.14L28.07,21l5.57-.24-4.16,4,4.07,4.81-6.2-3.08-.64,5.86-3.42-6.19L16.6,31.59,19,24.7l-4.68-2Z"/><path class="cls-1" d="M107,105.33,63.84,38.64a4.23,4.23,0,0,0-7.11,0L13.54,105.33a4.24,4.24,0,0,0,3.56,6.55h86.37A4.24,4.24,0,0,0,107,105.33ZM64.4,103.27H56v-8.4h8.4Zm-.29-13.34H56.46L55.25,59.17H65.32Z"/></g></svg>