<svg xmlns="http://www.w3.org/2000/svg" viewBox="0 0 78.98 113.87"><defs><style>.cls-1{fill:#231f20;}</style></defs><g id="Layer_1" data-name="Layer 1"><path class="cls-1" d="M39.4,22.6a7.49,7.49,0,0,0-6.15,3.22l2.39,2.39a4.22,4.22,0,0,1,7.86.85l2.5-2.5A7.5,7.5,0,0,0,39.4,22.6Z"/><path class="cls-1" d="M39.62,11.61a18.35,18.35,0,0,0-14.07,6.51l2.36,2.35a15.12,15.12,0,0,1,23.76.42L54,18.52A18.56,18.56,0,0,0,39.62,11.61Z"/><path class="cls-1" d="M40,0A30.08,30.08,0,0,0,17.49,10.06l2.34,2.33a26.8,26.8,0,0,1,40.29,0l2.33-2.33A30.06,30.06,0,0,0,40,0Z"/><rect class="cls-1" y="108.87" width="78.98" height="5"/><path class="cls-1" d="M78.43,55.35v-6L52.32,40.45V36.58H27.09v3.77L.29,49.5v5.85l26.8.15v2L.29,66.64v5.85l25.57.14-5.22,37.8h4.7L26.51,102H52.9l1.17,8.44h4.7l-5.22-37.8,24.88-.14v-6L52.32,57.59V55.5Zm-26.11-10,15.75,5.38-15.75.09ZM27.09,68l-16-.09,16-5.48Zm0-17.14-16-.09,16-5.47Zm4.66-9.6H41.81L31.75,47.48ZM47.66,43.1v7.76H35.14ZM31.75,55.52h11.9l-11.9,7.39Zm15.91,3v9H33.14Zm.61,14.14-8.56,8.56-8.57-8.56ZM29.83,77.94l6.58,6.58-8.69,8.69Zm.36,19.39,9.52-9.52,9.51,9.52ZM43,84.52l6.58-6.58,2.11,15.27ZM68.07,67.89,52.32,68V62.51Z"/></g></svg>