<svg xmlns="http://www.w3.org/2000/svg" viewBox="0 0 109.22 108.62"><defs><style>.cls-1{fill:#231f20;}</style></defs><g id="Layer_1" data-name="Layer 1"><path class="cls-1" d="M24.89,97.92H10.11A10.11,10.11,0,0,0,0,108v.59H35V108A10.11,10.11,0,0,0,24.89,97.92Z"/><circle class="cls-1" cx="17.5" cy="88.95" r="7.4"/><path class="cls-1" d="M99.11,97.92H84.33A10.11,10.11,0,0,0,74.22,108v.59h35V108A10.11,10.11,0,0,0,99.11,97.92Z"/><circle class="cls-1" cx="91.72" cy="88.95" r="7.4"/><circle class="cls-1" cx="73" cy="74.04" r="7.4" transform="translate(-4.96 142.83) rotate(-86.83)"/><path class="cls-1" d="M62.05,97.92H47.27A10.11,10.11,0,0,0,37.16,108v.59h35V108A10.11,10.11,0,0,0,62.05,97.92Z"/><path class="cls-1" d="M54.66,81.56A7.4,7.4,0,1,0,62.06,89,7.39,7.39,0,0,0,54.66,81.56Z"/><path class="cls-1" d="M54.66,51.88a7.4,7.4,0,1,0,7.4,7.4A7.4,7.4,0,0,0,54.66,51.88Z"/><circle class="cls-1" cx="36.2" cy="74.04" r="7.4" transform="translate(-39.73 106.08) rotate(-86.83)"/><path class="cls-1" d="M54.3,5.72a6.65,6.65,0,0,0,5.45-2.85L57.63.76A3.74,3.74,0,0,1,54.3,2.81,3.76,3.76,0,0,1,50.67,0L48.45,2.22A6.67,6.67,0,0,0,54.3,5.72Z"/><path class="cls-1" d="M54.1,15.45A16.24,16.24,0,0,0,66.57,9.69L64.48,7.6A13.34,13.34,0,0,1,54.1,12.54a13.49,13.49,0,0,1-10.67-5.3L41.34,9.33A16.41,16.41,0,0,0,54.1,15.45Z"/><path class="cls-1" d="M53.81,25.74A26.62,26.62,0,0,0,73.7,16.83l-2.06-2.07a23.71,23.71,0,0,1-17.83,8.06A23.71,23.71,0,0,1,36,14.72l-2.07,2.07A26.64,26.64,0,0,0,53.81,25.74Z"/></g></svg>