<svg data-name="Layer 2" xmlns="http://www.w3.org/2000/svg" viewBox="0 0 356.92 316.98"><path d="M33.66 131.23h123.26v22.52H33.66zM33.66 228.57h123.26v22.52H33.66zM.79 179.9h123.26v22.52H.79zM212.38 53.02h22.52V22.48h20.06V-.04h-62.63v22.52h20.05v30.54zM226.39 87.42a102.44 102.44 0 0 1 60.43 19.65L303 90.92a125.39 125.39 0 0 0-171.63 17.46h32.83a102.45 102.45 0 0 1 62.19-20.96ZM325.86 163.74a102.93 102.93 0 0 1-161 109.18h-33.05a125.56 125.56 0 0 0 212-127.12Z"/><path d="m179.06 171.22-15.92 15.92 53.57 53.58.17-.16.04.04 139.7-139.7-15.93-15.93-123.94 123.94-37.69-37.69z"/></svg>