<svg id="Layer_1" data-name="Layer 1" xmlns="http://www.w3.org/2000/svg" viewBox="0 0 128 128"><defs><style>.cls-1{fill:#231f20}</style></defs><path class="cls-1" transform="rotate(-45 72.73 27.32)" d="M54.99 25.66h35.46v3.32H54.99z"/><path class="cls-1" d="m106.27 37.32-23-23 5-5a5.31 5.31 0 0 1 7.51 0L115 28.6ZM88 14.4l18.25 18.25 4.08-4.08L93.5 11.75a2 2 0 0 0-2.85 0Z"/><path class="cls-1" d="M34.29 106.88 20.53 93.12a1.64 1.64 0 0 1 0-2.33L91.29 20a1.66 1.66 0 0 1 2.34 2.35L24 92l11.44 11.4 69.61-69.62a1.66 1.66 0 0 1 2.47 2.22l-.12.13-70.78 70.77a1.64 1.64 0 0 1-2.33 0Z"/><path class="cls-1" d="M2.22 125.46a1.88 1.88 0 0 1-.34-2.26l18.38-32.08 2.88 1.67-15.68 27.39 27.14-15.89 1.69 2.85-31.81 18.61a1.88 1.88 0 0 1-2.28-.31ZM111 26.36 108.61 24l14.18-14.16-5.07-5.08-14.18 14.18-2.35-2.35 14.18-14.17a3.29 3.29 0 0 1 4.66 0l5.07 5.07a3.29 3.29 0 0 1 0 4.66ZM40.65 86.51a5.84 5.84 0 0 1 1.78 2.77 2.74 2.74 0 0 1-3.08 3 5.88 5.88 0 0 1-2.78-1.76 6.08 6.08 0 0 1-1.8-2.79 2.45 2.45 0 0 1 .8-2.27 2.39 2.39 0 0 1 2.29-.74 6 6 0 0 1 2.79 1.79Zm-2.84 2.84a6.8 6.8 0 0 0 1.74 1.37.91.91 0 0 0 1.24-.32.89.89 0 0 0 0-.92 6.4 6.4 0 0 0-1.36-1.74 6.25 6.25 0 0 0-1.74-1.36.91.91 0 0 0-1.24.33.92.92 0 0 0 0 .91 6.72 6.72 0 0 0 1.35 1.74Zm9.43-3.53L46 87l-3.4-3.4-.6-.52-.59-.63a7.66 7.66 0 0 1 0 .83l-.13 1.21-1.28-.16.34-3.33 1-1Zm2.69-8.59A5.77 5.77 0 0 1 51.7 80a2.71 2.71 0 0 1-3.07 3 5.88 5.88 0 0 1-2.78-1.76 6 6 0 0 1-1.8-2.79 2.71 2.71 0 0 1 3.09-3 6 6 0 0 1 2.79 1.78Zm-2.84 2.84a6.24 6.24 0 0 0 1.74 1.37.91.91 0 0 0 1.24-1.24 6.35 6.35 0 0 0-1.36-1.73A6.24 6.24 0 0 0 47 77.1a.92.92 0 0 0-1.25.33 1 1 0 0 0 0 .91 6.35 6.35 0 0 0 1.36 1.73Zm7.48-7.48a5.73 5.73 0 0 1 1.77 2.77 2.71 2.71 0 0 1-2.41 3 2.91 2.91 0 0 1-.66 0 7.64 7.64 0 0 1-4.57-4.55 2.7 2.7 0 0 1 3.08-3 5.86 5.86 0 0 1 2.79 1.78Zm-2.84 2.84a6.8 6.8 0 0 0 1.74 1.37.91.91 0 0 0 1.09-.16.89.89 0 0 0 .14-1.09 6.32 6.32 0 0 0-1.35-1.74 6.44 6.44 0 0 0-1.75-1.36.91.91 0 0 0-1.24.33.9.9 0 0 0 0 .91 6.55 6.55 0 0 0 1.36 1.74Zm9.44-3.55-1.23 1.23-3.4-3.4-.54-.56-.59-.63a7.4 7.4 0 0 1 0 .83l-.12 1.21-1.39-.16.36-3.4 1-1Zm4.64-4.64-1.22 1.23-3.41-3.41-.56-.56-.62-.63v.83l-.12 1.22-1.35-.16.37-3.38 1-1Zm2.7-8.58a5.8 5.8 0 0 1 1.77 2.77 2.73 2.73 0 0 1-2.42 3 2.91 2.91 0 0 1-.66 0 5.88 5.88 0 0 1-2.78-1.76 6 6 0 0 1-1.79-2.79 2.45 2.45 0 0 1 .79-2.27 2.41 2.41 0 0 1 2.33-.71 5.7 5.7 0 0 1 2.76 1.76Zm-2.84 2.84a6.35 6.35 0 0 0 1.73 1.36.91.91 0 0 0 1.24-1.24 9.08 9.08 0 0 0-3.1-3.1.9.9 0 0 0-1.24 1.24 6.41 6.41 0 0 0 1.35 1.75ZM75.1 58l-1.23 1.23-3.4-3.4-.56-.57-.59-.62v.83l-.13 1.21-1.34-.16.37-3.38 1-1Zm2.69-8.63a5.73 5.73 0 0 1 1.77 2.77 2.71 2.71 0 0 1-3.07 3 5.88 5.88 0 0 1-2.78-1.76 6 6 0 0 1-1.8-2.79 2.7 2.7 0 0 1 2.38-3 2.41 2.41 0 0 1 .71 0 5.91 5.91 0 0 1 2.79 1.78ZM75 52.21a6.8 6.8 0 0 0 1.74 1.37.91.91 0 0 0 1.24-1.24 9 9 0 0 0-3.1-3.1.91.91 0 0 0-1.24 1.24 6.72 6.72 0 0 0 1.35 1.74Zm9.39-3.54-1.23 1.22-3.4-3.4-.57-.56-.58-.64v.84l-.13 1.21-1.34-.16.37-3.38 1-1ZM89 44l-1.2 1.25-3.4-3.41-.56-.56-.59-.63a8.16 8.16 0 0 1 0 .83l-.12 1.21-1.34-.15.36-3.38 1-1Zm2.73-8.56a5.88 5.88 0 0 1 1.77 2.77 2.74 2.74 0 0 1-3.08 3 5.88 5.88 0 0 1-2.78-1.76 6 6 0 0 1-1.79-2.79 2.7 2.7 0 0 1 2.37-3 2.82 2.82 0 0 1 .71 0 5.93 5.93 0 0 1 2.8 1.78Zm-2.84 2.84a6.58 6.58 0 0 0 1.73 1.37.92.92 0 0 0 1.24-1.25 6.55 6.55 0 0 0-1.36-1.74 6.55 6.55 0 0 0-1.74-1.36.91.91 0 0 0-1.24 1.24 6.39 6.39 0 0 0 1.37 1.74Z"/></svg>