<svg xmlns="http://www.w3.org/2000/svg" viewBox="0 0 109.84 66.12"><defs><style>.cls-1{fill:#231f20;}</style></defs><g id="Layer_1" data-name="Layer 1"><rect class="cls-1" x="0.29" y="25.3" width="17.22" height="40.69"/><path class="cls-1" d="M82.44,50.94a3.91,3.91,0,0,0-3.67-5.25H73a.9.9,0,0,1-.85-1.2l0-.07a.91.91,0,0,1,.85-.6H82.2a3.9,3.9,0,0,0,3.68-2.59l.58-1.61a3.91,3.91,0,0,0-3.68-5.22H77.06a.9.9,0,0,1-.84-1.2.88.88,0,0,1,.84-.6l27.74.13a5,5,0,0,0,5-4.33,4.83,4.83,0,0,0-4.8-5.3H62.28a.83.83,0,0,1-.55-1.46L75.29,9.87A5.86,5.86,0,0,0,76,2.28,5.69,5.69,0,0,0,68.78.66L44.2,13.71a22.43,22.43,0,0,0-8.13,7.35L34,24.17a10.1,10.1,0,0,1-8.41,4.5H21.92l-.3,33.48h3.83a13.84,13.84,0,0,1,5.32,1.06l4.42,1.84a13.84,13.84,0,0,0,5.32,1.06H74.14a3.92,3.92,0,0,0,3.68-2.57l.58-1.61a3.91,3.91,0,0,0-3.67-5.25H67.79l.35-1a.91.91,0,0,1,.84-.59h9.21a3.92,3.92,0,0,0,3.67-2.57Z"/></g></svg>