<svg xmlns="http://www.w3.org/2000/svg" viewBox="0 0 71.01 110.79"><defs><style>.cls-1{fill:#231f20;}</style></defs><g id="Layer_1" data-name="Layer 1"><path class="cls-1" d="M28.13,52H42.78V43.49a7.33,7.33,0,1,0-14.65,0Z"/><path class="cls-1" d="M34.88,25.89A4.24,4.24,0,0,1,39,29.06l2.5-2.5a7.48,7.48,0,0,0-12.75-.74l2.39,2.39A4.21,4.21,0,0,1,34.88,25.89Z"/><path class="cls-1" d="M47.15,20.89l2.36-2.37A18.56,18.56,0,0,0,35.1,11.61,18.35,18.35,0,0,0,21,18.12l2.36,2.35a15.12,15.12,0,0,1,23.76.42Z"/><path class="cls-1" d="M35.43,3.29A26.77,26.77,0,0,1,55.6,12.44l2.33-2.33a30.1,30.1,0,0,0-45,0l2.34,2.33A26.79,26.79,0,0,1,35.43,3.29Z"/><path class="cls-1" d="M10.76,108.19c0,1.44,1.55,2.6,3.46,2.6h3.67c1.92,0,3.47-1.16,3.47-2.6v-6.61H10.76Z"/><path class="cls-1" d="M51.23,108.19c0,1.44,1.55,2.6,3.46,2.6h3.67c1.91,0,3.46-1.16,3.46-2.6v-6.61H51.23Z"/><path class="cls-1" d="M68.52,72H60.18L57,60.83a5.69,5.69,0,0,0-5.58-4.46H18.63a5.65,5.65,0,0,0-5.55,4.37L9.83,72H2.49A2.5,2.5,0,0,0,0,74.47V94.14a2.5,2.5,0,0,0,2.49,2.49h66A2.49,2.49,0,0,0,71,94.14V74.47A2.49,2.49,0,0,0,68.52,72ZM16,61.49a2.7,2.7,0,0,1,2.65-2.12H51.38a2.73,2.73,0,0,1,2.67,2.21l3,10.39H13Zm5.61,25.59a1.26,1.26,0,0,1-1.25,1.26h-8.6a1.26,1.26,0,0,1-1.25-1.26V82.39a1.26,1.26,0,0,1,1.25-1.26h8.6a1.26,1.26,0,0,1,1.25,1.26Zm40.8,0a1.26,1.26,0,0,1-1.25,1.26h-8.6a1.26,1.26,0,0,1-1.25-1.26V82.39a1.26,1.26,0,0,1,1.25-1.26h8.6a1.26,1.26,0,0,1,1.25,1.26Z"/></g></svg>