<svg xmlns="http://www.w3.org/2000/svg" viewBox="0 0 109.12 109.67"><defs><style>.cls-1{fill:#231f20;}</style></defs><g id="Layer_1" data-name="Layer 1"><path class="cls-1" d="M67.77,62.11a38.25,38.25,0,1,0-6.25,6.12l5.66,5.66,6.19-6.19ZM5,38.14A33.14,33.14,0,1,1,38.14,71.27,33.18,33.18,0,0,1,5,38.14Z"/><path class="cls-1" d="M108.83,98.27,79.56,69,68.45,80.11l29.27,29.27a1,1,0,0,0,1.39,0l9.72-9.72A1,1,0,0,0,108.83,98.27Z"/><path class="cls-1" d="M50.81,26.86c-6.12-.28-11.14-2.68-12.6-5.87h-.69c-1.46,3.19-6.47,5.59-12.6,5.87A1.15,1.15,0,0,0,23.81,28V43.08a14,14,0,0,0,14,14h.07a14,14,0,0,0,14-14V28A1.15,1.15,0,0,0,50.81,26.86Z"/></g></svg>