<svg xmlns="http://www.w3.org/2000/svg" viewBox="0 0 111.6 106.54"><defs><style>.cls-1{fill:#231f20;}</style></defs><g id="Layer_1" data-name="Layer 1"><path class="cls-1" d="M29.34,1.09A29.34,29.34,0,0,0,28,59.73V46.12L15.81,33.93a2,2,0,1,1,2.82-2.83L28,40.46V23.12a2,2,0,0,1,4,0V40.6l9.5-9.5a2,2,0,0,1,2.83,2.83L32,46.26V59.64A29.34,29.34,0,0,0,29.34,1.09Z"/><path class="cls-1" d="M88,82.1H111.6l-20-39.22,19.75,5.37L85.8,0h-.15L60.13,48.25l19.75-5.37-20,39.22H84V59.65a2,2,0,0,1,4,0V82.1Z"/><rect class="cls-1" x="83.97" y="87.06" width="4" height="19.48"/><rect class="cls-1" x="28" y="64.75" width="4" height="41.78"/></g></svg>