<svg xmlns="http://www.w3.org/2000/svg" viewBox="0 0 110.59 109.43"><defs><style>.cls-1{fill:#231f20;}</style></defs><g id="Layer_1" data-name="Layer 1"><path class="cls-1" d="M56.09,78l-3-3a30,30,0,1,0-4.64,4.55l3,3ZM5,56A25,25,0,1,1,30,81,25,25,0,0,1,5,56Z"/><rect class="cls-1" x="61.86" y="78.46" width="11.66" height="31.45" transform="translate(-46.77 75.45) rotate(-45)"/><path class="cls-1" d="M44.69,55.78,23.32,44.34a.79.79,0,0,0-1.16.69V67.91a.79.79,0,0,0,1.16.69L44.69,57.16A.78.78,0,0,0,44.69,55.78Z"/><path class="cls-1" d="M105.45,29.85a19.63,19.63,0,0,0,0-8.45l.21-.13,4.93-5.09L106.7,9.44l-6.87,1.72-.22.13a19.49,19.49,0,0,0-7.21-4.2V6.81L90.35,0H82.56l-2,6.81v.28a19.49,19.49,0,0,0-7.21,4.2l-.22-.13L66.21,9.44l-3.89,6.74,4.92,5.09.22.13a19.63,19.63,0,0,0,0,8.45l-.22.12-4.92,5.09,3.89,6.74,6.87-1.72L73.3,40a19.46,19.46,0,0,0,7.21,4.19v.28l2,6.81h7.79l2.05-6.81v-.28A19.46,19.46,0,0,0,99.61,40l.22.12,6.87,1.72,3.89-6.74L105.66,30Zm-19.11,6A10.14,10.14,0,1,1,96.47,25.74,10.13,10.13,0,0,1,86.34,35.87Z"/></g></svg>