<svg data-name="Layer 2" xmlns="http://www.w3.org/2000/svg" viewBox="0 0 238.2 293.54"><path d="m226.85 151.31-6-10.84a30.06 30.06 0 0 1-2.52-22.82 50.73 50.73 0 0 0 1.92-18.55 107.81 107.81 0 0 0-214.52-3l21 7.56a86.27 86.27 0 0 1 172.1-2.72 29.13 29.13 0 0 1-1.12 10.68 51.69 51.69 0 0 0 4.29 39.26l.23.41h-90.12L1.53 111.37v23.83l110.08 39.74L125 218.45H43.54v23.34h88.58l2.72 8.85.85 2.79H145l7.18 16.24H55.36l6.07-10.29H33.72l-9 15.26a12.54 12.54 0 0 0 10.8 18.9h134.11a12.54 12.54 0 0 0 11.46-17.6l-10-22.51h35.31A30.44 30.44 0 0 0 236.81 223v-61.32a10.4 10.4 0 0 0-9.96-10.37Z"/><path d="m62.74 179.69-6.33-8.13-42.21-15.32 29.72 38.13a16.57 16.57 0 0 1 3.29 7.74h24a40.32 40.32 0 0 0-8.47-22.42Z"/></svg>