<svg xmlns="http://www.w3.org/2000/svg" viewBox="0 0 249.26 301.64"><g data-name="Layer 1"><path d="m176.82 82.35-20.51-20.51-20.51-20.52a17.24 17.24 0 0 0-24.36 0L90.93 61.84 70.42 82.35a17.2 17.2 0 0 0 0 24.35l20.51 20.51 20.51 20.52a17.24 17.24 0 0 0 24.36 0l20.51-20.52 20.51-20.51a17.23 17.23 0 0 0 0-24.35ZM182.68 194.9h-28.14l-10.46 10.46-10.47 10.47a14 14 0 0 1-19.82 0l-10.47-10.47-10.47-10.46h-26a65.93 65.93 0 0 0-65.77 65.75v39.28h247.35v-39.28a65.93 65.93 0 0 0-65.75-65.75ZM209.11 159.95H166.4v22.29h65v-65h-22.29v42.71zM41.09 159.96v-42.72H18.8v65h65v-22.28H41.09z"/><g><path d="M41.09 23.22H83.8V.93h-65v65h22.29V23.22zM209.11 23.22v42.71h22.29v-65h-65v22.29h42.71z"/></g></g></svg>