<svg xmlns="http://www.w3.org/2000/svg" viewBox="0 0 314.64 316.74"><g data-name="Layer 1"><path d="M76.51-.04h-2.2V45.2H96.34V21.98h23.21V-.04H76.51zM292.73 173.56v2.2H314.76V65.23H292.73v108.33zM141.46-.61h-2.2v22.02h110.52V-.61H141.46zM94.14 65.23H74.31v110.53l22.03-9V65.23h-2.2zM312.54-.04H269.5v22.02h23.21V45.2H314.74V-.04h-2.2zM312.54 240.22h2.2V194.99H292.71v23.21H269.5v22.02H312.54zM248.34 218.2H145.02l-5 22.02H250.54V218.2h-2.2zM148.63 160.07l.08-.24-.3.34L.8 229.37l77.43 8.83.15.13 16.96 76.06 53.21-154.09.31-.34-.23.11z"/></g></svg>