<svg xmlns="http://www.w3.org/2000/svg" viewBox="0 0 118.11 89.78"><defs><style>.cls-1{fill:#231f20;}</style></defs><g id="Layer_1" data-name="Layer 1"><path class="cls-1" d="M8.34,87.77c0,1.11,1.2,2,2.68,2h2.85c1.48,0,2.68-.9,2.68-2V82.64H8.34Z"/><path class="cls-1" d="M39.7,87.77c0,1.11,1.2,2,2.68,2h2.85c1.48,0,2.68-.9,2.68-2V82.64H39.7Z"/><path class="cls-1" d="M53.1,59.7H47v0L44.47,51a4.74,4.74,0,0,0-4.65-3.72H14.44A4.71,4.71,0,0,0,9.81,50.9L7.27,59.68v0H1.93A1.93,1.93,0,0,0,0,61.63V76.87a1.93,1.93,0,0,0,1.93,1.94H53.1A1.93,1.93,0,0,0,55,76.87V61.63A1.93,1.93,0,0,0,53.1,59.7ZM12.71,51.65a1.77,1.77,0,0,1,1.73-1.38H39.82a1.78,1.78,0,0,1,1.74,1.47l2.31,8H10.39Zm4,19.76a1,1,0,0,1-1,1H9.1a1,1,0,0,1-1-1V67.77a1,1,0,0,1,1-1h6.66a1,1,0,0,1,1,1Zm31.62,0a1,1,0,0,1-1,1H40.71a1,1,0,0,1-1-1V67.77a1,1,0,0,1,1-1h6.67a1,1,0,0,1,1,1Z"/><path class="cls-1" d="M71.48,87.77c0,1.11,1.2,2,2.68,2H77c1.48,0,2.68-.9,2.68-2V82.64H71.48Z"/><path class="cls-1" d="M102.84,87.77c0,1.11,1.2,2,2.68,2h2.85c1.48,0,2.68-.9,2.68-2V82.64h-8.21Z"/><path class="cls-1" d="M116.17,29H65a1.92,1.92,0,0,0-1.93,1.93v46A1.93,1.93,0,0,0,65,78.81h51.16a1.94,1.94,0,0,0,1.94-1.94v-46A1.93,1.93,0,0,0,116.17,29ZM85.55,33.83H95.63v3H85.55ZM69.64,58.35V42.87a2.21,2.21,0,0,1,2.21-2.21h37.48a2.21,2.21,0,0,1,2.21,2.21V58.35a2.21,2.21,0,0,1-2.21,2.21H71.85A2.21,2.21,0,0,1,69.64,58.35ZM79,71.41a1,1,0,0,1-1,1H71.32a1,1,0,0,1-1-1V67.77a1,1,0,0,1,1-1H78a1,1,0,0,1,1,1Zm33.32,0a1,1,0,0,1-1,1h-6.67a1,1,0,0,1-1-1V67.77a1,1,0,0,1,1-1h6.67a1,1,0,0,1,1,1Z"/><path class="cls-1" d="M20.17,28.48,26.34,38.7l6.19-10.22h0a7,7,0,1,0-12.33,0Z"/><path class="cls-1" d="M85.06,10.24l6.17,10.22,6.19-10.22h0A7,7,0,1,0,84.25,7a6.88,6.88,0,0,0,.81,3.26Z"/></g></svg>