<svg data-name="Layer 2" xmlns="http://www.w3.org/2000/svg" viewBox="0 0 349.9 313.1"><path d="m302.45 88.36-28.39-74.85C271.33 6.67 263.35 1.12 256 1.12H94.15c-7.37 0-15.35 5.55-18.08 12.39L47.68 88.36 3.41 147.88a15 15 0 0 0-3 8.92v109.34a12.74 12.74 0 0 0 12.7 12.7h34.96a12.73 12.73 0 0 0 12.7-12.7V234.4h228.58v31.74a12.74 12.74 0 0 0 12.7 12.7H337a12.73 12.73 0 0 0 12.69-12.7V156.8a14.94 14.94 0 0 0-2.95-8.92ZM94.68 26.52h160.76l21.89 61.84H72.8ZM78.55 190h-52.7v-31.8h52.7Zm245.73 0h-52.7v-31.8h52.7Z"/><circle cx="176.38" cy="194.13" r="78.71" fill="#fff"/><path d="M185.07 125.66a68.19 68.19 0 1 0 59.34 67.45 68.1 68.1 0 0 0-59.34-67.45Z" fill="none"/><path d="M237.65 253.69a85.78 85.78 0 0 0 24.21-49.62q.56-4.35.67-8.64a86.14 86.14 0 0 0-170-21.8q-1 4.19-1.53 8.53a86.12 86.12 0 0 0 128.74 85.4l35.19 45.54 17.94-13.86Zm-69.88 6.88a67.85 67.85 0 1 1 76.11-58.81 68.09 68.09 0 0 1-76.11 58.81Z"/></svg>