<svg xmlns="http://www.w3.org/2000/svg" viewBox="0 0 105.65 109.34">
    <g id="Layer_1" data-name="Layer 1">
        <polygon class="cls-1" points="18.32 64.91 34.29 76.37 34.3 66.96 83.24 66.96 83.24 62.96 34.3 62.96 34.3 53.55 18.32 64.91" />
        <polygon class="cls-1" points="70.71 33.54 70.71 42.94 21.77 42.94 21.77 46.94 70.71 46.94 70.7 56.35 86.68 45 70.71 33.54" />
        <path class="cls-1" d="M4,66.75H0v40.59a2,2,0,0,0,2,2H42.59v-4H4Z" />
        <path class="cls-1" d="M4,4H42.59V0H2A2,2,0,0,0,0,2V42.59H4Z" />
        <path class="cls-1" d="M103.65,0H63.06V4h38.59V42.59h4V2A2,2,0,0,0,103.65,0Z" />
        <path class="cls-1" d="M101.65,105.34H63.06v4h40.59a2,2,0,0,0,2-2V66.75h-4Z" />
    </g>
</svg>
