<svg xmlns="http://www.w3.org/2000/svg" viewBox="0 0 106.18 102.79"><defs><style>.cls-1{fill:#231f20;}</style></defs><g id="Layer_1" data-name="Layer 1"><circle class="cls-1" cx="24.91" cy="56.97" r="9.17"/><path class="cls-1" d="M63.4,18.44A33.47,33.47,0,1,0,6.32,53a1.69,1.69,0,0,0,3-1.24A46.49,46.49,0,0,1,8.88,47c-.47-9.26,1.74-18.14,6.22-25,4.7-7.18,11.31-11.34,18.61-11.71,14.67-.72,27.42,14.53,28.4,34,.63,12.38-3.71,24.23-11.33,31a3.3,3.3,0,0,1-4.24.22,3.23,3.23,0,0,1-.13-5c6.24-5.45,9.78-15.37,9.25-25.89-.78-15.6-10.09-27.93-20.9-27.93l-.72,0c-5.19.26-10,3.39-13.53,8.79a32.72,32.72,0,0,0-4.75,12.86,33.25,33.25,0,0,1,1.69-2.9c4.69-7.18,11.3-11.34,18.61-11.71a3.21,3.21,0,0,1,3.39,3.31,3.34,3.34,0,0,1-3.21,3.15c-5.14.31-9.88,3.43-13.38,8.78-.16.24-.32.49-.47.74a1.75,1.75,0,0,0,1.7,2.64,14.78,14.78,0,0,1,4.28,29.23,11.4,11.4,0,0,1-1.75.17L25,71.86a15.48,15.48,0,0,0-14.82,15.3,15.8,15.8,0,0,0,10,14.54,14.41,14.41,0,0,0,9.08.65,16.08,16.08,0,0,0,3-1A59.07,59.07,0,0,0,70.27,46.12a58.73,58.73,0,0,0-6.7-27.33Z"/><path class="cls-1" d="M103.3,51a3.84,3.84,0,0,1,2.88-3.72L103.9,45a6.82,6.82,0,0,0-.67,11.61l2.18-2.18A3.82,3.82,0,0,1,103.3,51Z"/><path class="cls-1" d="M98.74,39.86l-2.15-2.15A16.88,16.88,0,0,0,90.3,50.84a16.7,16.7,0,0,0,5.92,12.81l2.14-2.15A13.73,13.73,0,0,1,93.3,50.84,13.88,13.88,0,0,1,98.74,39.86Z"/><path class="cls-1" d="M82.72,50.54a24.37,24.37,0,0,1,8.33-18.37l-2.13-2.12a27.41,27.41,0,0,0,0,40.94L91,68.86A24.34,24.34,0,0,1,82.72,50.54Z"/></g></svg>