<svg xmlns="http://www.w3.org/2000/svg" viewBox="0 0 110.75 44.67"><defs><style>.cls-1{fill:#231f20;}</style></defs><g id="Layer_1" data-name="Layer 1"><path class="cls-1" d="M42.21,24.26c0-.84-.61-1.27-1.82-1.27H39.06v2.66h1.4a2.13,2.13,0,0,0,1.32-.34A1.29,1.29,0,0,0,42.21,24.26Z"/><path class="cls-1" d="M41.58,21a1,1,0,0,0,.4-.9.91.91,0,0,0-.43-.84A2.77,2.77,0,0,0,40.19,19H39.06v2.27h1.25A2.28,2.28,0,0,0,41.58,21Z"/><path class="cls-1" d="M30.88,19.47c-.09-.29-.15-.52-.19-.69-.15.6-.59,2.07-1.31,4.42H32C31.35,21,31,19.76,30.88,19.47Z"/><path class="cls-1" d="M11.73,35.23H99V9.44H11.73ZM77.31,23.82l4.46-6.58h2v6.41H85v1.67H83.76v2.11H81.65V25.32H77.31Zm-7.85,1.37a6.88,6.88,0,0,0,1.3.49,5.68,5.68,0,0,0,1.41.18,2.74,2.74,0,0,0,1.57-.36,1.32,1.32,0,0,0,.51-1.16,1,1,0,0,0-.58-1A4.35,4.35,0,0,0,71.8,23H71V21.37h.78a3.67,3.67,0,0,0,1.74-.31A1.12,1.12,0,0,0,74.09,20c0-.77-.48-1.16-1.45-1.16a3.4,3.4,0,0,0-1,.17,4.76,4.76,0,0,0-1.15.58l-1-1.49a5.54,5.54,0,0,1,3.33-1,4.25,4.25,0,0,1,2.49.64,2,2,0,0,1,.92,1.78,2.39,2.39,0,0,1-.58,1.63,3,3,0,0,1-1.62.92v0a3.25,3.25,0,0,1,1.87.75,2.09,2.09,0,0,1,.63,1.6,2.7,2.7,0,0,1-1.07,2.29,4.87,4.87,0,0,1-3,.82A7.31,7.31,0,0,1,69.46,27ZM58.85,17.65a4.65,4.65,0,0,1,1.08-.41,5.32,5.32,0,0,1,1.31-.14,3.78,3.78,0,0,1,1.69.35,2.68,2.68,0,0,1,1.13,1,2.61,2.61,0,0,1,.41,1.44,3.6,3.6,0,0,1-.25,1.32,5.09,5.09,0,0,1-.77,1.26,17.64,17.64,0,0,1-1.83,1.85l-1.31,1.23v.1h4.44v1.81H57.63v-1.5l2.56-2.58c.75-.78,1.25-1.31,1.48-1.61a3.49,3.49,0,0,0,.5-.84,2,2,0,0,0,.16-.79A1.17,1.17,0,0,0,62,19.2a1.32,1.32,0,0,0-.9-.3,2.59,2.59,0,0,0-1.15.27,6,6,0,0,0-1.17.77L57.6,18.55A7.51,7.51,0,0,1,58.85,17.65ZM53,17.24h1.77V27.43H52.65V21.54l0-1,0-1.06a10.12,10.12,0,0,1-.75.7l-1.17.94-1-1.29Zm-16.14,0h3.17a6.1,6.1,0,0,1,3.14.62,2.14,2.14,0,0,1,1,2,2.45,2.45,0,0,1-.43,1.5,1.65,1.65,0,0,1-1.14.7v.07a2.27,2.27,0,0,1,1.4.81,2.62,2.62,0,0,1,.43,1.58,2.59,2.59,0,0,1-1,2.17,4.34,4.34,0,0,1-2.73.78H36.9Zm-7.54,0H32l3.61,10.23H33.28L32.55,25H28.83l-.74,2.42H25.76Z"/><path class="cls-1" d="M81.65,21.92c0-.29,0-.71,0-1.25a9.38,9.38,0,0,1,.06-1h-.06a8.28,8.28,0,0,1-.62,1.12L79.2,23.65h2.45Z"/><polygon class="cls-1" points="94.16 0 94.16 3 107.75 3 107.75 16.59 110.75 16.59 110.75 0 94.16 0"/><polygon class="cls-1" points="3 3 16.59 3 16.59 0 0 0 0 16.59 3 16.59 3 3"/><polygon class="cls-1" points="3 28.08 0 28.08 0 44.67 16.59 44.67 16.59 41.67 3 41.67 3 28.08"/><polygon class="cls-1" points="107.75 41.67 94.16 41.67 94.16 44.67 110.75 44.67 110.75 28.08 107.75 28.08 107.75 41.67"/></g></svg>