<svg xmlns="http://www.w3.org/2000/svg" viewBox="0 0 109.09 109.04"><defs><style>.cls-1{fill:#231f20;}</style></defs><g id="Layer_1" data-name="Layer 1"><path class="cls-1" d="M84.28,72.43a9.15,9.15,0,0,1-7.88-2.37l-4.66-4.29a20.4,20.4,0,0,0-1.83-21.22L78,35a6.81,6.81,0,0,1,5.33-2.46A11.93,11.93,0,0,0,91,30.11,12.07,12.07,0,0,0,76.44,10.85a12,12,0,0,0-4.38,12.89,7.25,7.25,0,0,1-1.35,6.7l-7.19,8.42A20.42,20.42,0,0,0,36.9,44.51l-6.13-1.94a8.15,8.15,0,0,1-5.2-5.32A13,13,0,0,0,21.09,31,13.12,13.12,0,1,0,20.8,52a7.82,7.82,0,0,1,6.62-1.31l5.93,1.63a20.23,20.23,0,0,0,2.52,14.92L33,69.6a9.67,9.67,0,0,1-8.25,1.81,13.42,13.42,0,0,0-12.43,3.64c-4,3.93-4.9,11.46-2.07,16.26a13.43,13.43,0,0,0,25-7.49A9.44,9.44,0,0,1,38.73,76l3-2.44a20.49,20.49,0,0,0,24.68-1l4.12,3.79a9.42,9.42,0,0,1,2.89,8A13.55,13.55,0,0,0,95.5,96.18,13.54,13.54,0,0,0,84.28,72.43Z"/><circle class="cls-1" cx="43.03" cy="19.28" r="4.81"/><circle class="cls-1" cx="5.76" cy="4.81" r="4.81"/><path class="cls-1" d="M51.91,96.43a6.31,6.31,0,0,0-4.15,10.89A6.28,6.28,0,0,0,52.09,109h.18a6.32,6.32,0,0,0,6.13-6.48h0A6.33,6.33,0,0,0,51.91,96.43Zm.27,9.61a3.25,3.25,0,0,1-2.36-.9,3.33,3.33,0,0,1-1-2.31,3.3,3.3,0,0,1,.91-2.37,3.26,3.26,0,0,1,2.31-1h.09a3.31,3.31,0,0,1,.09,6.62Z"/><path class="cls-1" d="M98.69,41.8A10.12,10.12,0,0,0,99,62h.29a10.12,10.12,0,0,0-.57-20.23ZM99.17,59a7.12,7.12,0,0,1-.4-14.23H99A7.12,7.12,0,0,1,99.17,59Z"/></g></svg>