<svg xmlns="http://www.w3.org/2000/svg" viewBox="0 0 107.35 109.33"><defs><style>.cls-1{fill:#231f20;}</style></defs><g id="Layer_1" data-name="Layer 1"><path class="cls-1" d="M9.8,107c0,1.31,1.41,2.37,3.15,2.37H16.3c1.74,0,3.15-1.06,3.15-2.37v-6H9.8Z"/><path class="cls-1" d="M46.65,107c0,1.31,1.41,2.37,3.15,2.37h3.35c1.74,0,3.15-1.06,3.15-2.37v-6H46.65Z"/><path class="cls-1" d="M62.4,74H55L52,63.8a5.31,5.31,0,0,0-5.21-4.17H17a5.29,5.29,0,0,0-5.19,4.08L8.81,74H2.27A2.27,2.27,0,0,0,0,76.25V94.16a2.27,2.27,0,0,0,2.27,2.27H62.4a2.27,2.27,0,0,0,2.27-2.27V76.25A2.27,2.27,0,0,0,62.4,74ZM14.69,64.46A2.31,2.31,0,0,1,17,62.63H46.79a2.37,2.37,0,0,1,2.31,1.92L51.83,74H11.93Zm5,23.28a1.14,1.14,0,0,1-1.14,1.14H10.69a1.14,1.14,0,0,1-1.14-1.14V83.46a1.14,1.14,0,0,1,1.14-1.14h7.83a1.14,1.14,0,0,1,1.14,1.14Zm37.16,0a1.14,1.14,0,0,1-1.14,1.14H47.85a1.14,1.14,0,0,1-1.14-1.14V83.46a1.14,1.14,0,0,1,1.14-1.14h7.83a1.14,1.14,0,0,1,1.14,1.14Z"/><path class="cls-1" d="M84.18,34H81.73v7.55H83.5a5.91,5.91,0,0,0,3.73-1,3.44,3.44,0,0,0,1.23-2.86,3.51,3.51,0,0,0-1-2.8A4.82,4.82,0,0,0,84.18,34Z"/><path class="cls-1" d="M106.31,20.05H63.93a1,1,0,0,0-1,1V63.47a1,1,0,0,0,1,1h42.38a1,1,0,0,0,1-1V21.09A1,1,0,0,0,106.31,20.05Zm-15,23.73Q88.78,46,84,46H82.21a.48.48,0,0,0-.48.48v8.09a.48.48,0,0,1-.48.48H76.81a.48.48,0,0,1-.48-.48V30a.49.49,0,0,1,.48-.48h7.65c3.09,0,5.43.67,7,2a7.26,7.26,0,0,1,2.41,5.95A7.79,7.79,0,0,1,91.34,43.78Z"/><rect class="cls-1" x="83.62" y="68.99" width="3" height="40.34"/><path class="cls-1" d="M79,12.93l2.17,2.18a3.85,3.85,0,0,1,7.16.78l2.28-2.28A6.81,6.81,0,0,0,79,12.93Z"/><path class="cls-1" d="M84.8,3a13.92,13.92,0,0,1,11,5.44l2.15-2.15A16.91,16.91,0,0,0,84.8,0,16.71,16.71,0,0,0,72,5.93l2.14,2.14A13.73,13.73,0,0,1,84.8,3Z"/></g></svg>