<svg xmlns="http://www.w3.org/2000/svg" viewBox="0 0 110.09 110.56"><defs><style>.cls-1{fill:#231f20;}</style></defs><g id="Layer_1" data-name="Layer 1"><path class="cls-1" d="M19.58,64.9a4.76,4.76,0,1,0-4.75-4.75A4.76,4.76,0,0,0,19.58,64.9Z"/><path class="cls-1" d="M18,87.25a.68.68,0,0,1-.12-.48l1.92-18.28a.74.74,0,0,0-.74-.82H13.34a.76.76,0,0,0-.43.14L2.17,75.56a.74.74,0,0,0-.31.53L.9,86.3a2.25,2.25,0,0,0,1.79,2.47A2.17,2.17,0,0,0,5.18,87l1.07-7.28a.71.71,0,0,1,.25-.46L10.25,76a.74.74,0,0,1,1.21.7L9.72,86.37a.69.69,0,0,0,.1.52L24.31,109A3.4,3.4,0,0,0,29,110l0,0a3.15,3.15,0,0,0,1-4.39Z"/><path class="cls-1" d="M34.32,82l-8.77-4.79-3.73-8.94-1,9.65,2.07,3.63a2.51,2.51,0,0,0,1.24,1.08l8.35,3.3A2.17,2.17,0,0,0,34.32,82Z"/><path class="cls-1" d="M6.1,97.65A6.84,6.84,0,0,1,4.83,100l-4.09,4.9a3.18,3.18,0,0,0,4.78,4.2l5.52-6a6.68,6.68,0,0,0,1.48-2.55l1.21-3.86L8.73,89Z"/><circle class="cls-1" cx="56.9" cy="60.15" r="4.75"/><path class="cls-1" d="M55.34,87.25a.73.73,0,0,1-.11-.48l1.92-18.28a.74.74,0,0,0-.74-.82H50.66a.74.74,0,0,0-.43.14L39.49,75.56a.74.74,0,0,0-.31.53l-1,10.21A2.24,2.24,0,0,0,40,88.77,2.17,2.17,0,0,0,42.5,87l1.07-7.28a.71.71,0,0,1,.25-.46L47.57,76a.74.74,0,0,1,1.21.7L47,86.37a.74.74,0,0,0,.11.52L61.63,109a3.4,3.4,0,0,0,4.64,1l0,0a3.16,3.16,0,0,0,1-4.39Z"/><path class="cls-1" d="M71.64,82l-8.77-4.79-3.73-8.94-1,9.65,2.07,3.63a2.47,2.47,0,0,0,1.24,1.08l8.35,3.3A2.17,2.17,0,0,0,71.64,82Z"/><path class="cls-1" d="M43.42,97.65A7,7,0,0,1,42.15,100l-4.09,4.9a3.18,3.18,0,0,0,4.78,4.2l5.52-6a6.68,6.68,0,0,0,1.48-2.55l1.21-3.86-5-7.67Z"/><path class="cls-1" d="M94.22,64.9a4.76,4.76,0,1,0-4.76-4.75A4.75,4.75,0,0,0,94.22,64.9Z"/><path class="cls-1" d="M92.66,87.25a.73.73,0,0,1-.11-.48l1.92-18.28a.74.74,0,0,0-.74-.82H88a.71.71,0,0,0-.43.14L76.8,75.56a.76.76,0,0,0-.3.53l-1,10.21a2.24,2.24,0,0,0,1.79,2.47A2.17,2.17,0,0,0,79.82,87l1.06-7.28a.77.77,0,0,1,.26-.46L84.88,76a.75.75,0,0,1,1.22.7l-1.75,9.65a.74.74,0,0,0,.1.52L99,109a3.4,3.4,0,0,0,4.64,1l0,0a3.16,3.16,0,0,0,1-4.39Z"/><path class="cls-1" d="M109,82l-8.77-4.79-3.74-8.94-1,9.65,2.07,3.63a2.47,2.47,0,0,0,1.24,1.08l8.35,3.3A2.17,2.17,0,0,0,109,82Z"/><path class="cls-1" d="M80.73,97.65A6.82,6.82,0,0,1,79.47,100l-4.09,4.9a3.18,3.18,0,0,0,4.78,4.2l5.52-6a6.68,6.68,0,0,0,1.48-2.55l1.2-3.86-5-7.67Z"/><path class="cls-1" d="M17.93,41.65c.11-.09.3-.27.59-.55l0,.83,0,.77v4.65h1.7v-8H18.78l-2.6,2.06.82,1Z"/><path class="cls-1" d="M56.09,40.83a2,2,0,0,1,.91-.22,1,1,0,0,1,.71.24.91.91,0,0,1,.27.72,1.72,1.72,0,0,1-.12.63,2.79,2.79,0,0,1-.4.65,15.65,15.65,0,0,1-1.17,1.28l-2,2v1.18h5.62V45.92h-3.5v-.07l1-1a15.79,15.79,0,0,0,1.45-1.46,4,4,0,0,0,.6-1,2.75,2.75,0,0,0,.2-1,2,2,0,0,0-1.22-1.9,3,3,0,0,0-1.33-.28,4.74,4.74,0,0,0-1,.11,4,4,0,0,0-.85.33,5.61,5.61,0,0,0-1,.71l.92,1.1A4.42,4.42,0,0,1,56.09,40.83Z"/><path class="cls-1" d="M97.05,46.82A2.16,2.16,0,0,0,97.89,45a1.64,1.64,0,0,0-.5-1.27,2.55,2.55,0,0,0-1.47-.59v0a2.41,2.41,0,0,0,1.28-.73,1.91,1.91,0,0,0,.46-1.28,1.62,1.62,0,0,0-.73-1.41,3.36,3.36,0,0,0-2-.51,4.45,4.45,0,0,0-2.63.79l.79,1.18A4.09,4.09,0,0,1,94,40.7a2.59,2.59,0,0,1,.81-.13c.76,0,1.14.3,1.14.91a.87.87,0,0,1-.43.84,2.92,2.92,0,0,1-1.37.25h-.62v1.3h.61a3.39,3.39,0,0,1,1.48.24.81.81,0,0,1,.46.8,1,1,0,0,1-.4.92,2.17,2.17,0,0,1-1.25.29A4.35,4.35,0,0,1,93.35,46a5.49,5.49,0,0,1-1-.39V47a5.87,5.87,0,0,0,2.33.43A3.87,3.87,0,0,0,97.05,46.82Z"/><path class="cls-1" d="M56.45,4a3.76,3.76,0,0,1-3.63-2.8L50.61,3.37A6.63,6.63,0,0,0,61.9,4L59.79,1.91A3.74,3.74,0,0,1,56.45,4Z"/><path class="cls-1" d="M56.26,16.6a16.26,16.26,0,0,0,12.46-5.76L66.63,8.75a13.31,13.31,0,0,1-10.37,4.94,13.47,13.47,0,0,1-10.67-5.3l-2.1,2.09A16.45,16.45,0,0,0,56.26,16.6Z"/><path class="cls-1" d="M75.86,18l-2.07-2.07A23.69,23.69,0,0,1,56,24a23.74,23.74,0,0,1-17.87-8.1L36,17.94a26.64,26.64,0,0,0,19.93,9A26.62,26.62,0,0,0,75.86,18Z"/></g></svg>