<svg xmlns="http://www.w3.org/2000/svg" viewBox="0 0 108.69 96.8"><defs><style>.cls-1{fill:#231f20;}</style></defs><g id="Layer_1" data-name="Layer 1"><polygon class="cls-1" points="3.54 77.11 3.52 77.08 3.49 77.11 3.54 77.11"/><path class="cls-1" d="M89.24,21.42V45.18h19.45V21.42ZM96,42H94.92a1.15,1.15,0,0,1,0-2.3H96A1.15,1.15,0,0,1,96,42ZM96,27.3H94.92a1.15,1.15,0,0,1,0-2.3H96a1.15,1.15,0,0,1,0,2.3ZM102.29,42h-1.08a1.15,1.15,0,1,1,0-2.3h1.08a1.15,1.15,0,0,1,0,2.3Zm0-14.73h-1.08a1.15,1.15,0,1,1,0-2.3h1.08a1.15,1.15,0,0,1,0,2.3Z"/><path class="cls-1" d="M61.25,56.34a34.47,34.47,0,0,0,6.11-11.16H85.71V21.42H66.45A34.55,34.55,0,1,0,55.84,61.65l3.82,3.82L65,60.11ZM78.23,25h1.08a1.15,1.15,0,0,1,0,2.3H78.23a1.15,1.15,0,0,1,0-2.3Zm0,14.73h1.08a1.15,1.15,0,1,1,0,2.3H78.23a1.15,1.15,0,0,1,0-2.3ZM72,25H73a1.15,1.15,0,1,1,0,2.3H72A1.15,1.15,0,0,1,72,25Zm0,14.73H73A1.15,1.15,0,0,1,73,42H72a1.15,1.15,0,0,1,0-2.3ZM5,34.52A29.52,29.52,0,1,1,34.52,64.05,29.55,29.55,0,0,1,5,34.52Z"/><rect class="cls-1" x="71.74" y="60.67" width="13.6" height="36.69" transform="translate(-32.87 78.68) rotate(-45)"/><path class="cls-1" d="M45.14,10.73h-22a26.15,26.15,0,0,0-1.66,46.65H46.8a26.15,26.15,0,0,0-1.66-46.65Zm-20,4h2.51a2.65,2.65,0,0,1,2.63,2.44,1.46,1.46,0,0,1,0,.22A2.66,2.66,0,0,1,27.66,20H25.15a2.66,2.66,0,0,1-2.65-2.65A2.66,2.66,0,0,1,25.15,14.7Zm2.51,39.41H25.15a2.66,2.66,0,0,1-2.65-2.66,2.68,2.68,0,0,1,2.65-2.66h2.51a2.67,2.67,0,0,1,2.66,2.66c0,.06,0,.11,0,.17A2.66,2.66,0,0,1,27.66,54.11Zm14.54,0H39.7A2.67,2.67,0,0,1,37,51.45v0a2.67,2.67,0,0,1,2.66-2.64h2.5a2.68,2.68,0,0,1,2,.9,2.64,2.64,0,0,1,.68,1.76A2.67,2.67,0,0,1,42.2,54.11Zm1.94-34.95A2.63,2.63,0,0,1,42.2,20H39.7A2.66,2.66,0,0,1,37,17.36h0A2.67,2.67,0,0,1,39.7,14.7h2.5a2.65,2.65,0,0,1,1.94,4.46Z"/></g></svg>