<svg xmlns="http://www.w3.org/2000/svg" viewBox="0 0 110.09 110.83"><defs><style>.cls-1{fill:#231f20;}</style></defs><g id="Layer_1" data-name="Layer 1"><path class="cls-1" d="M64.34,30.44v70.19h45.75V30.44Zm37.24,52.11H74.05V79.63h27.53Zm0-8.78H74.05V70.85h27.53Zm0-10H74.05V60.88h27.53Z"/><rect class="cls-1" x="69.66" y="104.61" width="35.9" height="5.69"/><circle class="cls-1" cx="26.14" cy="43.54" r="6.35"/><path class="cls-1" d="M24.06,79.73a1,1,0,0,1-.15-.65l2.57-24.4a1,1,0,0,0-1-1.09H17.81a1,1,0,0,0-.58.18L2.89,64.12a1,1,0,0,0-.4.71L1.2,78.45a3,3,0,0,0,2.4,3.3,2.88,2.88,0,0,0,3.31-2.43L8.34,69.6A1,1,0,0,1,8.68,69l5-4.26a1,1,0,0,1,1.62.94L13,78.55a1,1,0,0,0,.13.69l19.35,29.54a4.54,4.54,0,0,0,6.19,1.37l.06,0a4.21,4.21,0,0,0,1.3-5.86Z"/><path class="cls-1" d="M45.81,72.65l-11.7-6.39-5-11.94L27.79,67.21l2.77,4.84a3.32,3.32,0,0,0,1.65,1.44L43.36,77.9a2.9,2.9,0,0,0,2.45-5.25Z"/><path class="cls-1" d="M8.14,93.6a9,9,0,0,1-1.69,3.12L1,103.27a4.25,4.25,0,0,0,6.38,5.6l7.37-8a8.92,8.92,0,0,0,2-3.41l1.62-5.16L11.66,82.1Z"/><path class="cls-1" d="M81.37,23.51l2.17,2.18a3.85,3.85,0,0,1,7.16.77L93,24.18a6.82,6.82,0,0,0-11.61-.67Z"/><path class="cls-1" d="M98.15,19l2.15-2.15a16.91,16.91,0,0,0-13.13-6.29A16.69,16.69,0,0,0,74.36,16.5l2.14,2.15a13.73,13.73,0,0,1,10.67-5.07A13.89,13.89,0,0,1,98.15,19Z"/><path class="cls-1" d="M87.47,3a24.38,24.38,0,0,1,18.37,8.33L108,9.21A27.4,27.4,0,0,0,67,9.16l2.13,2.13A24.36,24.36,0,0,1,87.47,3Z"/></g></svg>