<svg xmlns="http://www.w3.org/2000/svg" viewBox="0 0 107.8 109.99"><defs><style>.cls-1{fill:#231f20;}</style></defs><g id="Layer_1" data-name="Layer 1"><path class="cls-1" d="M95.6,11.29H73a1.47,1.47,0,0,0-1.5,1.43V64.25H97.11V12.72A1.47,1.47,0,0,0,95.6,11.29ZM79,49.35H76V40.59h3Zm6.78,0h-3V40.59h3Zm6.78,0h-3V40.59h3ZM84.28,34.76a8.85,8.85,0,1,1,8.85-8.85A8.85,8.85,0,0,1,84.28,34.76Z"/><path class="cls-1" d="M103.1,0H65.46a4.69,4.69,0,0,0-4.7,4.7V59.55a4.69,4.69,0,0,0,4.7,4.7h3V12.72A4.47,4.47,0,0,1,73,8.29H95.6a4.48,4.48,0,0,1,4.51,4.43V64.25h3a4.69,4.69,0,0,0,4.7-4.7V4.7A4.69,4.69,0,0,0,103.1,0Z"/><path class="cls-1" d="M34.54,25.26V25.2H6.8v0A7.5,7.5,0,0,0,0,32.7V62.8a3.75,3.75,0,0,0,7.5,0V38.64H9.42v66.29a5.06,5.06,0,0,0,10.12,0V65.6h2.09v39.33a5.06,5.06,0,1,0,10.12,0V38.64h1.92V62.8a3.75,3.75,0,0,0,7.5,0V32.7A7.5,7.5,0,0,0,34.54,25.26ZM24.72,41.34a4.12,4.12,0,0,1-4.12,4.13h0a4.13,4.13,0,0,1-4.13-4.13V36.9a.32.32,0,0,1,.32-.33c1.81-.09,3.28-.79,3.71-1.73h.21c.43.94,1.9,1.64,3.71,1.73a.32.32,0,0,1,.32.33Z"/><path class="cls-1" d="M14,9.87a8.31,8.31,0,0,0-1.52,4.81,8.4,8.4,0,0,0,16.8,0,8.31,8.31,0,0,0-1.52-4.81Z"/><path class="cls-1" d="M13,8.54H28.16a5.34,5.34,0,0,0,2.57-3.7A.81.81,0,0,0,30.24,4L20.56.07,10.93,4a.81.81,0,0,0-.49.88A5.34,5.34,0,0,0,13,8.54ZM18.84,3A.13.13,0,0,1,19,2.89a1.83,1.83,0,0,0,1.57-.73h.09a1.83,1.83,0,0,0,1.57.73.13.13,0,0,1,.13.14V4.91a1.74,1.74,0,0,1-1.74,1.74h0a1.74,1.74,0,0,1-1.74-1.74Z"/></g></svg>