<svg xmlns="http://www.w3.org/2000/svg" viewBox="0 0 106.75 99.36"><defs><style>.cls-1{fill:#231f20;}</style></defs><g id="Layer_1" data-name="Layer 1"><path class="cls-1" d="M53.31,94.36A44.61,44.61,0,0,1,11,64l5.65-.79L6.71,52.72,0,65.54l6-.84a49.68,49.68,0,0,0,95.53-2.88L96.64,60.6A44.6,44.6,0,0,1,53.31,94.36Z"/><path class="cls-1" d="M53.31,5a44.6,44.6,0,0,1,42.9,32.18l-5.9,1.22,10.57,9.82L106.75,35l-5.63,1.17a49.68,49.68,0,0,0-96,1.37L10,38.76A44.6,44.6,0,0,1,53.31,5Z"/><path class="cls-1" d="M25.38,49.68a28,28,0,1,0,28-28A28,28,0,0,0,25.38,49.68Zm41.88,9L64.62,62.9,49,53.16l.25-18.67,5,.07L54,50.4Z"/></g></svg>