<svg xmlns="http://www.w3.org/2000/svg" viewBox="0 0 104.88 110.39"><defs><style>.cls-1{fill:#231f20;}</style></defs><g id="Layer_1" data-name="Layer 1"><path class="cls-1" d="M36,86.58c-.4,1.12,1.38,1.85,2.2.9l28.91-33.6c.59-.68,0-1.64-1-1.64H54.62c-.83,0-1.43-.67-1.19-1.33l9.93-28c.4-1.13-1.38-1.85-2.2-.9L32.25,55.62c-.6.69,0,1.65,1,1.65H44.71c.83,0,1.43.67,1.19,1.33Z"/><path class="cls-1" d="M52.24,100A44.6,44.6,0,0,1,9.91,69.66l5.64-.79L5.64,58.39-1.08,71.2l6-.83a49.69,49.69,0,0,0,95.54-2.88l-4.85-1.22A44.62,44.62,0,0,1,52.24,100Z"/><path class="cls-1" d="M52.24,10.67a44.6,44.6,0,0,1,42.9,32.18l-5.91,1.22L99.8,53.89l5.87-13.22L100,41.83a49.68,49.68,0,0,0-96,1.37l4.85,1.22A44.6,44.6,0,0,1,52.24,10.67Z"/></g></svg>