<svg xmlns="http://www.w3.org/2000/svg" viewBox="0 0 109.28 104.23"><defs><style>.cls-1{fill:#231f20;}</style></defs><g id="Layer_1" data-name="Layer 1"><polygon class="cls-1" points="62.2 72.43 46.3 72.43 46.31 66.41 35.72 73.94 46.3 81.53 46.3 75.43 62.2 75.43 62.2 81.49 72.78 73.97 62.2 66.38 62.2 72.43"/><path class="cls-1" d="M41.17,57V27a7.51,7.51,0,0,0-6.63-7.45v-.05H6.8v0A7.51,7.51,0,0,0,0,27V57a3.75,3.75,0,0,0,7.5,0V32.88H9.42V99.17a5.06,5.06,0,1,0,10.12,0V59.84h2.09V99.17a5.06,5.06,0,1,0,10.12,0V32.88h1.92V57a3.75,3.75,0,1,0,7.5,0Z"/><path class="cls-1" d="M20.58,17.36a8.68,8.68,0,1,0-8.67-8.68A8.68,8.68,0,0,0,20.58,17.36Z"/><path class="cls-1" d="M102.65,19.5v-.05H74.91v0A7.51,7.51,0,0,0,68.11,27V57a3.75,3.75,0,1,0,7.5,0V32.88h1.92V99.17a5.06,5.06,0,0,0,10.12,0V59.84h2.09V99.17a5.06,5.06,0,0,0,10.12,0V32.88h1.92V57a3.75,3.75,0,0,0,7.5,0V27A7.51,7.51,0,0,0,102.65,19.5Z"/><path class="cls-1" d="M88.69,17.36A8.68,8.68,0,1,0,80,8.68,8.68,8.68,0,0,0,88.69,17.36Z"/></g></svg>