<svg id="Layer_1" data-name="Layer 1" xmlns="http://www.w3.org/2000/svg" viewBox="0 0 128 128"><defs><style>.cls-1{fill:#231f20}</style></defs><path class="cls-1" d="M110.08 74.27a14.53 14.53 0 1 1-26.73-7.87H66.5v22.69l-4.84.74a9.68 9.68 0 1 0 0 11.24l4.84.73v22.7h58.1V66.4h-16.85a14.47 14.47 0 0 1 2.33 7.87Z"/><path class="cls-1" d="M66.5 3.46v16.85a14.52 14.52 0 1 1 0 24.4v16.85h22.7l.73 4.84a9.68 9.68 0 1 0 11.24 0l.74-4.84h22.69V3.46Z"/><path class="cls-1" d="M18.08 53.69a14.53 14.53 0 1 1 26.73 7.87h16.85v-22.7l4.84-.74a9.69 9.69 0 1 0 0-11.23l-4.84-.74V3.46H3.56v58.1h16.85a14.47 14.47 0 0 1-2.33-7.87Z"/><path class="cls-1" d="M39.27 95.45a14.51 14.51 0 0 1 22.39-12.2V66.4H39l-.73-4.84a9.68 9.68 0 1 0-11.24 0l-.74 4.84H3.56v58.1h58.1v-16.85a14.52 14.52 0 0 1-22.39-12.2Z"/></svg>