<svg xmlns="http://www.w3.org/2000/svg" viewBox="0 0 110.03 109.29"><defs><style>.cls-1{fill:#231f20;}</style></defs><g id="Layer_1" data-name="Layer 1"><path class="cls-1" d="M69,10.26l6.18,10.22,6.2-10.22h0a7,7,0,1,0-12.34,0Z"/><path class="cls-1" d="M72.9,70.81C49.21,64.65,27.84,60.4,25.24,54.92c-2.3-4.84,18.93-8.72,23.88-9.55a1.22,1.22,0,0,0,1-1.21v-3a1.23,1.23,0,0,0-1.26-1.23c-5.34.18-26.41,1.33-40.07,8.46-15.75,8.22-8.9,21.36,8.9,29.44s28.76,13.7-5.89,31.36l89,.14s8.62-7,9.17-15.89S96.59,77,72.9,70.81Z"/><path class="cls-1" d="M63,59.53h2.31c1.2,0,2.18-.73,2.18-1.63V53.74H60.78V57.9C60.78,58.8,61.75,59.53,63,59.53Z"/><path class="cls-1" d="M88.39,59.53h2.3c1.21,0,2.18-.73,2.18-1.63V53.74H86.21V57.9C86.21,58.8,87.18,59.53,88.39,59.53Z"/><path class="cls-1" d="M55.58,50.63h41.5a1.57,1.57,0,0,0,1.57-1.57V36.7a1.57,1.57,0,0,0-1.57-1.57H90.86l-2-6.8a2.63,2.63,0,0,0-2.58-2.06H65.72a2.63,2.63,0,0,0-2.58,2.06l-2,6.8H55.58A1.57,1.57,0,0,0,54,36.7V49.06A1.58,1.58,0,0,0,55.58,50.63Z"/></g></svg>