<svg xmlns="http://www.w3.org/2000/svg" viewBox="0 0 377.06 291.28"><g data-name="Layer 1"><path d="M223.88 251.48v-11.14H157v11.14a21.56 21.56 0 0 1-2.93 10.21l-19 28.79h111.41l-19.36-28.79a21.92 21.92 0 0 1-3.24-10.21M25.32 24.76h327.75v173.15H25.32ZM.58 222.65h377.23V0H.58Z"/><path d="M181.8 34.25h14.78v154.18H181.8zM264.47 55.71h19.54v19.54h-19.54zM264.47 148.17h19.54v19.54h-19.54zM339.62 103.74v14.78H208.86v-14.78z"/><g><path d="M94.38 55.71h19.54v19.54H94.38zM94.38 148.17h19.54v19.54H94.38zM169.53 103.75v14.78H38.77v-14.78z"/></g></g></svg>