<svg data-name="Layer 2" xmlns="http://www.w3.org/2000/svg" viewBox="0 0 308.04 313.68"><path d="m9.36 92.36 140.53 73.72a9 9 0 0 0 8.35 0l140.52-73.72a9 9 0 0 0 0-15.92L158.24 2.71a9 9 0 0 0-8.35 0L9.36 76.44a9 9 0 0 0 0 15.92Zm23.53-8 121.17-63.54L275.24 84.4 154.06 148Z"/><path d="m299.84 145.58-36.47-19.14-2.15-1.12-2.14 1.12-14.36 7.56-7.3 3.83 7.08 4.17h.05l.5.28 25.22 13.24-116.21 61-116.21-61 25.58-13.42 7.79-4.09-7.79-4.01-14.38-7.55-2.14-1.12-2.15 1.12-36.47 19.13a11.29 11.29 0 0 0 0 20l140.53 73.73a11.31 11.31 0 0 0 10.49 0l140.53-73.73a11.3 11.3 0 0 0 0-20Z"/><path d="m299.84 219.79-36.47-19.14-2.15-1.12-2.14 1.12-14.36 7.54-7.3 3.83 7.08 4.22h.05l.5.29 25.22 13.23-116.21 61-116.21-61 25.58-13.42 7.79-4.09-7.79-4.08-14.38-7.55-2.14-1.12-2.15 1.12-36.47 19.17a11.29 11.29 0 0 0 0 20l140.53 73.73a11.31 11.31 0 0 0 10.49 0l140.53-73.73a11.3 11.3 0 0 0 0-20Z"/></svg>