<svg xmlns="http://www.w3.org/2000/svg" viewBox="0 0 108.32 111.47"><defs><style>.cls-1{fill:#231f20;}</style></defs><g id="Layer_1" data-name="Layer 1"><path class="cls-1" d="M103.9,45.32h-10V39.89a6,6,0,0,0-6-6H78.58a6,6,0,0,0-6,6v5.43h-10a4.43,4.43,0,0,0-4.43,4.43v8h50.12v-8A4.42,4.42,0,0,0,103.9,45.32Z"/><path class="cls-1" d="M76.84,23.51,79,25.69a3.85,3.85,0,0,1,7.16.77l2.28-2.28a6.83,6.83,0,0,0-11.62-.67Z"/><path class="cls-1" d="M93.62,19l2.15-2.15a16.83,16.83,0,0,0-25.94-.37L72,18.65a13.72,13.72,0,0,1,10.67-5.07A13.86,13.86,0,0,1,93.62,19Z"/><path class="cls-1" d="M83,3a24.36,24.36,0,0,1,18.36,8.33l2.13-2.12A27.4,27.4,0,0,0,62.5,9.16l2.12,2.13A24.38,24.38,0,0,1,83,3Z"/><path class="cls-1" d="M65.11,111.47h37.77l2-49.93H63.11ZM89.3,68l3,.11L90.94,104.2l-3-.12ZM78.69,68,80,104.09l-3,.1-1.27-36Z"/><path class="cls-1" d="M0,94.42a3.33,3.33,0,0,0,3.34,3.33,3.34,3.34,0,1,0,0,6.67,3.34,3.34,0,1,0,0,6.67H20v-20H3.34A3.33,3.33,0,0,0,0,94.42Z"/><path class="cls-1" d="M54.91,98.56H52.27v5h2.64a1.28,1.28,0,0,0,1.28-1.28V99.84A1.28,1.28,0,0,0,54.91,98.56Z"/><path class="cls-1" d="M43.4,96.9,39.54,93a6.33,6.33,0,0,0-4.47-1.85H32.59V111h2.49a6.35,6.35,0,0,0,4.45-1.86l3.87-3.86a7.12,7.12,0,0,1,5-2.09h.87V99h-.87A7.12,7.12,0,0,1,43.4,96.9Z"/><rect class="cls-1" x="23.01" y="91.24" width="6.59" height="19.95"/></g></svg>