<svg xmlns="http://www.w3.org/2000/svg" viewBox="0 0 109.78 108.87"><defs><style>.cls-1{fill:#231f20;}</style></defs><g id="Layer_1" data-name="Layer 1"><polygon class="cls-1" points="42.85 8.71 45.45 8.71 44.16 6.88 42.85 8.71"/><polygon class="cls-1" points="42.72 8.89 45.59 8.89 45.45 8.71 42.85 8.71 42.72 8.89"/><path class="cls-1" d="M94.71,58.75c-3.38,3.09-6.29,5.76-12.38,5.76s-9-2.67-12.37-5.76-7.44-6.82-15.08-6.82-11.59,3.62-15.07,6.82-6.29,5.76-12.37,5.76-9-2.67-12.37-5.76S7.64,51.93,0,51.93v4c6.08,0,9,2.67,12.37,5.76s7.43,6.82,15.07,6.82S39,64.89,42.51,61.69s6.29-5.76,12.37-5.76,9,2.67,12.38,5.76,7.43,6.82,15.07,6.82,11.59-3.62,15.08-6.81,6.29-5.77,12.37-5.77v-4C102.14,51.93,98.19,55.55,94.71,58.75Z"/><path class="cls-1" d="M82.33,81.71c-6.08,0-9-2.67-12.37-5.76s-7.44-6.82-15.08-6.82S43.29,72.75,39.81,76s-6.29,5.76-12.37,5.76S18.44,79,15.07,76,7.64,69.13,0,69.13v4c6.08,0,9,2.67,12.37,5.76s7.43,6.82,15.07,6.82S39,82.09,42.51,78.89s6.29-5.76,12.37-5.76,9,2.67,12.38,5.76,7.43,6.82,15.07,6.82,11.59-3.62,15.08-6.82,6.29-5.76,12.37-5.76v-4c-7.64,0-11.59,3.62-15.07,6.82S88.42,81.71,82.33,81.71Z"/><path class="cls-1" d="M93,92.44C89.75,95.4,87,98,81.13,98S72.5,95.4,69.26,92.44s-7.18-6.59-14.56-6.59-11.2,3.5-14.57,6.59S34.1,98,28.27,98s-8.63-2.56-11.87-5.53S9.37,86,2.26,85.86l-2,0v23H109.56v-23h-2C100.17,85.85,96.36,89.35,93,92.44Z"/><path class="cls-1" d="M42.13,42.92h4v-30h7.21L44.17,0,34.93,12.89h7.2Zm3.46-34H42.72l.13-.18,1.31-1.83,1.29,1.83Z"/><polygon class="cls-1" points="74.86 30.48 67.65 30.47 67.65 0.44 63.65 0.44 63.65 30.47 56.45 30.47 65.61 43.36 74.86 30.48"/></g></svg>