<svg xmlns="http://www.w3.org/2000/svg" viewBox="0 0 111.63 111.72"><defs><style>.cls-1{fill:#231f20;}</style></defs><g id="Layer_1" data-name="Layer 1"><path class="cls-1" d="M60.91,100.18,54.54,84.1a1.1,1.1,0,0,0-2,0l-6.37,16.08h0a7.9,7.9,0,0,0-.86,3.69,8.21,8.21,0,0,0,8.17,7.85,8.1,8.1,0,0,0,8.23-8,7.85,7.85,0,0,0-.86-3.55Z"/><path class="cls-1" d="M81.49,51V44.8H88.4a5,5,0,0,0,0-10H66.5a5,5,0,0,0,0,10h7V51H59.74C53.6,51,48.6,56.57,48.6,63.47v13.2h10V63.47c0-1.6.87-2.51,1.14-2.51h51.89V51Z"/><path class="cls-1" d="M43.34,30l-.21-.12a19.63,19.63,0,0,0,0-8.45l.21-.13,4.93-5.09L44.38,9.44l-6.87,1.72-.22.13a19.49,19.49,0,0,0-7.21-4.2V6.81L28,0H20.24l-2,6.81v.28A19.49,19.49,0,0,0,11,11.29l-.22-.13L3.89,9.44,0,16.18l4.93,5.09.21.13a19.63,19.63,0,0,0,0,8.45L4.93,30,0,35.06,3.89,41.8l6.87-1.72L11,40a19.46,19.46,0,0,0,7.21,4.19v.28l2,6.81H28l2-6.81v-.28A19.46,19.46,0,0,0,37.29,40l.22.12,6.87,1.72,3.89-6.74ZM24,35.87A10.14,10.14,0,1,1,34.15,25.74,10.13,10.13,0,0,1,24,35.87Z"/></g></svg>