<svg xmlns="http://www.w3.org/2000/svg" xmlns:xlink="http://www.w3.org/1999/xlink" viewBox="0 0 155 116">
  <defs>
    <linearGradient id="linear-gradient" x1="119.67" y1="87.43" x2="155" y2="87.43" gradientUnits="userSpaceOnUse">
      <stop offset="0" stop-color="#fff"/>
      <stop offset="1" stop-color="#87a2b3"/>
      <stop offset="1"/>
    </linearGradient>
    <linearGradient id="linear-gradient-2" x1="0" y1="87.43" x2="35.33" y2="87.43" xlink:href="#linear-gradient"/>
    <style>
      .cls-2{fill:#fff}.cls-3{fill:#ffe600}.cls-4{fill:#009bdb}.cls-8{fill:#003a5d}
    </style>
  </defs>
  <g style="isolation:isolate">
    <g id="Layer_1" data-name="Layer 1">
      <path class="cls-2" d="M32.93 73.42v-1.5a39.32 39.32 0 0178.64 0v1.5h.72v-1.5a40 40 0 00-80.06 0v1.5z"/>
      <path class="cls-2" d="M48.81 71.64v-1.29a23.47 23.47 0 0146.93 0v1.29h.62v-1.29a24.08 24.08 0 00-48.15 0v1.29z"/>
      <path class="cls-2" d="M15.22 71.64v-1.29a57 57 0 01114.07 0v1.29h.61v-1.29a57.65 57.65 0 00-115.29 0v1.29z"/>
      <circle class="cls-3" cx="35.33" cy="26.36" r="3.42"/>
      <circle class="cls-3" cx="116.52" cy="33.2" r="3.42"/>
      <circle class="cls-4" cx="40.85" cy="47.22" r="3.61"/>
      <circle class="cls-2" cx="90.1" cy="55.31" r="3.61"/>
      <circle cx="101.83" cy="45.22" r="3.56" fill="#96a6ae"/>
      <circle class="cls-3" cx="64.04" cy="48.3" r="2.02"/>
      <circle class="cls-4" cx="82.8" cy="33.91" r="2.02"/>
      <circle cx="86.84" cy="15.02" r="5.24" fill="#809ba8"/>
      <path class="cls-3" d="M147 89.54a2.22 2.22 0 01-1.58.65h-3.16v6.89h-1v-6.89h-11.13v-1h15.29a1.19 1.19 0 00.86-.35l8.43-8.43a2.29 2.29 0 00-.43-.59l-1.05-1.06a2.45 2.45 0 01-.72-1.73v-2.34a2.44 2.44 0 00-.71-1.69l-.45-.44-4.44 4.44a2.22 2.22 0 01-1.57.66h-3.94v-1h3.94a1.2 1.2 0 00.85-.36l4.44-4.44-8.46-8.47a2.42 2.42 0 00-1-.59l-10.56-3.49v1.79l4.81 4.81a2.21 2.21 0 01.65 1.57v4.75h-1v-4.75a1.19 1.19 0 00-.35-.85l-4.09-4.09v12.71h-1V58.92l-1-.34a2.48 2.48 0 00-.77-.12h-17.51a2.47 2.47 0 00-1 .23L98.6 63.78l4.3 4.3 3.84-3.84a2.21 2.21 0 011.57-.65H115v1h-6.73a1.19 1.19 0 00-.85.35l-3.84 3.84 2.91 2.91a1.21 1.21 0 00.85.36h13.46v1h-12.9l9.67 9.66a1.21 1.21 0 00.85.35h18.8v1h-18.8a2.19 2.19 0 01-1.57-.65L113.34 80v4.1a1.19 1.19 0 00.35.85l5.19 5.19-.72.72-5.16-5.23a2.21 2.21 0 01-.65-1.57v-5.12l-6-6-.5-.5-8.19-8.2-1.28.61a2.47 2.47 0 00-.68.48l-4.84 4.84 4.51 4.51a1.21 1.21 0 00.85.35h4.46v1h-4.5a2.19 2.19 0 01-1.57-.65l-4.51-4.49-.95 1a2.48 2.48 0 00-.71 1.73v7.67h18.82v1H93.5l4.38 4.38a1.25 1.25 0 00.85.35h3.42v1h-3.42a2.25 2.25 0 01-1.57-.65l-5.1-5.1h-3.62v1.22a2.48 2.48 0 00.71 1.73l7.09 7.09A2.48 2.48 0 0098 93h8.09a2.45 2.45 0 012.45 2.45v2.12a2.44 2.44 0 00.71 1.73l3.24 3.24a2.44 2.44 0 001.73.71h4.28l4.82-4.82a2.21 2.21 0 011.57-.65h7.83v1h-7.83a1.23 1.23 0 00-.85.35l-4.1 4.1h.73a2.46 2.46 0 012.08 1.15l7.25 11.74a.61.61 0 00.52.29h4.79a.62.62 0 00.57-.85l-2.08-5.09a.59.59 0 01.54-.81H142a2.47 2.47 0 00.6-.08l-4.73-4.73a1.21 1.21 0 00-.85-.35h-8.75v-1H137a2.21 2.21 0 011.57.65l5 5 .18-.14 8.42-8.43a2.45 2.45 0 00.72-1.73v-4.44a2.42 2.42 0 01.72-1.72l.68-.69a2.45 2.45 0 00.72-1.73v-8.73z"/>
      <path d="M154.71 80.39a2.29 2.29 0 00-.43-.59l-1.05-1.06a2.45 2.45 0 01-.72-1.73v-2.32a2.44 2.44 0 00-.71-1.69l-.45-.44-.72-.72-8.46-8.47a2.42 2.42 0 00-1-.59l-10.56-3.49-1-.33-1-.34a2.48 2.48 0 00-.77-.12h-8.16a2.53 2.53 0 01.77.12l1 .34 1 .33L133 62.74a2.45 2.45 0 011 .59l8.47 8.47.72.72.44.44a2.45 2.45 0 01.72 1.73V77a2.45 2.45 0 00.72 1.73l1.05 1.06a2.26 2.26 0 01.42.59 2.36 2.36 0 01.3 1.14v8.73a2.45 2.45 0 01-.72 1.73l-.69.69a2.41 2.41 0 00-.71 1.72v4.38a2.45 2.45 0 01-.72 1.73l-8.43 8.5-.17.14a2.5 2.5 0 01-1 .49 2.35 2.35 0 01-.6.08h-7.63a.65.65 0 00-.19 0l4 6.42a.61.61 0 00.52.29h4.79a.62.62 0 00.57-.85l-2.08-5.09a.59.59 0 01.54-.81H142a2.45 2.45 0 001.55-.57l.18-.14 8.42-8.43a2.45 2.45 0 00.72-1.73v-4.39a2.42 2.42 0 01.72-1.72l.68-.69a2.45 2.45 0 00.72-1.73v-8.73a2.47 2.47 0 00-.28-1.15z" style="mix-blend-mode:multiply" fill="url(#linear-gradient)"/>
      <path class="cls-8" d="M145.42 89.17h-15.29v1h11.11v6.89h1v-6.87h3.16a2.22 2.22 0 001.58-.65l8-8a2.47 2.47 0 00-.29-1.14l-8.43 8.43a1.19 1.19 0 01-.84.34zM145.34 76.6h-3.94v1h3.94a2.22 2.22 0 001.57-.66l4.44-4.44-.72-.72-4.44 4.44a1.2 1.2 0 01-.85.38zM130.64 75.25V62.54l4.09 4.09a1.19 1.19 0 01.35.85v4.75h1v-4.75a2.21 2.21 0 00-.65-1.57l-4.81-4.81v-1.85l-1-.33v16.33zM106.31 72.94l6 6v5.12a2.21 2.21 0 00.65 1.57l5.19 5.19.72-.72-5.19-5.19a1.19 1.19 0 01-.35-.85V80l3.51 3.51a2.19 2.19 0 001.57.65h18.8v-1h-18.8a1.21 1.21 0 01-.85-.35l-9.67-9.66h12.94v-1h-13.45a1.21 1.21 0 01-.85-.36l-2.91-2.91 3.84-3.88a1.19 1.19 0 01.85-.35H115v-1h-6.73a2.21 2.21 0 00-1.57.65l-3.84 3.84-4.3-4.3-1 .46 8.19 8.2zM97.16 87.36a2.25 2.25 0 001.57.65h3.42V87h-3.42a1.25 1.25 0 01-.85-.35l-4.38-4.39h13.76v-1H88.44v1h3.62zM96.18 76.05h4.46V75h-4.46a1.21 1.21 0 01-.85-.35l-4.51-4.51-.72.72 4.51 4.51a2.19 2.19 0 001.57.68zM137 103.48h-8.75v1H137a1.21 1.21 0 01.85.35l4.73 4.73a2.46 2.46 0 00.95-.49l-5-5a2.21 2.21 0 00-1.53-.59zM124.86 98.81h7.83v-1h-7.83a2.21 2.21 0 00-1.57.65l-4.82 4.82h1.44l4.1-4.1a1.23 1.23 0 01.85-.37z"/>
      <circle class="cls-8" cx="118.62" cy="90.45" r="1.14"/>
      <circle class="cls-8" cx="107.52" cy="81.76" r="1.14"/>
      <circle class="cls-8" cx="100.69" cy="75.43" r="1.14"/>
      <circle class="cls-8" cx="121.27" cy="72.66" r="1.14"/>
      <circle class="cls-8" cx="115.38" cy="64.21" r="1.14"/>
      <circle class="cls-8" cx="130.16" cy="75.27" r="1.14"/>
      <circle class="cls-8" cx="135.57" cy="72.39" r="1.14"/>
      <circle class="cls-8" cx="141.43" cy="77.06" r="1.14"/>
      <circle class="cls-8" cx="130.08" cy="89.75" r="1.14"/>
      <circle class="cls-8" cx="141.73" cy="97.1" r="1.14"/>
      <circle class="cls-8" cx="132.89" cy="98.32" r="1.14"/>
      <circle class="cls-8" cx="128.36" cy="104.04" r="1.14"/>
      <circle class="cls-8" cx="102.32" cy="87.54" r="1.14"/>
      <path class="cls-3" d="M8 89.54a2.22 2.22 0 001.58.65h3.16v6.89h1v-6.89h11.13v-1H9.58a1.19 1.19 0 01-.86-.35L.29 80.39a2.29 2.29 0 01.43-.59l1.05-1.06A2.45 2.45 0 002.49 77v-2.31A2.44 2.44 0 013.2 73l.45-.44L8.09 77a2.22 2.22 0 001.57.66h3.94v-1H9.66a1.2 1.2 0 01-.85-.36l-4.44-4.5 8.46-8.47a2.42 2.42 0 011-.59l10.56-3.49v1.85l-4.81 4.81a2.21 2.21 0 00-.65 1.57v4.75h1v-4.75a1.19 1.19 0 01.35-.85l4.09-4.09v12.71h1V58.92l1-.34a2.48 2.48 0 01.77-.12h17.51a2.47 2.47 0 011 .23l10.75 5.09-4.3 4.3-3.84-3.84a2.21 2.21 0 00-1.57-.65H40v1h6.73a1.19 1.19 0 01.85.35l3.84 3.84-2.91 2.91a1.21 1.21 0 01-.85.36h-13.5v1H47.1l-9.67 9.66a1.21 1.21 0 01-.85.35h-18.8v1h18.8a2.19 2.19 0 001.57-.65L41.66 80v4.1a1.19 1.19 0 01-.35.85l-5.19 5.15.72.72L42 85.63a2.21 2.21 0 00.65-1.57v-5.12l6-6 .5-.5 8.19-8.2 1.28.61a2.47 2.47 0 01.68.48l4.84 4.84-4.51 4.51a1.21 1.21 0 01-.85.35h-4.42v1h4.46a2.19 2.19 0 001.57-.65l4.51-4.51.95 1a2.48 2.48 0 01.71 1.73v7.67H47.74v1H61.5l-4.38 4.38a1.25 1.25 0 01-.85.35h-3.42v1h3.42a2.25 2.25 0 001.57-.65l5.1-5.1h3.62v1.22a2.48 2.48 0 01-.71 1.73l-7.09 7.1A2.48 2.48 0 0157 93h-8.06a2.45 2.45 0 00-2.45 2.45v2.12a2.44 2.44 0 01-.71 1.73l-3.24 3.24a2.44 2.44 0 01-1.73.71h-4.28l-4.82-4.82a2.21 2.21 0 00-1.57-.65h-7.83v1h7.83a1.23 1.23 0 01.85.35l4.1 4.1h-.73a2.46 2.46 0 00-2.08 1.15L25 116.12a.61.61 0 01-.52.29h-4.83a.62.62 0 01-.57-.85l2.08-5.09a.59.59 0 00-.54-.81H13a2.47 2.47 0 01-.6-.08l4.73-4.73a1.21 1.21 0 01.85-.35h8.75v-1H18a2.21 2.21 0 00-1.57.65l-5 5-.18-.14-8.42-8.43a2.45 2.45 0 01-.72-1.73v-4.44a2.42 2.42 0 00-.72-1.72L.72 92A2.45 2.45 0 010 90.27v-8.73z"/>
      <path d="M.29 80.39a2.29 2.29 0 01.43-.59l1.05-1.06A2.45 2.45 0 002.49 77v-2.31A2.44 2.44 0 013.2 73l.45-.44.72-.72 8.46-8.47a2.42 2.42 0 011-.59l10.56-3.49 1-.33 1-.34a2.48 2.48 0 01.77-.12h8.16a2.53 2.53 0 00-.77.12l-1 .34-1 .33L22 62.74a2.45 2.45 0 00-1 .59l-8.47 8.47-.72.72-.44.44a2.45 2.45 0 00-.72 1.73V77a2.45 2.45 0 01-.72 1.73l-1 1.06a2.26 2.26 0 00-.42.59 2.36 2.36 0 00-.3 1.14v8.73A2.45 2.45 0 008.88 92l.69.69a2.41 2.41 0 01.71 1.72v4.38a2.45 2.45 0 00.72 1.73l8.43 8.48.17.14a2.5 2.5 0 001 .49 2.35 2.35 0 00.6.08h7.63a.65.65 0 01.19 0l-4 6.42a.61.61 0 01-.52.29h-4.85a.62.62 0 01-.57-.85l2.08-5.09a.59.59 0 00-.54-.81H13a2.45 2.45 0 01-1.55-.57l-.18-.14-8.42-8.43a2.45 2.45 0 01-.72-1.73v-4.39a2.42 2.42 0 00-.72-1.72L.72 92A2.45 2.45 0 010 90.27v-8.73a2.47 2.47 0 01.29-1.15z" style="mix-blend-mode:multiply" fill="url(#linear-gradient-2)"/>
      <path class="cls-8" d="M9.58 89.17h15.29v1H13.76v6.89h-1v-6.87H9.58A2.22 2.22 0 018 89.54l-8-8a2.47 2.47 0 01.29-1.14l8.43 8.43a1.19 1.19 0 00.86.34zM9.66 76.6h3.94v1H9.66a2.22 2.22 0 01-1.57-.6l-4.44-4.48.72-.72 4.44 4.44a1.2 1.2 0 00.85.36zM24.36 75.25V62.54l-4.09 4.09a1.19 1.19 0 00-.35.85v4.75h-1v-4.75a2.21 2.21 0 01.65-1.57l4.81-4.81v-1.85l1-.33v16.33zM48.69 72.94l-6 6v5.12a2.21 2.21 0 01-.69 1.57l-5.19 5.19-.72-.72 5.19-5.19a1.19 1.19 0 00.35-.85V80l-3.51 3.51a2.19 2.19 0 01-1.57.65H17.78v-1h18.8a1.21 1.21 0 00.85-.35l9.67-9.66H34.16v-1h13.46a1.21 1.21 0 00.85-.36l2.91-2.91L47.54 65a1.19 1.19 0 00-.85-.35H40v-1h6.73a2.21 2.21 0 011.57.65l3.84 3.84 4.3-4.3 1 .46-8.19 8.2zM57.84 87.36a2.25 2.25 0 01-1.57.65h-3.42V87h3.42a1.25 1.25 0 00.85-.35l4.38-4.38H47.74v-1h18.82v1h-3.62zM58.82 76.05h-4.46V75h4.46a1.21 1.21 0 00.85-.35l4.51-4.51.72.72-4.51 4.54a2.19 2.19 0 01-1.57.65zM18 103.48h8.75v1H18a1.21 1.21 0 00-.85.35l-4.73 4.73a2.46 2.46 0 01-1-.49l5-5a2.21 2.21 0 011.58-.59zM30.14 98.81h-7.83v-1h7.83a2.21 2.21 0 011.57.65l4.82 4.82h-1.44L31 99.16a1.23 1.23 0 00-.86-.35z"/>
      <circle class="cls-8" cx="36.38" cy="90.45" r="1.14"/>
      <circle class="cls-8" cx="47.48" cy="81.76" r="1.14"/>
      <circle class="cls-8" cx="54.31" cy="75.43" r="1.14"/>
      <circle class="cls-8" cx="33.73" cy="72.66" r="1.14"/>
      <circle class="cls-8" cx="39.62" cy="64.21" r="1.14"/>
      <circle class="cls-8" cx="24.84" cy="75.27" r="1.14"/>
      <circle class="cls-8" cx="19.43" cy="72.39" r="1.14"/>
      <circle class="cls-8" cx="13.57" cy="77.06" r="1.14"/>
      <circle class="cls-8" cx="24.92" cy="89.75" r="1.14"/>
      <circle class="cls-8" cx="13.27" cy="97.1" r="1.14"/>
      <circle class="cls-8" cx="22.11" cy="98.32" r="1.14"/>
      <circle class="cls-8" cx="26.64" cy="104.04" r="1.14"/>
      <circle class="cls-8" cx="52.68" cy="87.54" r="1.14"/>
    </g>
  </g>
</svg>
