<svg xmlns="http://www.w3.org/2000/svg" viewBox="0 0 296.82 298.31"><defs><linearGradient id="linear-gradient" x1="-543.96" y1="224.17" x2="-423.05" y2="224.17" gradientTransform="rotate(180 -173.13 184.845)" gradientUnits="userSpaceOnUse"><stop offset=".12" stop-color="#bac4c9"/><stop offset=".51" stop-color="#bdc7cc"/><stop offset=".56" stop-color="#ccce9e"/><stop offset=".62" stop-color="#dbd56e"/><stop offset=".68" stop-color="#e8db46"/><stop offset=".74" stop-color="#f2e028"/><stop offset=".8" stop-color="#f9e312"/><stop offset=".86" stop-color="#fee504"/><stop offset=".91" stop-color="#ffe600"/></linearGradient><linearGradient id="linear-gradient-2" x1="-423.05" y1="252.51" x2="-543.96" y2="252.51" gradientTransform="rotate(180 -173.13 184.845)" gradientUnits="userSpaceOnUse"><stop offset=".13" stop-color="#96a6ae"/><stop offset=".51" stop-color="#bdc7cc"/><stop offset=".55" stop-color="#9ec0ce"/><stop offset=".63" stop-color="#6eb5d2"/><stop offset=".71" stop-color="#46abd5"/><stop offset=".79" stop-color="#28a4d8"/><stop offset=".86" stop-color="#129fda"/><stop offset=".93" stop-color="#049cdb"/><stop offset="1" stop-color="#009bdb"/></linearGradient><linearGradient id="linear-gradient-3" x1="-423.05" y1="193.1" x2="-543.96" y2="193.1" gradientTransform="rotate(180 -173.13 184.845)" gradientUnits="userSpaceOnUse"><stop offset=".12" stop-color="#009bdb"/><stop offset=".16" stop-color="#0b9edb"/><stop offset=".24" stop-color="#28a6da"/><stop offset=".33" stop-color="#57b3da"/><stop offset=".45" stop-color="#97c5d9"/><stop offset=".54" stop-color="#cdd4d8"/><stop offset=".59" stop-color="#9eb0bc"/><stop offset=".65" stop-color="#6e8d9f"/><stop offset=".71" stop-color="#466f87"/><stop offset=".77" stop-color="#285875"/><stop offset=".83" stop-color="#124768"/><stop offset=".88" stop-color="#043d60"/><stop offset=".93" stop-color="#003a5d"/></linearGradient><style>.cls-4{fill:#96a6ae}.cls-10{fill:#009bdb}</style></defs><g style="isolation:isolate"><g id="Layer_2" data-name="Layer 2"><g id="Layer_2-2" data-name="Layer 2"><path d="M296.73 27.65a15.92 15.92 0 0 0-.66-3.24c-.16-.52-.34-1-.55-1.52a16.61 16.61 0 0 0-11.95-9.8 16.84 16.84 0 0 0-3.35-.34H27.86c-.54 0-1.06 0-1.58.08l-.52.07q-.51.06-1 .15l-.6.13-.88.23-.62.19c-.28.09-.54.19-.81.3l-.63.25-.72.35c-.21.1-.43.2-.63.31l-.16.1a18.21 18.21 0 0 0-1.81 1.19l-.34.26c-.27.21-.52.44-.78.67l-.28.25c-.26.25-.51.51-.76.77l-.19.21c-.26.29-.52.59-.76.9v.05a16.55 16.55 0 0 0-2.94 6.05 16.26 16.26 0 0 0-.53 4.09v252.36a16.48 16.48 0 0 0 2.39 8.55l.19.29c.14.23.29.46.45.68l.13.18a16.57 16.57 0 0 0 13.45 6.89h252.29a16.26 16.26 0 0 0 4.09-.53 16.55 16.55 0 0 0 6.05-2.94.1.1 0 0 1 .05 0c.31-.24.61-.5.9-.76l.21-.19c.26-.25.52-.5.76-.76l.26-.28c.23-.26.46-.51.67-.78l.26-.34a17.11 17.11 0 0 0 1.16-1.75c0-.08.09-.14.13-.22s.21-.41.31-.62.24-.49.35-.73.17-.42.25-.63.21-.53.3-.81.13-.41.19-.62.16-.58.23-.88.09-.4.13-.6.11-.68.15-1c0-.18.05-.35.07-.52.05-.52.08-1 .08-1.58V29.35a16 16 0 0 0-.09-1.7Z" style="mix-blend-mode:multiply;opacity:.16;fill:#96a6ae"/><rect x=".02" width="285.56" height="285.56" rx="16.6" style="fill:#aebac0"/><path class="cls-4" d="M46.65 105.51a10.29 10.29 0 0 0-18.38 9 2.4 2.4 0 0 1-.58 2.53l-18 18a2.36 2.36 0 0 0-.69 1.65v51.16l-8.9 8.89v6.7L13 190.5a2.35 2.35 0 0 0 .7-1.67v-51.16l16.91-16.91a2.47 2.47 0 0 1 2.84-.45 10.3 10.3 0 0 0 13.17-14.8ZM255.35 239.52a10.35 10.35 0 0 0-11.33-.64 10 10 0 0 0-4.32 5 2.46 2.46 0 0 1-2.28 1.56H215a2.4 2.4 0 0 0-1.67.69l-39.47 39.47h6.69L216 250.13h21.4a2.47 2.47 0 0 1 2.28 1.57 10.12 10.12 0 0 0 4.31 5 10.31 10.31 0 0 0 11.36-17.17ZM163 30.05h-21.49a2.47 2.47 0 0 1-2.29-1.57 10.12 10.12 0 0 0-4.31-5 10.31 10.31 0 1 0 0 17.81 10.13 10.13 0 0 0 4.32-5 2.46 2.46 0 0 1 2.28-1.56h22.44a2.36 2.36 0 0 0 1.67-.69L199.68 0H193ZM178.94 256.84a10.39 10.39 0 1 0-14.7 0 10.38 10.38 0 0 0 14.7 0Z"/><circle class="cls-4" cx="252.08" cy="142.41" r="9.6" transform="rotate(-45 252.08 142.415)"/><circle class="cls-4" cx="61.37" cy="221.6" r="9.6" transform="rotate(-45 61.37 221.6)"/><circle class="cls-4" cx="38.13" cy="164.67" r="9.6" transform="rotate(-45 38.127 164.667)"/><path class="cls-4" d="M246.52 96.78 210.34 133h-23.91a2.48 2.48 0 0 1-2.33-1.69 10.33 10.33 0 1 0-.44 7.81 2.43 2.43 0 0 1 2.2-1.39h25.46A2.4 2.4 0 0 0 213 137l36.17-36.17h36.42v-4.75h-37.4a2.33 2.33 0 0 0-1.67.7ZM143.61 215.31l-36.18 36.18H83.52a2.48 2.48 0 0 1-2.33-1.69 10.33 10.33 0 1 0-.44 7.8 2.42 2.42 0 0 1 2.2-1.38h25.46a2.36 2.36 0 0 0 1.67-.69l36.18-36.18h36.41v-4.73h-37.39a2.36 2.36 0 0 0-1.67.69ZM203.88 43.63a2.45 2.45 0 0 1-.5-2.72 10.15 10.15 0 0 0 .47-6.58 10.31 10.31 0 1 0-12.61 12.58 10.09 10.09 0 0 0 6.56-.46 2.48 2.48 0 0 1 2.72.51l15.87 15.87a2.36 2.36 0 0 0 1.67.69h67.53v-4.73H219ZM65.55 26.46l15.16 15.16a2.47 2.47 0 0 1 .51 2.72 10.08 10.08 0 0 0-.48 6.58 10.31 10.31 0 1 0 12.61-12.58 10.1 10.1 0 0 0-6.56.45 2.47 2.47 0 0 1-2.72-.5L68.2 22.42a2.33 2.33 0 0 0-1.67-.7H0v4.74ZM152.9 285.56h6.69l-11.34-11.34a2.45 2.45 0 0 1-.5-2.72 10.16 10.16 0 0 0 .47-6.58 10.31 10.31 0 1 0-12.61 12.58 10.09 10.09 0 0 0 6.56-.46 2.49 2.49 0 0 1 2.72.51ZM142.22 56.41a10.4 10.4 0 1 0 10.4 10.39 10.39 10.39 0 0 0-10.4-10.39Z"/><path class="cls-4" d="M250.75 33.13a10.33 10.33 0 1 0-.09 7.8 2.43 2.43 0 0 1 2.24-1.49h32.69v-4.73H253a2.45 2.45 0 0 1-2.25-1.58ZM250.75 206a10.33 10.33 0 1 0-.09 7.8 2.42 2.42 0 0 1 2.24-1.49h32.69v-4.73H253a2.45 2.45 0 0 1-2.25-1.58Z"/><circle class="cls-4" cx="33.94" cy="52.49" r="9.6"/><rect x="59" y="67.7" width="156.83" height="156.83" rx="12.35" style="fill:#fff"/><path d="M86.54 157.92a9 9 0 0 0 8.18-9 2.64 2.64 0 0 1 1.28-2.39l21.45-12.15a2.18 2.18 0 0 1 2.24.24l28.54 25.22a6.72 6.72 0 0 0 7.53.79l24.44-13.85a2.66 2.66 0 0 1 3 .3 8.89 8.89 0 0 0 5.87 1.93 9 9 0 1 0-9.29-8.85 2.66 2.66 0 0 1-1.31 2.37l-24.91 14.11a2.17 2.17 0 0 1-2.25-.23l-28.54-25.22a6.58 6.58 0 0 0-4.36-1.6 6.39 6.39 0 0 0-3.17.81l-21 11.86a2.63 2.63 0 0 1-3-.3 9 9 0 1 0-4.78 16Z" style="fill:url(#linear-gradient)"/><circle cx="85.79" cy="149.26" r="9.08" style="fill:#ffe600"/><circle cx="188.92" cy="140.07" r="9.08" style="fill:#bac4c9"/><path d="M86.54 129.59a9 9 0 0 0 8.18-9A2.64 2.64 0 0 1 96 118.2l21.45-12.15a2.16 2.16 0 0 1 2.24.23l28.54 25.23a6.7 6.7 0 0 0 7.53.78l24.44-13.84a2.62 2.62 0 0 1 3 .3 8.89 8.89 0 0 0 5.87 1.92 9 9 0 1 0-9.29-8.84 2.64 2.64 0 0 1-1.31 2.36l-24.91 14.12a2.2 2.2 0 0 1-2.25-.24l-28.54-25.22a6.63 6.63 0 0 0-4.36-1.6 6.5 6.5 0 0 0-3.17.81l-21 11.87a2.63 2.63 0 0 1-3-.31 8.93 8.93 0 0 0-5.88-1.94 9 9 0 1 0 1.1 17.91Z" style="fill:url(#linear-gradient-2)"/><circle class="cls-4" cx="85.79" cy="120.93" r="9.08"/><circle class="cls-10" cx="188.92" cy="111.74" r="9.08"/><path d="M86.54 189a9 9 0 0 0 8.18-9 2.64 2.64 0 0 1 1.28-2.4l21.45-12.15a2.18 2.18 0 0 1 2.24.24l28.54 25.22a6.72 6.72 0 0 0 7.53.79l24.44-13.85a2.66 2.66 0 0 1 3 .3 8.89 8.89 0 0 0 5.87 1.93 9 9 0 1 0-9.29-8.85 2.66 2.66 0 0 1-1.31 2.37l-24.91 14.11a2.17 2.17 0 0 1-2.25-.23l-28.54-25.22a6.58 6.58 0 0 0-4.36-1.6 6.39 6.39 0 0 0-3.17.81l-21 11.86a2.63 2.63 0 0 1-3-.3 9 9 0 1 0-4.78 16Z" style="fill:url(#linear-gradient-3)"/><circle class="cls-10" cx="85.79" cy="180.33" r="9.08"/><circle cx="188.92" cy="171.14" r="9.08" style="fill:#003a5d"/><path class="cls-4" d="M23.42 245.46a10.29 10.29 0 0 0-2.23 11.17 2.42 2.42 0 0 1-.54 2.64L2.4 277.52a16.47 16.47 0 0 0 3 3.67l18.48-18.48a2.47 2.47 0 0 1 2.73-.5 10.31 10.31 0 1 0-3.22-16.75Z"/><path d="M269 0H16.62A16.6 16.6 0 0 0 .55 12.51 16.67 16.67 0 0 1 4.64 12H257a16.6 16.6 0 0 1 16.6 16.6V281a16.59 16.59 0 0 1-.53 4.08A16.59 16.59 0 0 0 285.59 269V16.6A16.6 16.6 0 0 0 269 0Z" style="opacity:.37;fill:#fff"/></g></g></g></svg>