<svg xmlns="http://www.w3.org/2000/svg" viewBox="0 0 300.3 301.41"><defs><style>.cls-8{fill:#96a6ae}.cls-3{fill:#009bdb}.cls-5{fill:#fff}.cls-7{fill:#e6e7e8}.cls-9{fill:#003a5d}</style></defs><g style="isolation:isolate"><g id="Layer_2" data-name="Layer 2"><g id="Layer_2-2" data-name="Layer 2"><path d="M300.22 30.75a17.4 17.4 0 0 0-.66-3.24c-.17-.52-.35-1-.56-1.52a16.6 16.6 0 0 0-15.3-10.14H31.34c-.53 0-1.06 0-1.58.08l-.51.07c-.35 0-.69.09-1 .15l-.59.13c-.3.07-.6.14-.89.23l-.62.19c-.28.09-.54.19-.81.3l-.62.25c-.25.1-.49.23-.73.35s-.43.2-.63.31l-.16.1a18.21 18.21 0 0 0-1.81 1.19l-.34.26c-.26.21-.52.44-.78.67l-.28.25c-.26.25-.51.51-.76.77l-.19.21c-.26.29-.52.59-.76.9a16.42 16.42 0 0 0-2.95 6.05 16.26 16.26 0 0 0-.53 4.09v252.41a16.48 16.48 0 0 0 2.39 8.55l.19.29c.14.23.29.45.45.68l.14.18a16.54 16.54 0 0 0 13.44 6.89H283.7a16.26 16.26 0 0 0 4.09-.53 16.42 16.42 0 0 0 6-2.95h.05c.31-.24.61-.5.9-.76l.26-.16c.26-.25.52-.5.77-.76l.25-.28c.23-.26.46-.51.67-.78l.26-.34a17.25 17.25 0 0 0 1.16-1.76l.13-.21c.11-.2.21-.42.31-.62s.25-.49.35-.74.17-.41.25-.62.21-.53.3-.81.13-.41.19-.62.16-.59.23-.89.09-.39.13-.59.11-.68.16-1c0-.17 0-.34.06-.51 0-.52.08-1.05.08-1.58V32.45c0-.57-.03-1.14-.08-1.7Z" style="opacity:.16;mix-blend-mode:multiply;fill:#96a6ae"/><rect class="cls-3" width="285.56" height="285.56" rx="16.6"/><path d="M269 0H16.6A16.59 16.59 0 0 0 .53 12.51 16.65 16.65 0 0 1 4.61 12H257a16.6 16.6 0 0 1 16.6 16.6V281a16.59 16.59 0 0 1-.52 4.08A16.58 16.58 0 0 0 285.56 269V16.6A16.6 16.6 0 0 0 269 0Z" style="fill:#b4d6f1;opacity:.37"/><path class="cls-5" d="M230.54 148.29c0-5.13 15.5-11.41 14.73-16.33s-17.49-6.26-19-11 11.22-15.62 8.94-20.09-18.55-.49-21.52-4.56 5.86-18.3 2.29-21.87-17.78 5.27-21.87 2.29 0-19.21-4.55-21.51-15.26 10.5-20.1 8.93-6-18.24-11-19-11.2 14.73-16.34 14.73-11.42-15.51-16.33-14.73-6.26 17.49-11 19-15.62-11.22-20.1-8.93-.48 18.55-4.55 21.51-18.3-5.86-21.87-2.29 5.26 17.78 2.29 21.87-19.21 0-21.52 4.56S59.5 116.11 57.93 121s-18.24 6-19 11 14.72 11.2 14.72 16.33-15.5 11.42-14.72 16.34 17.49 6.25 19 11-11.22 15.59-8.93 20.06 18.56.48 21.52 4.55-5.86 18.31-2.29 21.87 17.78-5.26 21.87-2.28 0 19.2 4.56 21.51 15.25-10.51 20.09-8.94 6 18.24 11 19 11.2-14.73 16.33-14.73 11.42 15.5 16.34 14.73 6.25-17.49 11-19 15.62 11.22 20.09 8.94.48-18.55 4.55-21.52 18.3 5.86 21.87 2.29-5.26-17.78-2.29-21.87 19.21 0 21.52-4.55-10.51-15.25-8.94-20.09 18.24-6 19-11-14.68-11.21-14.68-16.35Z"/><rect x="136.28" y="166.29" width="12.12" height="21.68" rx="5.18" transform="rotate(-17.39 142.349 177.12)" style="fill:#d1d3d4"/><path class="cls-7" d="M157.43 213.87h-26.14a13.35 13.35 0 0 1 9.07-10.29h.08a13.4 13.4 0 0 1 1.92-.44 13.48 13.48 0 0 1 4 0 13.4 13.4 0 0 1 1.92.44h.12a13.26 13.26 0 0 1 4 2.05 13 13 0 0 1 3 3.21c.17.25.33.5.48.76s.3.53.43.8a14.25 14.25 0 0 1 .68 1.67 13.25 13.25 0 0 1 .44 1.8Z"/><path class="cls-8" d="M160.36 167.78a1.71 1.71 0 0 1-1.15 2.11l-5.69 1.67-5.69 1.67-6.27 1.84-6.27 1.84-9.23 2.7-9.22 2.71a1.69 1.69 0 0 1-1.29-.14 1.72 1.72 0 0 1-.82-1l-.17-.57-.17-.58-.82-2.82-.83-2.81 4.75-.27 4.74-.26 18.38-5.39 18.39-5.41.22.77.23.76.46 1.59Z"/><path class="cls-7" d="m159 163.07-18.37 5.39-18.38 5.39-4.74.26-4.75.27-2 .11-2 .1-3 .17-3 .16-.91-3.08-.9-3.09a1.67 1.67 0 0 1 .14-1.28 1.64 1.64 0 0 1 1-.81l3.84-1.13 3.84-1.12 22-6.46 22-6.46a1.71 1.71 0 0 1 1.28.14 1.68 1.68 0 0 1 .81 1l.47 1.59.46 1.59 1.07 3.63Z"/><path class="cls-9" d="m161.13 164.1-.85.25-.85.25-.23-.76-.22-.77-1.06-3.62-1.07-3.63.85-.25.85-.25a2.48 2.48 0 0 1 3.07 1.68l.13.45.14.44.26.89.26.88.2.69.2.68a2.47 2.47 0 0 1-.21 1.89 2.43 2.43 0 0 1-1.47 1.18ZM114.39 180l-1 .29-1 .29a1.8 1.8 0 0 1-1.37-.14 1.84 1.84 0 0 1-.86-1.08l-.7-2.39-.7-2.39 2-.1 2-.11.83 2.81Z"/><path d="M140.44 203.56h-.08v-20.43a4 4 0 0 1 4-4 4.08 4.08 0 0 1 1.57.32 4 4 0 0 1 2.14 2.14 4.06 4.06 0 0 1 .32 1.56v20.45h-.12a13.4 13.4 0 0 0-1.92-.44 13.48 13.48 0 0 0-4 0 13.4 13.4 0 0 0-1.91.4Z" style="fill:#b3bec4"/><path class="cls-3" d="m172.29 162.82-.38.55-.41.57a16.69 16.69 0 0 0-1.6 2.5 3.44 3.44 0 0 0 0 3.55 2.76 2.76 0 0 0 .76.87c-.28.14-.54.28-.8.43s-.52.31-.77.48a5.09 5.09 0 0 1-.79-1.11 5 5 0 0 1-.48-1.24 5.36 5.36 0 0 1 .41-3.52 16.36 16.36 0 0 1 1.85-3l.39-.54.36-.53a3.31 3.31 0 0 0 .51-1.54 4.37 4.37 0 0 0-.22-1.78 3.65 3.65 0 0 0-.71-1.29 2.59 2.59 0 0 0-1.05-.74 3.67 3.67 0 0 0-2.87 0 10.24 10.24 0 0 0-2.42 1.76l-.82.7c-.28.23-.57.46-.87.67l-.26-.88-.26-.89.54-.44.6-.4a11.52 11.52 0 0 1 2.94-2.06 5.32 5.32 0 0 1 4.06 0 4.18 4.18 0 0 1 1.71 1.15 5.42 5.42 0 0 1 1.12 2 6.08 6.08 0 0 1 .28 2.56 5 5 0 0 1-.82 2.17Z"/><path d="M162.14 218.63h-35.51v-1.93a2.82 2.82 0 0 1 .82-2 2.85 2.85 0 0 1 2-.83h29.85a2.83 2.83 0 0 1 2.83 2.83v1.93Z" style="fill:#cbd2d6"/><path style="fill:#bac4c9;mix-blend-mode:multiply" d="m159.51 164.9-18.04 5.29-18.04 5.29-4.74.26-4.75.27h-.01l-.35.02-.35.02-1.63.08-1.64.09-.35.02-.36.02-.24-.83-.24-.84 1.98-.1 1.99-.11 4.75-.27 4.74-.26 18.38-5.39 18.37-5.39.23.77.22.76.04.15.04.15z"/><path class="cls-9" d="M144.36 185.64a2.26 2.26 0 0 1 0-4.52 2.29 2.29 0 0 1 1.6.66 2.27 2.27 0 0 1 0 3.2 2.29 2.29 0 0 1-1.6.66Z"/><path class="cls-7" d="M140.86 140.88a23.12 23.12 0 0 1-4.59-.46 23.39 23.39 0 0 1-4.28-1.33 23.66 23.66 0 0 1-3.87-2.1 22.69 22.69 0 0 1-3.38-2.79 23.06 23.06 0 0 1-2.78-3.37 22.72 22.72 0 0 1-3.43-8.15 23.23 23.23 0 0 1-.46-4.6v-6.15h45.59v6.15a23.23 23.23 0 0 1-.46 4.6 23.89 23.89 0 0 1-1.33 4.28 23.09 23.09 0 0 1-8.26 10 22.72 22.72 0 0 1-8.15 3.43 23.23 23.23 0 0 1-4.6.49Z"/><path class="cls-9" d="M149.71 112.92v18l.46-.19.45-.21.44-.24.42-.26c.14-.09.28-.18.41-.28l.4-.3.37-.32.36-.34c.21-.22.42-.44.61-.67s.37-.48.54-.73a8.81 8.81 0 0 0 .47-.77 9 9 0 0 0 .4-.83 8.89 8.89 0 0 0 .32-.86 9.32 9.32 0 0 0 .23-.91c.06-.3.11-.62.14-.93s.05-.64.05-1v-9.16h-6.07ZM127.05 112.92v10.16c0 .35.08.63.15.93a9.32 9.32 0 0 0 .23.91c.09.29.2.58.31.86s.26.56.4.83.3.52.47.77.35.49.55.73.39.45.6.67l.36.34.38.32.39.3.41.28.42.26.44.24.45.21.47.19v-18H127Z"/><path d="M141.42 112.92h-8.29v18l.39.14.4.12.41.11.42.09.42.07.43.05H147.23l.43-.05.42-.07.42-.09.41-.11a2.64 2.64 0 0 0 .4-.12l.4-.14v-18h-8.29Z" style="fill:#024e71"/><path class="cls-3" d="M141.42 118.86a4.55 4.55 0 0 0-.92.1 4.77 4.77 0 0 0-.86.26 5.19 5.19 0 0 0-.77.42 5.33 5.33 0 0 0-.68.56 4.6 4.6 0 0 0-.56.68 5.19 5.19 0 0 0-.42.77 5 5 0 0 0-.26.86 4 4 0 0 0-.1.92 4.05 4.05 0 0 0 .1.92 5 5 0 0 0 .26.86 4.64 4.64 0 0 0 1 1.45 4.54 4.54 0 0 0 .68.55 3.84 3.84 0 0 0 .77.42 4.1 4.1 0 0 0 .86.27 4.56 4.56 0 0 0 .92.09 4.7 4.7 0 0 0 .92-.09 4.2 4.2 0 0 0 .85-.27 3.66 3.66 0 0 0 .78-.42 4.5 4.5 0 0 0 1.21-1.21 3.84 3.84 0 0 0 .42-.77 4.29 4.29 0 0 0 .27-.86 4.7 4.7 0 0 0 .09-.92 4.63 4.63 0 0 0-.09-.92 4.29 4.29 0 0 0-.27-.86 3.84 3.84 0 0 0-.42-.77 4.05 4.05 0 0 0-.56-.68 5.23 5.23 0 0 0-.67-.56 4.84 4.84 0 0 0-.78-.42 4.92 4.92 0 0 0-.85-.26 4.71 4.71 0 0 0-.92-.12Z"/><path d="M165.23 115h-47.92a2.62 2.62 0 0 1-.57-.06 3.09 3.09 0 0 1-.54-.17 2.77 2.77 0 0 1-.48-.26 2.86 2.86 0 0 1-.43-.35 3.47 3.47 0 0 1-.34-.42 2.62 2.62 0 0 1-.27-.49 3.27 3.27 0 0 1-.17-.53 3.68 3.68 0 0 1-.05-.58V108a3.45 3.45 0 0 1 .05-.57 3.09 3.09 0 0 1 .17-.54 2.27 2.27 0 0 1 .27-.48 2.93 2.93 0 0 1 .34-.43 3.65 3.65 0 0 1 .43-.35 2.77 2.77 0 0 1 .48-.26 3.09 3.09 0 0 1 .54-.17 3.45 3.45 0 0 1 .57 0h47.92a3.66 3.66 0 0 1 .57 0 3.27 3.27 0 0 1 .53.17 2.54 2.54 0 0 1 .49.26 3.54 3.54 0 0 1 .42.35 2.44 2.44 0 0 1 .35.43 3.72 3.72 0 0 1 .27.48 3.08 3.08 0 0 1 .16.54 2.62 2.62 0 0 1 .06.57v4.07a2.78 2.78 0 0 1-.06.58 3.24 3.24 0 0 1-.16.53 4.67 4.67 0 0 1-.27.49 3 3 0 0 1-.77.77 2.54 2.54 0 0 1-.49.26 3.27 3.27 0 0 1-.53.17 2.76 2.76 0 0 1-.57.13Z" style="fill:#cdd4d8"/><path class="cls-9" d="M162.86 106.12H112.85l.08.24.08.24.08.24.08.23H169.81l.07-.12.07-.11.07-.12.07-.12.07-.12.07-.12.07-.12.07-.12h-7.51z"/><path style="fill:#085072" d="M113.17 107.07H169.81V109.83H113.17V107.07z"/><path class="cls-8" d="M114.61 91.23h54a2.35 2.35 0 0 1 .54.06 2.24 2.24 0 0 1 .5.16 2.51 2.51 0 0 1 .45.26 3.09 3.09 0 0 1 .39.33 4 4 0 0 1 .31.41 2.52 2.52 0 0 1 .22.47 2.12 2.12 0 0 1 .13.51 1.94 1.94 0 0 1 0 .54l-.1 1.52L171 97l-.1 1.52-.1 1.52-.1 1.52-.11 1.51-.1 1.52-.1 1.52h-57.53l-.11-1.52-.1-1.52-.1-1.51-.1-1.52-.1-1.52-.1-1.52-.11-1.52L112 94a3.21 3.21 0 0 1 0-.54 2.72 2.72 0 0 1 .13-.51 2.56 2.56 0 0 1 .23-.47 2.94 2.94 0 0 1 .31-.41 3.09 3.09 0 0 1 .39-.33 2.82 2.82 0 0 1 .44-.26 2.16 2.16 0 0 1 .51-.16 2.35 2.35 0 0 1 .6-.09Z"/><path d="M130.63 99.07a2.91 2.91 0 0 0-.06-.6 3.06 3.06 0 0 0-.17-.56 3.15 3.15 0 0 0-.28-.51 2.61 2.61 0 0 0-.81-.81 3.15 3.15 0 0 0-.51-.28 3.31 3.31 0 0 0-.56-.17 3 3 0 0 0-.6-.06 3.08 3.08 0 0 0-.61.06 3.62 3.62 0 0 0-.56.17 3.15 3.15 0 0 0-.51.28 3.83 3.83 0 0 0-.44.36 3.16 3.16 0 0 0-.37.45 3.1 3.1 0 0 0-.27.51 2.45 2.45 0 0 0-.18.56 3 3 0 0 0 0 1.2 2.7 2.7 0 0 0 .18.57 3.1 3.1 0 0 0 .27.51 3.75 3.75 0 0 0 .37.44 3 3 0 0 0 .44.36 3.15 3.15 0 0 0 .51.28 2.81 2.81 0 0 0 .56.18 3.08 3.08 0 0 0 .61.06 3 3 0 0 0 .6-.06 2.62 2.62 0 0 0 .56-.18 3.15 3.15 0 0 0 .51-.28 3.09 3.09 0 0 0 .45-.36 4.94 4.94 0 0 0 .36-.44 3.15 3.15 0 0 0 .28-.51 3.43 3.43 0 0 0 .17-.57 2.91 2.91 0 0 0 .06-.6Z" style="fill:#ffe600"/><path class="cls-3" d="M120.06 98.52h-.33l-.14.07-.12.11a.58.58 0 0 0-.1.12.64.64 0 0 0-.08.14.75.75 0 0 0-.05.16.69.69 0 0 0 0 .33.75.75 0 0 0 .05.16.64.64 0 0 0 .08.14.58.58 0 0 0 .1.12l.12.1.14.08h.65l.14-.08a.4.4 0 0 0 .12-.1.63.63 0 0 0 .11-.12.61.61 0 0 0 .07-.14.75.75 0 0 0 .05-.16.69.69 0 0 0 0-.33.75.75 0 0 0-.05-.16.61.61 0 0 0-.07-.14.63.63 0 0 0-.11-.12.43.43 0 0 0-.12-.11.61.61 0 0 0-.14-.07h-.16Z"/><path d="M168.63 91.24h-27.11V115h23.77a2.6 2.6 0 0 0 .56-.06 2.49 2.49 0 0 0 .53-.16 3.1 3.1 0 0 0 .47-.26 2.72 2.72 0 0 0 .42-.34 4.35 4.35 0 0 0 .34-.41 2.77 2.77 0 0 0 .26-.48 3.13 3.13 0 0 0 .16-.52 2.69 2.69 0 0 0 .06-.57v-2.33h1.72v-2.75l.07-.12.07-.12.07-.12.08-.12.07-.12.07-.12.07-.11.07-.12.1-1.52.1-1.52.1-1.52.1-1.52.11-1.52L171 97l.1-1.51.1-1.52a2.51 2.51 0 0 0 0-.55 2.39 2.39 0 0 0-.13-.51 2.43 2.43 0 0 0-.22-.46 2.15 2.15 0 0 0-.32-.41 2.05 2.05 0 0 0-.38-.34 2.51 2.51 0 0 0-.45-.26 2.91 2.91 0 0 0-.5-.16 2.48 2.48 0 0 0-.57-.04Z" style="fill:#c9d1d5;mix-blend-mode:multiply"/><path class="cls-5" d="M140.88 122.23a1.26 1.26 0 0 1 1-.06 1.25 1.25 0 1 1-1 .06Z"/></g></g></g></svg>