<svg xmlns="http://www.w3.org/2000/svg" viewBox="0 0 439.37 328.82">
    <defs>
        <style>.cls-2,.cls-3,.cls-6{mix-blend-mode:multiply}.cls-3{fill:#aab9cc}.cls-4{fill:#d2d8dc}.cls-5,.cls-6{fill:#003a5d}.cls-7{fill:#00a2de}.cls-8{fill:#ffe600}.cls-9{fill:#c3ccd1}</style>
    </defs>
    <g style="isolation:isolate">
        <g id="Layer_1" data-name="Layer 1">
            <g class="cls-2">
                <path class="cls-3" d="M195 282.94a6.83 6.83 0 0 0 6.84-6.83V51.76a6.83 6.83 0 0 0-6.84-6.83H74.84A6.83 6.83 0 0 0 68 51.76v224.35a6.83 6.83 0 0 0 6.83 6.83h7v6.85h-9.55a3.09 3.09 0 0 0-2.26 1 3.6 3.6 0 0 0 0 4.83 3.09 3.09 0 0 0 2.26 1h125.3a3.05 3.05 0 0 0 2.26-1 3.57 3.57 0 0 0 0-4.83 3.05 3.05 0 0 0-2.26-1h-9.52v-6.85h7Z"/>
            </g>
            <path class="cls-4" d="M188.06 291.75H81.81v-14.03h106.25v14.03z"/>
            <path class="cls-5" d="M195 44.93H74.84A6.83 6.83 0 0 0 68 51.76v224.35a6.83 6.83 0 0 0 6.83 6.83H195a6.83 6.83 0 0 0 6.84-6.83V51.76a6.83 6.83 0 0 0-6.84-6.83Z"/>
            <path class="cls-6" d="M201.86 80.77H68.01v-5.46H201.86v5.46zM201.86 104.08H68.01V98.61H201.86V104.08zM201.86 127.39H68.01V121.92H201.86V127.39zM201.86 150.7H68.01V145.23H201.86V150.7z"/>
            <path class="cls-7" d="M113.8 152.81H68.01v-9.69h45.79v9.69zM113.8 129.5H68.01v-9.69h45.79v9.69z"/>
            <path class="cls-8" d="M113.8 106.19H68.01V96.5h45.79v9.69z"/>
            <path class="cls-7" d="M113.8 82.88H68.01V73.2h45.79v9.68z"/>
            <path class="cls-5" d="M68 264.51v11.6a6.83 6.83 0 0 0 6.83 6.83H195a6.83 6.83 0 0 0 6.84-6.83v-11.6H68Z"/>
            <path class="cls-9" d="M197.58 296.62H72.28a3.09 3.09 0 0 1-2.26-1 3.6 3.6 0 0 1 0-4.83 3.09 3.09 0 0 1 2.26-1h125.3a3.05 3.05 0 0 1 2.26 1 3.57 3.57 0 0 1 0 4.83 3.05 3.05 0 0 1-2.26 1Z"/>
            <path class="cls-3" d="M195 44.93h-60.07v238H195a6.83 6.83 0 0 0 6.84-6.83V51.76a6.83 6.83 0 0 0-6.84-6.83Z"/>
            <g class="cls-2">
                <path class="cls-3" d="M373.25 252.93a5 5 0 0 0 5-5V83.61a5 5 0 0 0-5-5h-88a5 5 0 0 0-5 5v164.31a5 5 0 0 0 5 5h5.11v5h-7a2.28 2.28 0 0 0-1.66.73 2.64 2.64 0 0 0 0 3.54 2.26 2.26 0 0 0 1.66.74h91.77a2.26 2.26 0 0 0 1.66-.74 2.64 2.64 0 0 0 0-3.54 2.28 2.28 0 0 0-1.66-.73h-7v-5h5.11Z"/>
            </g>
            <path class="cls-4" d="M368.14 259.38h-77.81V249.1h77.81v10.28z"/>
            <path class="cls-5" d="M373.25 78.61h-88a5 5 0 0 0-5 5v164.31a5 5 0 0 0 5 5h88a5 5 0 0 0 5-5V83.61a5 5 0 0 0-5-5Z"/>
            <path class="cls-6" d="M378.25 104.86h-98.03v-4.01h98.03v4.01zM378.25 121.93h-98.03v-4.01h98.03v4.01zM378.25 139h-98.03v-4h98.03v4zM378.25 156.07h-98.03v-4h98.03v4z"/>
            <path class="cls-7" d="M313.76 157.62h-33.54v-7.1h33.54v7.1zM313.76 140.54h-33.54v-7.09h33.54v7.09z"/>
            <path class="cls-8" d="M313.76 123.47h-33.54v-7.09h33.54v7.09z"/>
            <path class="cls-7" d="M313.76 106.4h-33.54v-7.09h33.54v7.09z"/>
            <path class="cls-5" d="M280.22 239.43v8.49a5 5 0 0 0 5 5h88a5 5 0 0 0 5-5v-8.49h-98Z"/>
            <path class="cls-9" d="M375.12 263h-91.77a2.26 2.26 0 0 1-1.66-.74 2.64 2.64 0 0 1 0-3.54 2.28 2.28 0 0 1 1.66-.73h91.77a2.28 2.28 0 0 1 1.66.73 2.64 2.64 0 0 1 0 3.54 2.26 2.26 0 0 1-1.66.74Z"/>
            <path class="cls-3" d="M373.25 78.61h-44v174.32h44a5 5 0 0 0 5-5V83.61a5 5 0 0 0-5-5Z"/>
            <path class="cls-7" d="M264.28 167.37a22.71 22.71 0 0 0-39.84-13.22l3.89 5.16a16.44 16.44 0 0 1 29.65 8v.08h-5.21L261 178.8l8.25-11.43ZM241.54 184.81a16.46 16.46 0 0 1-16.36-14.75V170h5.22l-8.26-11.43-8.23 11.43h5a22.71 22.71 0 0 0 39.84 13.22l-3.92-5.22a16.44 16.44 0 0 1-13.29 6.81Z"/>
        </g>
    </g>
</svg>