<svg xmlns="http://www.w3.org/2000/svg" viewBox="0 0 528.55 268.19"><defs><linearGradient id="linear-gradient" x1="156.77" y1="144.92" x2="357.23" y2="144.92" gradientUnits="userSpaceOnUse"><stop offset="0" stop-color="#fff" stop-opacity="0"/><stop offset="1" stop-color="#059ad6"/></linearGradient><style>.cls-2{fill:none;stroke:#66c3e9;stroke-miterlimit:10}.cls-3{fill:#003a5d}.cls-7{fill:#009bdb}.cls-12{fill:#c1cbcf}.cls-16{fill:#f2f4f5}</style></defs><g style="isolation:isolate"><g id="Layer_2" data-name="Layer 2"><g id="Layer_1-2" data-name="Layer 1"><path class="cls-2" d="m19.54 74.33.77.77h1.2l2.07-2.06v-1.73h-1.01l-3.03 3.02zM50.03 81.53v1.89l1.35 1.36h1.11v-2.46l-.78-.79h-1.68zM1.24 66.67l-.74.75v.71h1.81l.7-.7-.75-.76H1.24zM423.9 135.51v1.63l1.04 1.03 2.02-2.03v-2.58h-1.11l-1.95 1.95zM411.83 144.71v-1.33h-2.27l-1.38 1.38v1.38l.52.52h1.18l1.95-1.95zM225.53 51.72h-9.82l-2.56 2.56 5.33 5.33h5.15l4.89-4.9-2.99-2.99zM402.84 175.78h-1.78l-12.56-12.56v4.32l2.71 2.7v1.83l9.52 9.52h2.11v-5.81zM429.64 186.09l-.57-.58H415.1l-1.83-1.82h-10.5l2.96 2.96h23.35l.56-.56zM239.67 83.19v-5.41h-2.64l-2.86 2.85v5.08h2.98l2.52-2.52zM420.01 159.89l.45.44 2.67-2.68v-1.55l-3.12 3.12v.67zM412.1 178.85h6.01l1.58-1.58v-9.12l2.99-2.99v-1.57h-1.81l-1.77-1.78-12.02 12.02 5.02 5.02zM502.76 231.95l1.28 1.27v6.11l1.21 1.21 4.44-4.44-6.93-6.93v2.78zM260.64 104.66v3.65l1.58 1.58 1.41-1.4v-4.32l-1.25-1.25-1.74 1.74zM283.88 115.22l-.68.68.61.6h2.22l.54-.54-.75-.74h-1.94zM365.93 158.89v3.76l1.63 1.63 1.37-1.36v-2.98l-2.03-2.02-.97.97zM460.65 243.21l1.27 1.26h2.04l1.44-1.44v-3.48h-4.75v3.66zM469.48 181.67h-3.63v.67l.52.52h3.51l3.31-3.3-.8-.8-2.91 2.91zM475.32 181.69v1.03l1.15 1.14h.86l.4-.4v-.5l-1.27-1.27h-1.14zM493.19 207.23l-2.11-2.11h-.94v.86l2 2h1.05v-.75zM429.24 188.2v1.05h.75l3.65-3.65h-1.8l-2.6 2.6zM462.46 186.48l2.77 2.77h3.85l-12.42-12.42h-11.28l-2.2-2.2h-2.78v2.39l2.75 2.75h4.89l3.25 3.24v3.47h11.17zM435.55 178.18l.73.73h2.56l.89-.89-.64-.64h-2.73l-.81.8zM422.66 188.66l.59.59h1.65l.73-.73-.52-.52h-1.8l-.65.66zM434.71 170.22v1.43l1.87 1.88.96-.95v-.78l-1.59-1.58h-1.24zM466.29 28.11l-2.74-2.73H449.54v1.11l1.63 1.62h15.12zM273.41 21.99l3.32-3.31h4.7l6.72-6.72h-24.12v4.27l5.77 5.76h3.61zM332.51 40.11l-2.12-2.12v-1.92l9.92-9.92h6.64l2.43-2.43h-11.63L324.2 37.27l2.85 2.84h5.46zM492.49 249.02l1.08 1.07h2.47l7.29-7.28v-2.69h-1.93l-8.91 8.9zM311.83 212.26h3.91l3.4-3.41v-6.86l2.48-2.48v-9.18l-9.79 9.79v12.14zM141.04 144.78h5.28l1.39-1.38-.99-.98h-3.25l-1.85-1.86h-5.82l-3.89-3.88h-7.43l-1.94 1.94H130.6l3.62 3.62h4.27l2.55 2.54zM132.28 144.67l.43.43h2.59v-.42l-.53-.54h-2.49v.53zM148.82 144.49l.61.61h1.91v-.6l-.76-.76h-1.76v.75zM126.22 55.68h-1.53l-1.86-1.86-3.73 3.73 2.21 2.21h2.17l.81-.82h5.2l-3.27-3.26zM76.17 27.63h15.38v-1.88l-.83-.82h-.91l-2-2-2.48 2.48H83.7l-1.96-1.96h-2.67l-2.9 2.89v1.29zM110.33 23.56l1.48 1.48v2.8l1.38 1.37h15.55l1.93-1.93-.95-.95h-13l-5.11-5.12h-6.36v1.16l1.2 1.19h3.88zM86.73 18.34v-1.92h-4.07l-2.01 2v2.37h3.63l2.45-2.45zM76.91 20.97v-1.34H73.5l-5.75 5.75h4.74l4.42-4.41zM136.78 49.72v-1.98l-.67-.67h-1.76l-.95.96v1.01l.67.68h2.71zM101.67 18.46v-.91l-1.44-1.43h-3.35l-2.55-2.55h-1.49l-1.57 1.58 3.31 3.31h7.09zM109.03 28.76l.77-.77v-.72l-.45-.45h-3.13l-1.02 1.02.92.92h2.91zM215.62 32.79l2.96-2.97v-11.5l12.4-12.39-1.61-1.61h-68.35l-8.93 8.93h-6.84l-4.58 4.57 6.85 6.85h13.5l7.92 7.92V54.7l13.62 13.63 21.52-21.52h6.54l5-5v-9.02zM153.58 89.5l1.32 1.31h1.9l-1.85-1.86h-1.37v.55zM95.3 22.08l-.57.57v1.33l2.04 2.03h1.09l1.46 1.46h3.1l.82-.82v-2.98h-6.35l-1.59-1.59z"/><path class="cls-2" d="m130.29 23.39 16.97-16.97H154l3.6-3.6L155.28.5h-25.71l-3.67 3.67h-12.71l-7.3 7.3 11.92 11.92h12.48zM459.23 83.26l-.9-.9-.98.97v5.84l-.64.64v2.97l2.52-2.53v-6.99zM297.41 117.08l.88-.88-.4-.4h-1.94l-.68.68.6.6h1.54zM454.1 108.83l-6.96 6.96h-4.12l-4.56 4.56v2.06l1.78 1.78 4.72-4.73h4.48l6.6-6.6v-6.68l6.2-6.2h-4.63l-3.51 3.51v5.34zM456.71 96.12h1.4v-.9l-1.4-1.4v2.3zM124.28 62.13h1.34l1.63-1.62h-2.14l-.83.83v.79zM421.76 179.02l2.77 2.77 1.62-1.62v-5.58l1.54-2.1h1.87l1.45-1.46h-5.13l-4.12 4.12v3.87zM426.96 149.31v-5.35h-2.87v7.58l3.57 3.57v6.3l3.41 3.41 1.96-1.97v-7.47l-1.23-1.23-4.84-4.84zM130.83 61.78h-.52l-.83.83v.8h1.35v-1.63zM74 38.48l3.62 3.62h19.76l-5-5v-3.3H79.15l-3.17-3.17h-8.26l-4.34 4.34 3.5 3.51H74zM100.38 30.45l-3.67 3.67 4.95 4.94 2.91-2.91v-4.04l-1.66-1.66h-2.53z"/><path class="cls-2" d="M524.32 49.47h-4.83l-5.74-5.74h-28.24l-5.9-5.91h-40.76l-6.62-6.62h-73.56L345.91 44H332l-3.73 3.73h-10.16l-10.45 10.41h-6l-5-5v-3.3H300l2.79 2.79h3.32l2.33-2.33-8-8h-22.83l-20.95 20.93v5.29l3.74 3.75 3.82-3.82 3 3v5.87h2.65l4.09-4.09v-9.56L284.65 53v4.31L279.88 62v13.83L276 79.71l-9.38.05L262.9 76l-14.26 14.3h-5.07l-1.81 1.81 4.76 4.77v4.82H235v8.74l4.67 4.66v2.9l-15.56 15.56v20l12 12h26.08v10.08l5.54 5.55v22.11l3.76 3.76v15.57l6.29 6.29 2.16-2.15H287l11-11.05v-10.8l8.07-8.08v-18.71l14.71-14.7v-2.73l2.45-2.45V155h-4.7l-1.25 1.25h-5.55v-3l-9.27-9.25v-6.7l-4.25-4.3v-4.33l7.82 7.82v4.63l5.88 5.88v6h5.18l3.74-3.74h5.77l10.3-10.3-6.78-6.78-3.4 3.4-7.42-7.42v-5l7.22 7.22h5.17l2.69 2.7h11.34l9.59 9.59V149l3.86 3.85v4.09l3.52 3.53 3.73-3.73v-6.25l11.26-11.27h3.61l5.21 5.21V147l5.09 5.1v8.49l2.76 2.76v2.27l4.65 4.68v-5.64l-5.22-5.22v-5.07l1.95-2 7 7 5.06-5v-5.07l-4.45-4.45v-2.5l1.47-1.48H413l2.72-2.71h2.49l5.72-5.72v-3.86l1.54-1.55v-6.61l-2.87-2.88 4.5-4.5v-.54h-4.33l-1.79-1.78 2.3-2.3H429l4.6 4.58v7.39l4.34-4.34v-4.1l-2.84-2.84 6.51-6.51h2.52l9.92-9.91v-6.51l1.38-1.38v-2.49l-2-2h-4.48l-1.65-1.65 9.9-9.89h17.3l4.92-4.93h9.75l-11.63 11.55v12.12l8.87-8.86V71l4.87-4.87h11l8.36-8.36v-2.7l2.9-2.9H516l4 4h4.71l3.13-3.17Zm-223.84 70.42-2.4 2.4h-28.9l-7.05-7.06h-18.28l14.8-14.8h4.51l8.73 8.73v1.17l-.67.67h-4.46l3.37 3.37 1.13-1.13v-1.46l2.24-2.24v-1.82h2.22l-8.44-8.44v-1.87h1.44l5.92 5.92h1l1.2 1.2v3.28l5.3 5.3 1.9-1.89v-1.34l-2.1-2.09 1.85-1.85 8.37 8.36h8.32Zm9.52-14.52h-7.72l-1.76-1.76h-5.4l-3.12 3.08-3.4-3.4v-2.77l3.64-3.64h11.35l6.37 6.36Zm18.91 5.55-4.14 4.14-4.37-4.36V105l-3.78-3.78v-4.34h9.5l-3.74 3.74 6.53 6.52Z"/><path class="cls-2" d="m243.4 80.72-2.16 2.16v4.82h7.19l2.44-2.43v-3.03l-4.91-4.91v-5.89h-6.54v3.43l3.98 3.98v1.87zM392.12 14.9l2.5 2.49h4.61l2.45-2.45-1.45-1.45h-5.34l-4.01-4h-6.74v2.92l2.5 2.49h5.48zM460.85 195.41l-4.68-4.69-1.21 1.21v5.64l-2.64 2.65-4.53-4.53v-4.29h-10.06l-12.47 12.47h-5.3l-5.46 5.46v18.32h13.71l3.84-3.85h11.88l9.72 9.72 1.72 1.72h8.48l8.78-8.78v-13.61l-11.78-11.79v-5.65zM183.19 177.26l-13.89-13.89h-5.9l-7.69-7.7h-18.32l-2.6 2.61h-7.89l-2.37-2.38v-7.84h-6.41v-3.04l1.52-1.52v-4.54h-3.05l-4.44 4.44h-4.19l-4.07-4.07v-9.34l4.64-4.64h16l1.23 1.24v3.9l3 3 .93-.92v-3.75l-1.46-1.46v-5.15l8.19-8.19v-2.56l13.76-13.76v3.48h3.79l5.17-5.17v-2.36l-3.26 3.26h-1.55l-1.53-1.53v-3.86h-6.36l3.33-3.33h13.24l-2.32 2.32v3.12h10.07l-5.03-5.04.19-6.62-14.24-14.25-2.71 2.71-9.19-9.19h-6.48v15.84l-2.75 2.74v4.75l-8.24-8.24h-5.74l-7.54-7.54v-3.74l12.95-12.94h2.67l2.73-2.74v-7.6h5.73l7.96 7.96-4.31 4.3h-3.02l-1.67 1.67 1.49 1.49h7.5l5.65 5.64h4.91v-6l-2.92-2.92v-2.56h.9l3.09 3.09h3.13V50.7l-10.43-10.43h-3.34l-2.78-2.78-5.51-5.51h-15.81l-2.49 2.49v2.97l6.43 6.43v1.72l-2.66 2.67-8.78-8.77v-3.85l3.82-3.82v-1.31h-7.01l-.78.79v10.19l-3 3H31.07l-4.72-4.72H9.21l-6.8 6.8v10.66h7.83l-2.76 2.75h-2.8l-2.27 2.27v1.72l10.06 10.06-5.61 5.61h5.79l11.51-11.5h16.39l23.77 23.77v18.92l11.7 11.71v5.03l9.54 9.54h.72v-2.34l-7.3-7.3v-3.89l13.05 13.06v3.37l8.2 8.2h11.39l13.11 13.11h3.54l2.15-1.9h2.11l.62.62v17.11l-1.68 1.68h-3.75v3.11l4.44 4.43v3.32l9.61 9.61v29.75l-3.12 3.11v31.47l4.06 4.06h7.65l1.4-1.4-.41-.41h-1.83l-2.49-2.49v-8.07l3.75-3.74v-7.33l25.91-25.91v-4.06l14.14-14.14v-7.43l6.1-6.1v-2.92l-6.43-6.43h-7.31z"/><circle class="cls-3" cx="415.89" cy="122.84" r="4.24"/><circle class="cls-3" cx="89.23" cy="92" r="4.24"/><path d="M274.61 228.25v-20.66H237v20.66a8.13 8.13 0 0 1-.16 1 8.59 8.59 0 0 1-.79 2.18 6 6 0 0 1-1.9 2.19 6.14 6.14 0 0 1-3.51 1H281a6.14 6.14 0 0 1-3.51-1 6 6 0 0 1-1.9-2.19 8.59 8.59 0 0 1-.79-2.18 6.84 6.84 0 0 1-.19-1Z" style="fill:#bdc7cc"/><path d="M287.94 234.6h-65.76a3.06 3.06 0 0 0-2.17.9 3.06 3.06 0 0 0-.89 2.16H291a3.06 3.06 0 0 0-.89-2.16 3.13 3.13 0 0 0-1-.66 3.08 3.08 0 0 0-1.17-.24Z" style="fill:#cfd6da"/><path style="mix-blend-mode:multiply;fill:#a9b6bc;opacity:.55" d="M237.02 214.39h37.6v12.12h-37.6v-12.12z"/><path class="cls-3" d="M360.15 215.21H151.49a3 3 0 0 1-1.15-.23 3.23 3.23 0 0 1-.94-.65 3.14 3.14 0 0 1-.63-1 3 3 0 0 1-.23-1.17V84.45a3 3 0 0 1 .86-2.13 2.88 2.88 0 0 1 .94-.65 3 3 0 0 1 1.15-.24h208.66a3 3 0 0 1 1.15.24 2.88 2.88 0 0 1 .94.65 2.92 2.92 0 0 1 .63 1 3.06 3.06 0 0 1 .23 1.18v127.7a3 3 0 0 1-.23 1.17 3 3 0 0 1-.63 1 3.23 3.23 0 0 1-.94.65 3 3 0 0 1-1.15.19Z"/><path class="cls-7" d="M155.56 202.79H357.35V87.84H155.56V202.79z"/><path class="cls-3" d="M259.28 208.59a3.52 3.52 0 0 0-.27-1.34 3.47 3.47 0 0 0-.75-1.1 3.4 3.4 0 0 0-2.44-1 3.45 3.45 0 0 0-3.18 2.11 3.37 3.37 0 0 0 0 2.69 3.28 3.28 0 0 0 .74 1.1 3.44 3.44 0 0 0 2.44 1 3.4 3.4 0 0 0 2.44-1 3.47 3.47 0 0 0 .75-1.1 3.53 3.53 0 0 0 .27-1.36ZM357.35 95.55H155.57v-7.67h201.78v7.67z"/><path d="m156.77 87.81 7.47 7.19 7.48 7.22 7.47 7.21 7.48 7.22L208.8 138l22.2 21.37 22.14 21.33 22.11 21.3h82V87.81H156.77Z" style="fill:url(#linear-gradient)"/><rect x="226.35" y="135.25" width="55.62" height="32.05" rx="3.16" style="fill:#a1daf2"/><path class="cls-3" d="M247.68 143.26v16a.28.28 0 0 0 .42.23l12.41-8a.27.27 0 0 0 0-.46l-12.41-8a.27.27 0 0 0-.42.23Z"/><path d="M275.3 81.77h88v64.84h-83.6a4.4 4.4 0 0 1-4.4-4.4V81.77Z" style="fill:#2eade1;opacity:.69;mix-blend-mode:multiply"/><path class="cls-7" d="M402.49 76.26H288.92V5.58H402.49v70.68z"/><path d="M402.49 127.72a3.21 3.21 0 0 1-3.21 3.2H292.13a3.21 3.21 0 0 1-3.21-3.2V76.26h113.57v51.46Z" style="fill:#eff2f3"/><path class="cls-12" d="M311.04 93.71h75.31V88.17h-75.31V93.71zM311.04 104.43h75.31V98.89h-75.31V104.43zM311.04 115.84h75.31V110.3h-75.31V115.84z"/><path d="M346.09 17.39c-18.77 0-35.4 11.29-45.61 22.43a2.71 2.71 0 0 0 0 3.68c10.21 11.14 26.84 22.43 45.61 22.43s35.4-11.29 45.62-22.43a2.73 2.73 0 0 0 0-3.68c-10.22-11.14-26.84-22.43-45.62-22.43Z" style="fill:#f4f5f5"/><circle cx="346.09" cy="41.66" r="22.66" style="fill:#698b9f"/><path class="cls-16" d="M353.85 20.33a22.55 22.55 0 0 0-28.68 29.6l14.3-5.36a5.89 5.89 0 0 0 3.78-4.87c.57-5.05 2.75-14.27 10.6-19.37Z" style="opacity:.11"/><circle class="cls-3" cx="346.09" cy="41.52" r="7.26"/><circle class="cls-16" cx="351.72" cy="37.1" r="2.19" style="opacity:.95"/><circle class="cls-16" cx="354.65" cy="34.25" r="4.04" style="opacity:.54"/><circle class="cls-3" cx="437.54" cy="206.19" r="4.24"/><circle class="cls-3" cx="130.04" cy="102.45" r="4.24"/><circle class="cls-3" cx="262.89" cy="59.16" r="4.24"/><path class="cls-2" d="M172.54 238.43h173.3"/></g></g></g></svg>