<svg xmlns="http://www.w3.org/2000/svg" xmlns:xlink="http://www.w3.org/1999/xlink" viewBox="0 0 494.75 282.7">
	<defs>
		<linearGradient id="linear-gradient" x1="252.39" y1="142.9" x2="267.42" y2="142.9" gradientUnits="userSpaceOnUse">
			<stop offset="0" stop-color="#f3ea28" />
			<stop offset=".33" stop-color="#f4e726" />
			<stop offset=".6" stop-color="#f6dd20" />
			<stop offset=".84" stop-color="#f9cc16" />
			<stop offset=".9" stop-color="#fac613" />
			<stop offset="1" stop-color="#a0a3a2" />
		</linearGradient>
		<linearGradient id="linear-gradient-2" x1="252.39" y1="143.02" x2="267.42" y2="143.02" />
		<linearGradient id="linear-gradient-3" x1="252.39" y1="142.96" x2="267.42" y2="142.96" />
		<linearGradient id="linear-gradient-4" x1="252.39" y1="143.05" x2="267.42" y2="143.05" />
		<linearGradient id="linear-gradient-5" x1="252.39" y1="142.87" x2="267.42" y2="142.87" />
		<linearGradient id="linear-gradient-6" x1="252.39" y1="143.06" x2="267.42" y2="143.06" />
		<linearGradient id="linear-gradient-7" x1="252.39" y1="142.99" x2="267.42" y2="142.99" />
		<linearGradient id="linear-gradient-8" x1="252.39" y1="142.94" x2="267.42" y2="142.94" />
		<linearGradient id="linear-gradient-9" x1="252.39" y1="143.04" x2="267.42" y2="143.04" />
		<style>
			.cls-2{fill:none;stroke:#66c3e9;stroke-miterlimit:10}.cls-7{fill:#003a5d}.cls-10,.cls-9{mix-blend-mode:multiply}.cls-4{fill:#009bdb}.cls-5,.cls-9{fill:#96a6ae}.cls-8{fill:#dae0e3}.cls-10{fill:#cad3d6}.cls-12{fill:#ffe600}.cls-13{fill:#0d213d}.cls-14{fill:#33617e}
		</style>
	</defs>
	<g style="isolation:isolate">
		<g id="Layer_2" data-name="Layer 2">
			<g id="Layer_1-2" data-name="Layer 1">
				<path class="cls-2" d="M186.65 10.26C95.44 38.23 29.12 123.12 29.12 223.5q0 11.06 1.06 21.84h48.56a175 175 0 0 1-1.36-21.84M340.24 18.59A224.08 224.08 0 0 0 197.33 7.28M468.15 168A223.47 223.47 0 0 0 357.81 27.09M341.38 73.25a174.65 174.65 0 0 1 85.47 150.25 176.88 176.88 0 0 1-1.36 21.84H474c.7-7.19 1.07-14.47 1.07-21.84a224.62 224.62 0 0 0-2.93-36.27M254.49 48.78a174 174 0 0 1 69.72 15.5" />
				<path class="cls-2" d="M260.53 109.25a114.6 114.6 0 0 1 104 136.09h60.92a176.88 176.88 0 0 0 1.36-21.84M178 65.23a174.92 174.92 0 0 0-99.26 180.11h60.9A114.66 114.66 0 0 1 249.33 109M243 49a174.06 174.06 0 0 0-47.06 9M494.75 245.34H0" />
				<path d="M292.17 60.78a8.54 8.54 0 0 0 5.22 7.88 8.59 8.59 0 0 0 6.65 0 8.53 8.53 0 0 0 5.22-7.88 8.57 8.57 0 0 0-.67-3.33 8.47 8.47 0 0 0-1.83-2.72 8.72 8.72 0 0 0-2.76-1.84 8.59 8.59 0 0 0-6.65 0 8.72 8.72 0 0 0-2.72 1.84 8.47 8.47 0 0 0-1.83 2.72 8.57 8.57 0 0 0-.63 3.33Z" style="opacity:.2;mix-blend-mode:multiply;fill:#003a5d" />
				<path class="cls-4" d="M302.89 65.93a8.4 8.4 0 0 0 3.33-.68 8.55 8.55 0 1 0-6.65 0 8.35 8.35 0 0 0 3.32.68Z" />
				<path class="cls-5" d="M128.26 108.7a8.44 8.44 0 0 0 6-2.51 8.58 8.58 0 0 0 1.83-9.38 8.69 8.69 0 0 0-1.83-2.72 8.53 8.53 0 0 0-2.71-1.83 8.49 8.49 0 0 0-6.66 0 8.53 8.53 0 0 0-2.71 1.83 8.72 8.72 0 0 0-1.84 2.72 8.61 8.61 0 0 0 0 6.66 8.53 8.53 0 0 0 7.88 5.23Z" />
				<path class="cls-2" d="M187.32 72.1a9.73 9.73 0 0 0 9-5.94 9.71 9.71 0 0 0 0-7.58 9.74 9.74 0 0 0-5.16-5.17 9.69 9.69 0 0 0-7.57 0 9.73 9.73 0 0 0 3.78 18.69ZM349.24 32.58A9.72 9.72 0 0 0 356.11 16a9.92 9.92 0 0 0-3.11-2.11 9.78 9.78 0 0 0-7.56 0 9.78 9.78 0 0 0-5.17 5.18 9.71 9.71 0 0 0 8.95 13.51ZM469.79 187.07a9.74 9.74 0 0 0 3.78-.76 9.6 9.6 0 0 0 3.08-2.09 9.81 9.81 0 0 0 2.09-3.09 9.81 9.81 0 0 0 0-7.57 9.92 9.92 0 0 0-2.09-3.09 9.59 9.59 0 0 0-6.86-2.85 9.66 9.66 0 0 0-3.78.76 9.78 9.78 0 0 0-5.17 5.18 9.72 9.72 0 0 0 2.08 10.66 9.63 9.63 0 0 0 6.87 2.85ZM333.2 78.53a9.73 9.73 0 0 0 3.8-18.69 9.66 9.66 0 0 0-7.56 0 9.73 9.73 0 0 0 3.78 18.69ZM248.63 54.29a5.61 5.61 0 0 0 5.15-3.42 5.62 5.62 0 0 0 0-4.36 5.54 5.54 0 0 0-1.2-1.78 5.83 5.83 0 0 0-1.77-1.2 5.62 5.62 0 0 0-4.36 0 5.88 5.88 0 0 0-1.78 1.2 5.67 5.67 0 0 0-1.19 1.78 5.62 5.62 0 0 0 0 4.36 5.56 5.56 0 0 0 3 3 5.48 5.48 0 0 0 2.15.42ZM192.31 14.6a5.66 5.66 0 0 0 2.18-.44 5.39 5.39 0 0 0 1.77-1.2 5.54 5.54 0 0 0 1.2-1.78 5.62 5.62 0 0 0 0-4.36 5.54 5.54 0 0 0-1.2-1.82 5.39 5.39 0 0 0-1.77-1.2 5.62 5.62 0 0 0-4.36 0 5.39 5.39 0 0 0-1.77 1.2 5.54 5.54 0 0 0-1.2 1.78 5.62 5.62 0 0 0 0 4.36 5.54 5.54 0 0 0 1.2 1.78 5.39 5.39 0 0 0 1.77 1.2 5.66 5.66 0 0 0 2.18.48ZM255 114.74a5.57 5.57 0 0 0 2.17-.44 5.76 5.76 0 0 0 1.78-1.2 5.54 5.54 0 0 0 1.2-1.78 5.62 5.62 0 0 0 0-4.36 5.6 5.6 0 0 0-7.33-3 5.54 5.54 0 0 0-1.78 1.2 5.76 5.76 0 0 0-1.2 1.78 5.74 5.74 0 0 0 0 4.36 5.62 5.62 0 0 0 3 3 5.66 5.66 0 0 0 2.16.44ZM241 268.21a4.09 4.09 0 0 0 1.63-.33A4.14 4.14 0 0 0 244 267a4.39 4.39 0 0 0 .9-1.34 4.31 4.31 0 0 0 0-3.26 4.27 4.27 0 0 0-.9-1.34 4.34 4.34 0 0 0-1.33-.9 4.22 4.22 0 0 0-3.27 0 4.34 4.34 0 0 0-1.33.9 4.08 4.08 0 0 0-.89 1.34 4.19 4.19 0 0 0 0 3.26 4.19 4.19 0 0 0 .89 1.34 4.21 4.21 0 0 0 3 1.22ZM236.88 248.8a4.19 4.19 0 0 0 4.19-4.19 4.29 4.29 0 0 0-.33-1.64 4.19 4.19 0 0 0-7.72 0 4.29 4.29 0 0 0-.33 1.64 4.19 4.19 0 0 0 4.19 4.19ZM256.73 251.29a4.21 4.21 0 0 0 3.86-2.56 4.22 4.22 0 0 0 0-3.27 4.19 4.19 0 0 0-7.72 0 4.22 4.22 0 0 0 0 3.27 4.19 4.19 0 0 0 3.86 2.56ZM261.51 276.59a4.21 4.21 0 0 0 3.86-2.56 4.29 4.29 0 0 0 .33-1.64 4.19 4.19 0 0 0-5.82-3.86 4.06 4.06 0 0 0-1.33.9 4.16 4.16 0 0 0-1.23 3 4.29 4.29 0 0 0 .33 1.64 4.17 4.17 0 0 0 .9 1.33 4.06 4.06 0 0 0 1.33.9 4.2 4.2 0 0 0 1.63.29ZM255.52 264.22a2.29 2.29 0 0 0 .87-.17 2.17 2.17 0 0 0 .71-.48 2.34 2.34 0 0 0 .48-.71 2.31 2.31 0 0 0 0-1.74 2.61 2.61 0 0 0-.48-.71 2.15 2.15 0 0 0-.71-.47 2.12 2.12 0 0 0-.87-.18 2.07 2.07 0 0 0-.86.18 2.15 2.15 0 0 0-.71.47 2.41 2.41 0 0 0-.48.71 2.19 2.19 0 0 0 0 1.74 2.26 2.26 0 0 0 1.19 1.19 2.24 2.24 0 0 0 .86.17ZM227 259.9a2.25 2.25 0 0 0 .87-.17 2.34 2.34 0 0 0 .71-.48 2.41 2.41 0 0 0 .48-.71 2.31 2.31 0 0 0 0-1.74 2.26 2.26 0 0 0-1.19-1.19 2.29 2.29 0 0 0-1.73 0 2.26 2.26 0 0 0-1.14 1.19 2.31 2.31 0 0 0 0 1.74 2.41 2.41 0 0 0 .48.71 2.34 2.34 0 0 0 .71.48 2.24 2.24 0 0 0 .81.17ZM245.28 282.2a2.12 2.12 0 0 0 .87-.18 2.32 2.32 0 0 0 1.18-1.18 2.33 2.33 0 0 0 .18-.87 2.25 2.25 0 0 0-.18-.87 2 2 0 0 0-.48-.71 2.24 2.24 0 0 0-.7-.48 2.19 2.19 0 0 0-1.74 0 2.17 2.17 0 0 0-.71.48 2.34 2.34 0 0 0-.48.71 2.25 2.25 0 0 0-.17.87 2.32 2.32 0 0 0 .17.87 2.42 2.42 0 0 0 .48.7 2 2 0 0 0 .71.48 2.12 2.12 0 0 0 .87.18ZM232.61 277.7a2.29 2.29 0 0 0 .87-.17 2.17 2.17 0 0 0 .71-.48 2.34 2.34 0 0 0 .48-.71 2.31 2.31 0 0 0 0-1.74 2.61 2.61 0 0 0-.48-.71 2.15 2.15 0 0 0-.71-.47 2.19 2.19 0 0 0-1.74 0 2.22 2.22 0 0 0-1.18 1.18 2.19 2.19 0 0 0 0 1.74 2 2 0 0 0 .48.71 2.24 2.24 0 0 0 .7.48 2.29 2.29 0 0 0 .87.17Z" />
				<path d="M259.2 182c-2.67 0-5.36.05-8.09.05a530.91 530.91 0 0 1-60.63-3.17l32.23 37a7.78 7.78 0 0 1 1.92 5.12v24.16h24.06" style="fill:#33afe2" />
				<path class="cls-4" d="M248.69 224.38v20.81h24.07V221a7.83 7.83 0 0 1 1.91-5.12l31.72-36.44c-13.7 1.42-29.82 2.31-47.19 2.53l-9 31.53a39.43 39.43 0 0 0-1.51 10.88Z" />
				<path class="cls-7" d="m198.25 141.39-1.34-.09ZM211 142.17l-1.34-.07ZM202.19 141.66l-1.59-.1ZM219.41 142.54h-1.13ZM225.77 142.74q-2.93-.08-5.79-.18 2.86.11 5.79.18ZM206 141.9l-1.41-.09ZM215.28 142.37l-1.53-.07ZM255.4 143h-6.71c2.31.07 4.49.06 6.71 0ZM263.27 142.94q-3.06.06-6.17.09 3.11-.03 6.17-.09ZM233.71 142.94c-2.17 0-4.31-.1-6.43-.15 2.12.05 4.26.11 6.43.15ZM270.11 142.79c-2.12.05-4.26.11-6.43.15 2.17-.04 4.32-.1 6.43-.15ZM248.69 143.07h-6.7 6.7ZM240.29 143c-2.07 0-4.14-.05-6.17-.09 2.03.09 4.1.09 6.17.09ZM296.78 141.56l-1.59.1ZM300.48 141.29l-1.36.1ZM292.81 141.81l-1.44.09ZM287.7 142.1l-1.34.07ZM277.4 142.56ZM279.12 142.49h-1.14ZM283.64 142.3l-1.54.07Z" />
				<path class="cls-8" d="M219.57 142.54h.41-.57Z" />
				<path class="cls-9" d="M219.57 142.54h.41-.57Z" />
				<path class="cls-8" d="M227.28 142.79h-1.51Z" />
				<path class="cls-9" d="M227.28 142.79h-1.51Z" />
				<path class="cls-8" d="m218.28 142.49-3-.12Z" />
				<path class="cls-9" d="m218.28 142.49-3-.12Z" />
				<path class="cls-8" d="M270.11 142.79Z" />
				<path class="cls-9" d="M270.11 142.79Z" />
				<path class="cls-8" d="m213.75 142.3-2.72-.13Z" />
				<path class="cls-9" d="m213.75 142.3-2.72-.13Z" />
				<path class="cls-8" d="M263.68 142.94Z" />
				<path class="cls-9" d="M263.68 142.94Z" />
				<path class="cls-8" d="M234.12 142.94Z" />
				<path class="cls-9" d="M234.12 142.94Z" />
				<path class="cls-8" d="M242 143Z" />
				<path class="cls-9" d="M242 143Z" />
				<path class="cls-8" d="m204.6 141.81-2.41-.15Z" />
				<path class="cls-9" d="m204.6 141.81-2.41-.15Z" />
				<path class="cls-8" d="m209.69 142.1-3.68-.2Z" />
				<path class="cls-9" d="m209.69 142.1-3.68-.2Z" />
				<path class="cls-8" d="m200.6 141.56-2.35-.17Z" />
				<path class="cls-9" d="m200.6 141.56-2.35-.17Z" />
				<path class="cls-8" d="M257.1 143Z" />
				<path class="cls-9" d="M257.1 143Z" />
				<path class="cls-8" d="m193.87 141.06 3 .24-3-.24Z" />
				<path class="cls-9" d="m193.87 141.06 3 .24-3-.24Z" />
				<path class="cls-8" d="M270.38 142.78h1.24Z" />
				<path class="cls-10" d="M270.38 142.78h1.24Z" />
				<path class="cls-9" d="M270.38 142.78h1.24Z" />
				<path class="cls-8" d="m295.19 141.66-2.38.15Z" />
				<path class="cls-10" d="m295.19 141.66-2.38.15Z" />
				<path class="cls-9" d="m295.19 141.66-2.38.15Z" />
				<path class="cls-8" d="m291.37 141.9-3.67.2Z" />
				<path class="cls-10" d="m291.37 141.9-3.67.2Z" />
				<path class="cls-9" d="m291.37 141.9-3.67.2Z" />
				<path class="cls-8" d="m303.52 141.06-3 .23Z" />
				<path class="cls-10" d="m303.52 141.06-3 .23Z" />
				<path class="cls-9" d="m303.52 141.06-3 .23Z" />
				<path class="cls-8" d="m299.12 141.39-2.34.17Z" />
				<path class="cls-10" d="m299.12 141.39-2.34.17Z" />
				<path class="cls-9" d="m299.12 141.39-2.34.17Z" />
				<path class="cls-8" d="M277.81 142.54h.19-.58Z" />
				<path class="cls-10" d="M277.81 142.54h.19-.58Z" />
				<path class="cls-9" d="M277.81 142.54h.19-.58Z" />
				<path class="cls-8" d="m282.1 142.37-3 .12Z" />
				<path class="cls-10" d="m282.1 142.37-3 .12Z" />
				<path class="cls-9" d="m282.1 142.37-3 .12Z" />
				<path class="cls-8" d="m286.36 142.17-2.72.13Z" />
				<path class="cls-10" d="m286.36 142.17-2.72.13Z" />
				<path class="cls-9" d="m286.36 142.17-2.72.13Z" />
				<path class="cls-5" d="M318.92 122.37c-18-2.2-42.8-3.55-70.23-3.55s-52.25 1.35-70.22 3.55-29.09 5.23-29.09 8.57a1.61 1.61 0 0 0 .18.73c1.47 3.06 12.24 5.82 28.91 7.85 4.69.57 9.85 1.09 15.4 1.54l3 .24 1.34.09 2.35.17 1.59.1 2.41.15 1.41.09 3.68.2 1.34.07 2.72.13 1.53.07 3 .12H219.94q2.86.1 5.79.18h1.51c2.12.05 4.26.11 6.43.15h.41c2 0 4.1.07 6.17.09h16.86q3.11 0 6.17-.09h.41c2.17 0 4.31-.1 6.43-.15h1.51c1.95-.05 3.88-.11 5.78-.18H279.13l3-.12 1.54-.07 2.72-.13 1.34-.07 3.67-.2 1.44-.09 2.38-.15 1.59-.1 2.34-.17 1.36-.1 3-.23c5.55-.45 10.72-1 15.41-1.54 16.67-2 27.43-4.79 28.91-7.85a1.75 1.75 0 0 0 .18-.73c-.01-3.34-11.12-6.38-29.09-8.57Z" />
				<path class="cls-9" d="M282.08 135.82c-2.87-.38-5.93-.71-9.12-1-7.34-.64-15.42-1-23.94-1a256.22 256.22 0 0 0-33.05 2c-9.48 1.27-17.08 3.06-21.77 5.18l3 .23 1.34.1 2.35.17 1.59.1 2.41.15 1.41.09 3.68.2 1.34.07 2.72.13 1.53.07 3 .12H220.27q2.87.1 5.79.18h1.51c2.12.05 4.26.11 6.43.15h.41c2 0 4.1.07 6.17.09h16.81q3.1 0 6.17-.09h.44c2.17 0 4.31-.1 6.43-.15h1.51c1.95-.05 3.88-.11 5.78-.18H279.44l3-.12 1.54-.07 2.72-.13 1.3-.11 3.67-.2 1.44-.09 2.38-.15 1.59-.1 2.34-.17 1.36-.1 3-.23c-4.62-2.08-12.22-3.87-21.7-5.14Z" />
				<path class="cls-8" d="M270.11 142.79c-2.12.05-4.26.11-6.43.15h-.41q-3.06.06-6.17.09h-16.81c-2.07 0-4.14-.05-6.17-.09h-.41c-2.17 0-4.31-.1-6.43-.15h-1.51q-2.93-.08-5.79-.18H218.28l-3-.12-1.53-.07-2.72-.13-1.34-.07-3.68-.2-1.41-.09-2.41-.15-1.59-.1-2.35-.17-1.34-.09-3-.24c-5.55-.45-10.71-1-15.4-1.54-16.67-2-27.44-4.79-28.91-7.85h-.18L172 157.61l18.52 21.27a530.91 530.91 0 0 0 60.63 3.17c2.73 0 5.42 0 8.09-.05l1.92-6.74 6.69-23.46 2.57-9Z" />
				<path d="M347.83 131.67c-1.48 3.06-12.24 5.82-28.91 7.85-4.69.57-9.86 1.09-15.41 1.54l-3 .23-1.36.1-2.34.17-1.59.1-2.38.15-1.44.09-3.67.2-1.34.07-2.72.13-1.54.07-3 .12H277.41c-1.9.07-3.83.13-5.78.18h-1.24l-2.57 9-6.69 23.46-1.93 6.87c17.37-.22 33.49-1.11 47.19-2.53l19.72-22.64L348 131.67Z" style="fill:#c6cfd3" />
				<path class="cls-9" d="M287.12 124.32a11 11 0 0 0 .86 4.27 11 11 0 0 0 5.83 5.84 10.93 10.93 0 0 0 12-2.35 11.12 11.12 0 0 0 2.35-3.49 10.94 10.94 0 0 0-2.35-12 10.93 10.93 0 0 0-15.49 0 10.89 10.89 0 0 0-3.21 7.75Z" />
				<path class="cls-12" d="M300.19 131.6a11 11 0 1 0-10.09-15.24 10.91 10.91 0 0 0 0 8.54 10.91 10.91 0 0 0 10.09 6.7Z" />
				<path class="cls-9" d="M213.74 127.46a9.68 9.68 0 0 0 2.84 6.88 9.92 9.92 0 0 0 3.09 2.09 9.78 9.78 0 0 0 7.56 0 9.92 9.92 0 0 0 3.09-2.09 9.76 9.76 0 0 0 2.08-10.66 9.62 9.62 0 0 0-2.08-3.09 9.69 9.69 0 0 0-13.74 0 9.68 9.68 0 0 0-2.84 6.87Z" />
				<path class="cls-4" d="M225.61 133.63a9.63 9.63 0 1 0-3.78-.76 9.7 9.7 0 0 0 3.78.76Z" />
				<path class="cls-7" d="M195.32 97.9a4.18 4.18 0 0 0 1.66-.34 4.3 4.3 0 0 0 2.28-5.56 4.25 4.25 0 0 0-.92-1.36 4.36 4.36 0 0 0-1.36-.92 4.18 4.18 0 0 0-1.66-.34 4.22 4.22 0 0 0-1.67.34 4.36 4.36 0 0 0-1.36.92 4.22 4.22 0 0 0-.91 1.36 4.25 4.25 0 0 0 0 3.33 4.27 4.27 0 0 0 2.27 2.28 4.22 4.22 0 0 0 1.67.29Z" />
				<path class="cls-5" d="M281.69 93.3a4.18 4.18 0 0 0 1.66-.34 4.27 4.27 0 0 0 2.28-2.27 4.39 4.39 0 0 0 0-3.34 4.27 4.27 0 0 0-7.88 0 4.27 4.27 0 0 0 0 3.34A4.21 4.21 0 0 0 280 93a4.22 4.22 0 0 0 1.69.3ZM221.4 55.81a4.22 4.22 0 0 0 1.67-.34 4.21 4.21 0 0 0 2.27-2.27 4.27 4.27 0 0 0 0-3.34 4.21 4.21 0 0 0-2.27-2.27 4.22 4.22 0 0 0-1.67-.34 4.18 4.18 0 0 0-1.66.34 4.27 4.27 0 0 0-2.28 2.27 4.39 4.39 0 0 0 0 3.34 4.27 4.27 0 0 0 2.28 2.27 4.18 4.18 0 0 0 1.66.34Z" />
				<path class="cls-13" d="M252.1 143.07ZM267.22 142.86Z" />
				<path class="cls-14" d="M267 142.87h-3.29 1.65Z" />
				<path d="M267 142.87h-3.29 1.65Z" style="fill:url(#linear-gradient)" />
				<path class="cls-14" d="M259.61 143H256.33 258Z" />
				<path d="M259.61 143H256.33 258Z" style="fill:url(#linear-gradient-2)" />
				<path class="cls-14" d="M263.44 142.94h-3.04 1.52Z" />
				<path d="M263.44 142.94h-3.04 1.52Z" style="fill:url(#linear-gradient-3)" />
				<path class="cls-14" d="M256.12 143Z" />
				<path d="M256.12 143Z" style="fill:url(#linear-gradient-4)" />
				<path class="cls-13" d="M267 142.87Z" />
				<path d="M267 142.87Z" style="fill:url(#linear-gradient-5)" />
				<path class="cls-13" d="M252.54 143.06Z" />
				<path d="M252.54 143.06Z" style="fill:url(#linear-gradient-6)" />
				<path class="cls-13" d="M260.4 143Z" />
				<path d="M260.4 143Z" style="fill:url(#linear-gradient-7)" />
				<path class="cls-13" d="M263.69 142.94Z" />
				<path d="M263.69 142.94Z" style="fill:url(#linear-gradient-8)" />
				<path class="cls-13" d="M256.29 143Z" />
				<path d="M256.29 143Z" style="fill:url(#linear-gradient-9)" />
				<path class="cls-13" d="M256.12 143h11.1a7.43 7.43 0 0 0-.75-2 7.44 7.44 0 0 0-3.64-3.28 7.51 7.51 0 0 0-8.24 1.61 8 8 0 0 0-1.3 1.75 7.56 7.56 0 0 0-.75 2.09h3.58Z" />
				<path class="cls-12" d="M256.12 143h11.1a7.43 7.43 0 0 0-.75-2 7.44 7.44 0 0 0-3.64-3.28 7.51 7.51 0 0 0-8.24 1.61 8 8 0 0 0-1.3 1.75 7.56 7.56 0 0 0-.75 2.09h3.58Z" />
				<path style="fill:#2e5d7a" d="M224.76 229.89h23.93v15.39h-23.93z" />
				<path class="cls-7" d="M248.69 229.89h24.06v15.39h-24.06z" />
			</g>
		</g>
	</g>
</svg>
