<svg xmlns="http://www.w3.org/2000/svg" xmlns:xlink="http://www.w3.org/1999/xlink" viewBox="0 0 500.13 309.32"><defs><clipPath id="clip-path" transform="translate(0 -13.98)"><path class="cls-1" d="M330.86 93.15c0-17.88-14.49-52.14-32.37-52.14s-32.37 34.26-32.37 52.14a32.37 32.37 0 0 0 64.74 0Z"/></clipPath><clipPath id="clip-path-2" transform="translate(0 -13.98)"><path class="cls-1" d="M189.48 57.61C189.48 40.24 175.4 0 158 0s-31.44 40.24-31.44 57.61a31.45 31.45 0 0 0 62.89 0Z"/></clipPath><clipPath id="clip-path-3" transform="translate(0 -13.98)"><path class="cls-1" d="M492 183c0-16.39-13.29-51-29.68-51s-29.68 34.57-29.68 51a29.68 29.68 0 1 0 59.36 0Z"/></clipPath><linearGradient id="linear-gradient" x1="168.99" y1="220.11" x2="340.92" y2="220.11" gradientUnits="userSpaceOnUse"><stop offset="0" stop-color="#fff" stop-opacity="0"/><stop offset="1" stop-color="#009bd8"/></linearGradient><linearGradient id="linear-gradient-2" x1="105.24" y1="201.69" x2="169.29" y2="201.69" xlink:href="#linear-gradient"/><style>.cls-1,.cls-3{fill:none}.cls-3{stroke:#84bbe5;stroke-miterlimit:10}.cls-4{fill:#84bbe5}.cls-5{fill:#0c3b5d}.cls-6{fill:#fee600}.cls-7{fill:#099bd7}.cls-9{fill:#eeeff0}.cls-10{fill:#b5d8f0}.cls-11{fill:#b6b9c6;mix-blend-mode:multiply}.cls-12{fill:#5aaade}.cls-13{fill:#00aadf}.cls-24{fill:#fff}</style></defs><g style="isolation:isolate"><g id="Layer_2" data-name="Layer 2"><g id="Layer_1-2" data-name="Layer 1"><path class="cls-3" d="M214.57 308.82h80"/><path class="cls-4" d="M474.5 285.29h-49.58l.07-.56a176.28 176.28 0 0 0 1.36-21.73c0-96.07-78.16-174.23-174.24-174.23S77.88 166.88 77.88 263a176.27 176.27 0 0 0 1.35 21.78l.07.56H29.73v-.45c-.71-7.29-1.07-14.66-1.07-21.89a223.5 223.5 0 0 1 381.53-158 222.06 222.06 0 0 1 65.46 158c0 7.24-.36 14.6-1.07 21.89Zm-48.44-1h47.53c.68-7.11 1-14.29 1-21.34A222.5 222.5 0 0 0 94.78 105.62 221 221 0 0 0 29.62 263c0 7.05.34 14.23 1 21.34h47.55A177.14 177.14 0 0 1 76.88 263c0-96.62 78.61-175.23 175.23-175.23S427.35 166.33 427.35 263a179.22 179.22 0 0 1-1.29 21.29Z" transform="translate(0 -13.98)"/><path class="cls-4" d="M425.93 285.29H364l.11-.59a114 114 0 1 0-223.95 0l.12.59H78.3l-.06-.43A178.5 178.5 0 0 1 76.88 263c0-96.62 78.61-175.23 175.23-175.23S427.35 166.33 427.35 263a178.5 178.5 0 0 1-1.35 21.86Zm-60.75-1h59.87a177 177 0 0 0 1.3-21.34c0-96.07-78.16-174.23-174.24-174.23S77.88 166.88 77.88 263a177.15 177.15 0 0 0 1.3 21.34H139a115.06 115.06 0 1 1 228.1-17.51 116.43 116.43 0 0 1-1.92 17.46Z" transform="translate(0 -13.98)"/><path class="cls-4" d="M365 285.29H139.23l-.08-.4a115.06 115.06 0 1 1 228-18.06h-.5.5a116.64 116.64 0 0 1-2 18.06Zm-224.93-1h224.1a115.56 115.56 0 0 0 1.94-17.49 114.05 114.05 0 1 0-226 17.49Z" transform="translate(0 -13.98)"/><circle class="cls-5" cx="78.36" cy="239.32" r="4.24"/><circle class="cls-5" cx="474.81" cy="229.83" r="4.24"/><circle class="cls-5" cx="98.64" cy="85.05" r="4.24"/><circle class="cls-6" cx="387.42" cy="138.88" r="6.48"/><path class="cls-3" d="M494.75 270.82H0M162.32 291.32h173.31"/><circle class="cls-7" cx="370.39" cy="57.29" r="11.51"/><circle class="cls-7" cx="140.39" cy="114.23" r="11.51"/><circle class="cls-6" cx="298.49" cy="78.85" r="32.37"/><g style="clip-path:url(#clip-path)"><path class="cls-5" d="m302.24 85.3 3.37 1L334 99.75a1.44 1.44 0 0 1 .79 1.14l2.21 25.77h-34.76Z" transform="translate(0 -13.98)"/><path class="cls-9" d="m300.05 69.7 10.55 5.02 2.88 37.96h-25.66l2.6-37.67 9.63-5.31z"/><path class="cls-5" d="m294 85.3-3.38 1-28.33 13.45a1.4 1.4 0 0 0-.79 1.14l-2.29 25.77H294Z" transform="translate(0 -13.98)"/><path class="cls-9" d="m296.19 69.7-10.54 5.02-2.88 37.96h13.42V69.7z"/><path class="cls-10" d="m288.38 100.34 2.12-1.09 2.13-1.09 2.13-1.1 2.12-1.06h1l2.12 1.12 2.09 1.14 2.08 1.15 2.08 1.14h-.05l-2.17-.8-2.17-.8-2.17-.81-2.17-.8-2.26.75-2.25.75-2.26.75-2.25.75h-.05s-.09.01-.07 0Z" transform="translate(0 -13.98)"/><path class="cls-11" d="m259.23 126.66 1.77-20.13a.63.63 0 0 1 1.23-.1l5.36 20.23Z" transform="translate(0 -13.98)"/><path class="cls-10" d="m282.78 112.68 2.37-32.08.24 32.08h-2.61z"/><path class="cls-12" d="m306.95 77.55-9.51 3.62-9.56-3.62V69.7l19.07-1.33v9.18z"/><path class="cls-11" d="m337 126.66-1.78-20.13a.63.63 0 0 0-1.23-.1l-5.36 20.23Z" transform="translate(0 -13.98)"/><path class="cls-12" d="m285.43 67.48-.29-.13-.28-.13-.29-.13-.28-.13H283.48a1 1 0 0 0-.32.11.88.88 0 0 0-.25.22.87.87 0 0 0-.14.29 1 1 0 0 0 0 .34l.17 1.3.17 1.3.17 1.3.17 1.31a.94.94 0 0 0 0 .16 1 1 0 0 0 .07.15l.1.14a.43.43 0 0 0 .12.11l.37.29.38.29.37.28.37.29a.6.6 0 0 0 .15.09.47.47 0 0 0 .15.06h.62a.76.76 0 0 0 .33-.11.91.91 0 0 0 .39-.52 1 1 0 0 0 0-.35l-.24-1.46-.23-1.55-.24-1.47-.25-1.46a1.46 1.46 0 0 0-.05-.2 1 1 0 0 0-.11-.17.67.67 0 0 0-.14-.15ZM309.29 67.48l.28-.13.29-.13.28-.13.29-.13H311.24a1.1 1.1 0 0 1 .32.11.93.93 0 0 1 .39.51.77.77 0 0 1 0 .34l-.17 1.3-.17 1.3-.17 1.3-.17 1.31a.9.9 0 0 1 0 .16 1 1 0 0 1-.07.15l-.1.14-.12.11-.38.29-.37.29-.37.28-.38.29a.42.42 0 0 1-.14.09.44.44 0 0 1-.16.06L309 75h-.45a.76.76 0 0 1-.33-.11.88.88 0 0 1-.25-.22 1 1 0 0 1-.14-.3.82.82 0 0 1 0-.35l.24-1.46.24-1.46.25-1.47.24-1.46a.76.76 0 0 1 .06-.2.62.62 0 0 1 .11-.17.67.67 0 0 1 .14-.15.78.78 0 0 1 .18-.17Z" transform="translate(0 -13.98)"/><path class="cls-13" d="M308.8 68.1a.66.66 0 0 1 .06-.2 1.62 1.62 0 0 1 .1-.18 1 1 0 0 1 .15-.14.54.54 0 0 1 .18-.11l.28-.13.29-.13.28-.13.29-.13H311.24a.87.87 0 0 1 .32.11.84.84 0 0 1 .24.22.79.79 0 0 1 .17.62v.33l-.05.33v.66a.82.82 0 0 0 0-.35.85.85 0 0 0-.15-.3.88.88 0 0 0-.25-.22.76.76 0 0 0-.33-.11h-.94l-.29.14-.3.13-.29.14-.3.13-.12.07-.11.09-.09.1a.75.75 0 0 0-.07.12v-.53l.05-.26ZM283.48 66.92H284.29l.28.13.29.13.28.13.29.13a.87.87 0 0 1 .18.11.93.93 0 0 1 .14.14.81.81 0 0 1 .1.18.66.66 0 0 1 .06.2v.29l.05.29.05.29.05.28a1.34 1.34 0 0 0-.07-.18.91.91 0 0 0-.11-.16.62.62 0 0 0-.14-.14l-.16-.1-.3-.13-.28-.11-.29-.13-.3-.14H283.57a.84.84 0 0 0-.27.08.89.89 0 0 0-.22.16.82.82 0 0 0-.16.22.62.62 0 0 0-.09.26v-.96a.91.91 0 0 1 0-.33.61.61 0 0 1 .14-.29.88.88 0 0 1 .25-.22.81.81 0 0 1 .26-.13Z" transform="translate(0 -13.98)"/><path class="cls-12" d="m287.17 57.47 2.48-1 2.48-1 2.48-1 2.48-1h.17l2.48 1 2.49 1 2.48 1 2.48 1a1.39 1.39 0 0 1 .23.33 6.15 6.15 0 0 1 .5 1.3 18.22 18.22 0 0 1 .5 2.76 44.58 44.58 0 0 1 .22 4.7v12.37l-1.24 3-1.24 3-1.24 3-1.24 3-1.28.38-1.29.39-1.28.39-1.28.39h-2.74l-1.29-.48-1.28-.39-1.24-.42-1.29-.38-1.24-3-1.24-3-1.24-3-1.24-3V66.56a41.66 41.66 0 0 1 .23-4.7 17 17 0 0 1 .5-2.76 5.64 5.64 0 0 1 .5-1.3 1.09 1.09 0 0 1 .19-.33Z" transform="translate(0 -13.98)"/><path class="cls-11" d="m290.54 57.39.15.53.14.53.17.55.15.54 3.29 1.55 3.3 1.56 3.3 1.56 2.31 1.09a1.7 1.7 0 0 1 1 1.55v10.36l-1.06 2.05-1.07 2-1.06 2L300 85.4l.58.72.57.71.57.72.58.72 1.43-2.3 1.44-2.29 1.44-2.29 1.43-2.3L308 75l-.13-4.14-.12-4.14-.13-4.13-.66-2.32-.65-2.31-.66-2.31-.65-2.36-3.61 1-3.6 1-3.6 1Z" transform="translate(0 -13.98)"/><path class="cls-5" d="m284.88 54.94 1.25-1.23 1.25-1.23 1.25-1.23 1.25-1.25h.16l1-.34 1-.33 1-.33 1-.33h4.18l2 .76 2 .75 1.95.76 2 .76a.05.05 0 0 1 .05 0h.05l.79.83.79.83.79.82.79.83a.18.18 0 0 1 .05.07.16.16 0 0 1 0 .07v.08a.19.19 0 0 1 0 .08l.16 1.21.15 1.21.16 1.21.16 1.22v.11l-.16 1.7.05 1.75-.16 1.7-.15 1.7a.83.83 0 0 1 0 .15.54.54 0 0 1-.07.13.52.52 0 0 1-.11.1l-.14.07h-.1l-.13.07a.52.52 0 0 0-.11.1.47.47 0 0 0-.07.12.37.37 0 0 0 0 .14l-.05.38-.05.38-.05.38-.06.38h-1v-3.64l-.18-1.25-.18-1.26-.17-1.25-.22-1.26a.29.29 0 0 0 0-.09.36.36 0 0 0 0-.09.35.35 0 0 0-.05-.08l-.06-.06-.76-.66-.75-.66-.76-.65-.75-.66a.55.55 0 0 0-.24-.12.7.7 0 0 0-.25 0 .57.57 0 0 0-.21.13.37.37 0 0 0-.14.22v.49a.38.38 0 0 1-.06.13l-.09.11-.12.07h-.14l-2.25.36-2.26.37-2.25.37-2.25.37h-.08a.2.2 0 0 0-.08 0h-.07l-.07.06-.75.81-.74.81-.75.8-.75.81.17-.94.16-.93.17-.93.16-.94a.61.61 0 0 0 0-.19.58.58 0 0 0-.06-.17.49.49 0 0 0-.12-.13l-.16-.1-.31-.1-.3-.1-.3-.11-.3-.1a.39.39 0 0 0-.21 0 .41.41 0 0 0-.19 0 .66.66 0 0 0-.17.12.52.52 0 0 0-.1.18l-.36 1.08-.37 1.07-.36 1.07-.67 1.25v.09l-.23 1.47-.23 1.48-.23 1.47-.23 1.47h-.46l-.08-.48-.07-.49-.07-.49-.08-.49a.36.36 0 0 0 0-.1.41.41 0 0 0-.05-.09l-.06-.09-.08-.06h-.05a.32.32 0 0 1-.16-.19.37.37 0 0 1-.05-.11.53.53 0 0 1 0-.13V55.31a.34.34 0 0 1 0-.1.38.38 0 0 1 0-.1.41.41 0 0 1 .05-.09Z" transform="translate(0 -13.98)"/><path class="cls-5" d="M294.35 48.54h4l2 .76 2 .75 1.95.76 2 .76h.05a.05.05 0 0 1 .05 0h.05l.79.83.79.83.79.82.79.83a.18.18 0 0 1 .05.07.16.16 0 0 1 0 .07.11.11 0 0 1 0 .08.19.19 0 0 1 0 .08v.99l-1.22-.92-1.35-1-1.17-.87-.52-.38-1.8-.58-1.8-.58-1.8-.58-2-.65h-3.57l-1 .24-1 .24-1 .23-1 .24h-.05l-1.39.92-1.39.92-1.4.92-1.39.92v-.21l1.29-1.26 1.29-1.27 1.28-1.27 1.25-1.23h.16l1-.34 1-.33 1-.33 1-.33h.16Z" transform="translate(0 -13.98)"/><path class="cls-6" d="M298.85 100.09h.15a1.08 1.08 0 0 0 1-1.54l-.92-2a1.08 1.08 0 0 0-1-.62h-.82a1.08 1.08 0 0 0-1 .62l-.92 2a1.08 1.08 0 0 0 1 1.54h.23l-4.1 15.54v11.1h10.4v-11.1Z" transform="translate(0 -13.98)"/><path class="cls-11" d="m287.88 69.7.02 5.83 10.62 5.22 8.43-3.2v-9.18l-19.07 1.33z"/><path class="cls-5" d="m303 91.18-1.06.32-1.06.32-1.06.32-1.06.32h-3.17l-1.06-.32-1.06-.32-1.06-.32-1.06-.33A1.2 1.2 0 0 1 291 91a1.15 1.15 0 0 1-.26-.19 1.26 1.26 0 0 1-.22-.24 1.64 1.64 0 0 1-.16-.29l-1.17-2.73-1.16-2.74-1.17-2.74-1.16-2.73-.06-.15v-9.48h.46l.23 1.68.23 1.67.24 1.68.23 1.67a1.06 1.06 0 0 0 0 .19.64.64 0 0 0 .06.18.89.89 0 0 0 .08.17.91.91 0 0 0 .11.16l.56.75.57.75.56.75.57.75a1.54 1.54 0 0 0 .56.46 1.63 1.63 0 0 0 .68.14 1.6 1.6 0 0 0 .67-.18A1.4 1.4 0 0 0 292 80l.33-.49.33-.49.33-.49.33-.49a1.61 1.61 0 0 1 .24-.28 2 2 0 0 1 .3-.21 1.4 1.4 0 0 1 .34-.13 1.57 1.57 0 0 1 .37 0h5a2 2 0 0 1 .34 0 1.75 1.75 0 0 1 .32.12 1.21 1.21 0 0 1 .28.18 1.36 1.36 0 0 1 .24.24l.34.43.34.43.34.43.34.43a1.42 1.42 0 0 0 .59.45 1.57 1.57 0 0 0 .7.12 1.6 1.6 0 0 0 .68-.22 1.5 1.5 0 0 0 .52-.54l.71-1.25.71-1.25.71-1.25.71-1.25a.89.89 0 0 0 .08-.17 1.27 1.27 0 0 0 .06-.18 1.62 1.62 0 0 0 0-.19 1.34 1.34 0 0 0 0-.2v-4.24h.51a.58.58 0 0 0 .19 0l.15-.06a.18.18 0 0 1 .1 0s0 0 0 .12V79.11a.7.7 0 0 1 0 .14s0 .1-.05.14l-1.15 2.74-1.14 2.73-1.14 2.74-1.05 2.71a1.46 1.46 0 0 1-.17.3 1 1 0 0 1-.22.24 1.15 1.15 0 0 1-.26.19 1.73 1.73 0 0 1-.35.14Z" transform="translate(0 -13.98)"/></g><path style="fill:#0095c7" d="m136.9 65.28.78.78.77.78.78-.78.78-.78-.78-.78-.78-.77-.77.77-.78.78z"/><circle class="cls-7" cx="158.03" cy="43.63" r="31.44"/><g style="clip-path:url(#clip-path-2)"><path class="cls-5" d="M166.27 18.51a2.24 2.24 0 0 0-.08-.57 2.17 2.17 0 0 0-.21-.53 2.09 2.09 0 0 0-.33-.45 2 2 0 0 0-.45-.37l-.9-.57-.91-.56-.9-.57-.9-.57-.29-.15-.29-.11-.31-.06a1.72 1.72 0 0 0-.32 0h-9.32a2.36 2.36 0 0 0-.38.1 2.21 2.21 0 0 0-.35.16 3.62 3.62 0 0 0-.32.22l-1.63 1.35-1.63 1.34-1.63 1.34-1.62 1.34a1.54 1.54 0 0 0-.19.17l-.17.19c0 .07-.1.14-.14.21l-.12.23-1.18 2.56-1.19 2.56-1.18 2.56-1.19 2.56-.09.23c0 .08-.05.16-.06.23a2.17 2.17 0 0 0 0 .25 1.94 1.94 0 0 0 0 .24v12.28a1.29 1.29 0 0 0 0 .19l.06.19.54 1.48.54 1.49.53 1.48.54 1.48a1.8 1.8 0 0 1 .1.4 2.68 2.68 0 0 1 0 .4 2.79 2.79 0 0 1-.07.4 3 3 0 0 1-.15.38l-2.23 3.69-2.22 3.7-2.23 3.69-2.23 3.7a.32.32 0 0 0 0 .16.3.3 0 0 0 .05.16.29.29 0 0 0 .11.11.32.32 0 0 0 .17 0l10.06-.7 10.06-.7 10.07-.7 10.06-.7h.11l.09-.07a.15.15 0 0 0 .06-.09.2.2 0 0 0 0-.11l.16-4.74.16-4.75.16-4.74.17-4.75V26.54a2.31 2.31 0 0 0-.05-.46 2.36 2.36 0 0 0-.36-.84 2.52 2.52 0 0 0-.3-.35l-1.25-1.18-1.25-1.18-1.25-1.19-1.2-1.18a2 2 0 0 1-.31-.35 3.11 3.11 0 0 1-.22-.4 3.22 3.22 0 0 1-.14-.44 2.32 2.32 0 0 1-.06-.46Z" transform="translate(0 -13.98)"/><path class="cls-5" d="m191 71.49-1.36-3.63-1.36-3.62a2.13 2.13 0 0 0-.25-.5 2.41 2.41 0 0 0-.37-.41 2.21 2.21 0 0 0-.45-.3 2.41 2.41 0 0 0-.53-.2l-3.17-.73-3.18-.74-3.17-.73-3.16-.74h-.36l-.79-.06-.78-.05a2.36 2.36 0 0 1-.45-.08 2.05 2.05 0 0 1-.41-.16 1.73 1.73 0 0 1-.38-.24 1.87 1.87 0 0 1-.32-.31l-.89-1-.88-1-.89-1-.89-1a2.24 2.24 0 0 0-.36-.33 2 2 0 0 0-.41-.25 2.51 2.51 0 0 0-.46-.16 2.72 2.72 0 0 0-.49 0h-17.15a2 2 0 0 0-.42 0 1.82 1.82 0 0 0-.4.11l-.37.19a2.78 2.78 0 0 0-.34.26l-1 1-1 .95-1 1-1 .95a1.54 1.54 0 0 1-.29.23 2.11 2.11 0 0 1-.33.18l-.35.13a2.2 2.2 0 0 1-.37.06l-2.4.2-2.4.21-2.39.2-2.4.21h-.26L131 60l-.24.09-.23.12-.94.56-.94.57-.94.56-.94.56a2.31 2.31 0 0 0-.39.31 2 2 0 0 0-.32.38 2.22 2.22 0 0 0-.23.43 2.72 2.72 0 0 0-.13.49l-1.06 12.73-1.06 12.74h70l-1.31-9Z" transform="translate(0 -13.98)"/><path class="cls-5" d="m191 71.49-1.36-3.63-1.36-3.62a2.13 2.13 0 0 0-.25-.5 2.41 2.41 0 0 0-.37-.41 2.21 2.21 0 0 0-.45-.3 2.41 2.41 0 0 0-.53-.2l-6.35-1.47-6.33-1.47h-.36l-.79-.06-.78-.05a2.36 2.36 0 0 1-.45-.08 2.05 2.05 0 0 1-.41-.16 1.73 1.73 0 0 1-.38-.24 1.87 1.87 0 0 1-.32-.31l-1.77-2.08-1.78-2.08a2.24 2.24 0 0 0-.36-.33 2 2 0 0 0-.41-.25 2.51 2.51 0 0 0-.46-.16 2.72 2.72 0 0 0-.49 0h-17.15a2 2 0 0 0-.42 0 1.82 1.82 0 0 0-.4.11l-.37.19a2.78 2.78 0 0 0-.34.26l-2 1.9-2 1.9a1.54 1.54 0 0 1-.29.23 2.11 2.11 0 0 1-.33.18l-.35.13a2.2 2.2 0 0 1-.37.06l-4.8.41-4.79.41h-.26L131 60l-.24.09-.23.12-1.88 1.13-1.88 1.12a2.31 2.31 0 0 0-.39.31 2 2 0 0 0-.32.38 2.22 2.22 0 0 0-.23.43 2.72 2.72 0 0 0-.13.49l-1.06 12.73-1.06 12.74h.89l1.15-11.19 1.15-11.19 1.88-1.16 1.88-1.13.23-.12a2.34 2.34 0 0 1 .24-.09l.24-.07a2.3 2.3 0 0 1 .26 0l4.79-.41 4.8-.41a1.51 1.51 0 0 0 .37-.07 2.06 2.06 0 0 0 .35-.12 2.11 2.11 0 0 0 .33-.18 1.54 1.54 0 0 0 .29-.23l2-1.9 2-1.9a2.78 2.78 0 0 1 .34-.26 2.58 2.58 0 0 1 .37-.19 1.82 1.82 0 0 1 .4-.11 3 3 0 0 1 .42 0h17.15a2.72 2.72 0 0 1 .49.05 2.51 2.51 0 0 1 .46.16 2 2 0 0 1 .41.25 2.24 2.24 0 0 1 .36.33l1.78 2.08 1.77 2.08a1.87 1.87 0 0 0 .32.31 3 3 0 0 0 .38.24 2.05 2.05 0 0 0 .41.16 2.36 2.36 0 0 0 .45.08h.78l.79.06h.36l6.34 1.47 6.35 1.47a2.39 2.39 0 0 1 .53.19 2.77 2.77 0 0 1 .45.31 2.41 2.41 0 0 1 .37.41 2.13 2.13 0 0 1 .25.5l.92 8.22.92 8.22.78 2.08.78 2.08h1.94l-1.31-9Z" transform="translate(0 -13.98)"/><path class="cls-9" d="m146.68 58.92 2.06 2.37 2.07 2.38v.06l1.3 3.61 1.3 3.61 1.28 9.23 1.28 9.22h9.6V66.46l.46-1.45.47-1.45.47-1.45.47-1.45V60.35l-.89-4.83-.9-4.83v-.11a.47.47 0 0 0 0-.1l-.06-.09-.09-.08-.83-.68-.83-.68-.1-.07-.11-.05h-.25l-7.17.5-7.17.49h-.27l-.08.06-.5.38-.5.39-.51.39-.5.38a1.14 1.14 0 0 0-.11.11l-.08.12-.05.14a.76.76 0 0 0 0 .15v6.6a.49.49 0 0 0 0 .12.61.61 0 0 0 0 .11.47.47 0 0 0 .05.1.36.36 0 0 0 .19.05Z" transform="translate(0 -13.98)"/><path class="cls-12" d="M148.05 48.31v6a.28.28 0 0 0 0 .09.19.19 0 0 0 0 .08v.16l2.33 3.56 2.34 3.55 2.33 3.56 2.33 3.55a.49.49 0 0 0 .24.21.59.59 0 0 0 .29.07.75.75 0 0 0 .29-.09.61.61 0 0 0 .22-.23l1.62-2.93 1.72-2.89 1.62-3 1.62-2.9a.16.16 0 0 0 0-.07v-6.58a.54.54 0 0 0 0-.22.54.54 0 0 0-.11-.18.58.58 0 0 0-.17-.14.65.65 0 0 0-.21-.06l-4-.54-3.95-.53-4-.54-3.95-.53a.46.46 0 0 0-.26 0 .59.59 0 0 0-.22.12.75.75 0 0 0-.15.2.58.58 0 0 0 .07.28Z" transform="translate(0 -13.98)"/><path class="cls-11" d="M148.05 47.61v5.07l2.22 1.76 2.22 1.76 2.23 1.8 2.22 1.76a.92.92 0 0 0 .25.15 1 1 0 0 0 .29.08.71.71 0 0 0 .29 0 1 1 0 0 0 .29-.07l1.75-.73 1.76-.73 1.75-.73 1.76-.73v-7l-4.26-.58-4.25-.58-4.26-.57Z" transform="translate(0 -13.98)"/><path class="cls-12" d="m167.35 33.84.32-.14.31-.15.32-.14.32-.15H169.52a.82.82 0 0 1 .35.13 1 1 0 0 1 .28.23 1 1 0 0 1 .16.33.92.92 0 0 1 0 .37l-.18 1.45-.13 1.42-.19 1.45-.19 1.45a1.16 1.16 0 0 1 0 .18.8.8 0 0 1-.08.16.58.58 0 0 1-.11.15.8.8 0 0 1-.13.13l-.42.32-.41.32-.42.32-.42.32-.15.1-.18.07H166.62a.91.91 0 0 1-.37-.13.81.81 0 0 1-.27-.25.78.78 0 0 1-.16-.33.81.81 0 0 1 0-.38l.27-1.63.27-1.62.27-1.63.27-1.63a.63.63 0 0 1 .07-.22 1.18 1.18 0 0 1 .11-.19.87.87 0 0 1 .16-.17.82.82 0 0 1 .11-.14Z" transform="translate(0 -13.98)"/><path class="cls-13" d="M169.52 33.22h-.9l-.32.14-.32.15-.31.14-.32.15a.82.82 0 0 0-.2.12 1.21 1.21 0 0 0-.16.16 1.28 1.28 0 0 0-.11.2.81.81 0 0 0-.07.22l-.05.32-.06.32v.32l-.05.32a.68.68 0 0 1 .07-.2.94.94 0 0 1 .12-.18.71.71 0 0 1 .15-.15.72.72 0 0 1 .19-.11l.33-.15.32-.15.33-.15.33-.15H169.42a1 1 0 0 1 .3.09 1.14 1.14 0 0 1 .25.18 1.08 1.08 0 0 1 .18.24 1 1 0 0 1 .1.3v-1.07a1.11 1.11 0 0 0 0-.37 1 1 0 0 0-.16-.33 1.22 1.22 0 0 0-.27-.24 1.09 1.09 0 0 0-.3-.12Z" transform="translate(0 -13.98)"/><path class="cls-12" d="m144.63 33.84-.32-.14-.31-.15-.32-.14-.32-.15H142.46a.82.82 0 0 0-.35.13 1 1 0 0 0-.28.23 1 1 0 0 0-.16.33.92.92 0 0 0 0 .37l.18 1.45.19 1.45.19 1.45.19 1.45a1.16 1.16 0 0 0 0 .18.8.8 0 0 0 .08.16.58.58 0 0 0 .11.15.8.8 0 0 0 .13.13l.42.32.41.32.42.32.42.32.15.1.18.07H145.42a.91.91 0 0 0 .37-.13.81.81 0 0 0 .27-.25.78.78 0 0 0 .16-.33.81.81 0 0 0 0-.38l-.22-1.68-.27-1.62-.27-1.63-.27-1.63a.63.63 0 0 0-.07-.22 1.18 1.18 0 0 0-.11-.19.87.87 0 0 0-.16-.17.82.82 0 0 0-.22-.12Z" transform="translate(0 -13.98)"/><path class="cls-13" d="M142.46 33.22h.9l.32.14.32.15.31.14.32.15a.82.82 0 0 1 .2.12l.16.16a1.28 1.28 0 0 1 .11.2.81.81 0 0 1 .07.22l.05.32.06.32.05.32v.32a.68.68 0 0 0-.07-.2.94.94 0 0 0-.12-.18.71.71 0 0 0-.15-.15.72.72 0 0 0-.19-.11l-.33-.15-.32-.15-.33-.15-.33-.15H142.56a1 1 0 0 0-.3.09 1.14 1.14 0 0 0-.25.18 1.08 1.08 0 0 0-.18.24 1 1 0 0 0-.1.3v-1.07a1.11 1.11 0 0 1 0-.37 1 1 0 0 1 .16-.33 1.22 1.22 0 0 1 .27-.24 1.09 1.09 0 0 1 .3-.12Z" transform="translate(0 -13.98)"/><path class="cls-12" d="M165.06 22a1.56 1.56 0 0 0-.21-.43 1.29 1.29 0 0 0-.33-.33 1.44 1.44 0 0 0-.41-.21 1.49 1.49 0 0 0-.47-.07h-14.5a1.39 1.39 0 0 0-.46.07 1.65 1.65 0 0 0-.42.21 1.44 1.44 0 0 0-.32.33 1.35 1.35 0 0 0-.22.43l-.7 2.21-.7 2.21-.71 2.22-.7 2.21V31.08a.37.37 0 0 0 0 .11.45.45 0 0 0 0 .11v14.48a1.94 1.94 0 0 0 0 .24l.06.24a1.47 1.47 0 0 0 .1.22 1.07 1.07 0 0 0 .13.21l1.12 1.44 1.11 1.44L148.5 51l1.11 1.44.14.15.15.13.17.11.18.09 1 .39 1 .39 1 .39 1 .39h4.22l1-.39 1-.39 1-.39 1-.39.18-.09.17-.11.16-.13.13-.15 1.18-1.44 1.11-1.44 1.11-1.44 1.12-1.44a.74.74 0 0 0 .13-.21.88.88 0 0 0 .1-.22 1.05 1.05 0 0 0 .06-.24 1.94 1.94 0 0 0 0-.24V31.08a.5.5 0 0 0 0-.12v-.11l-.7-2.21-.7-2.22-.71-2.21Z" transform="translate(0 -13.98)"/><path class="cls-11" d="m168 30.89-.72-2.27-.72-2.26-.71-2.27-.72-2.27a1.28 1.28 0 0 0-.18-.35 1.25 1.25 0 0 0-.62-.45 1.23 1.23 0 0 0-.39-.06h-11.37v.07a.28.28 0 0 0 0 .09.11.11 0 0 0 0 .07.13.13 0 0 0 .06.07l2.93 2.24 2.94 2.24 2.95 2.26 2.93 2.23v13.4l-1.67 2.75L161 49.1l-1.67 2.75-1.66 2.74h.82l1-.4 1-.4 1-.41 1-.4.15-.07.14-.09.13-.11.11-.13 1.32-1.58 1.13-1.47 1.14-1.47 1.14-1.47a1 1 0 0 0 .11-.17.64.64 0 0 0 .08-.19.67.67 0 0 0 .05-.19.75.75 0 0 0 0-.21V30.98Z" transform="translate(0 -13.98)"/><path class="cls-5" d="M169.65 25.25v-.19a.41.41 0 0 0-.05-.09l-.05-.07-1.61-1.79-1.61-1.79-1.61-1.79-1.61-1.79a.86.86 0 0 0-.14-.13.65.65 0 0 0-.16-.09.64.64 0 0 0-.18-.06.62.62 0 0 0-.19 0h-9.26l-2 .83-2 .83-2 .83-2 .83a.82.82 0 0 0-.2.12 1.21 1.21 0 0 0-.16.16.82.82 0 0 0-.12.2.79.79 0 0 0-.06.22l-.48 2.93-.48 2.93-.48 2.93-.48 2.93H143.31l.31.14.3.15.31.14.31.14a.31.31 0 0 0 .13 0h.13l.12-.06.09-.1.25-.43.25-.42.26-.42.23-.34v-4.31a.88.88 0 0 1 0-.16.75.75 0 0 1 0-.16 1 1 0 0 1 .07-.15 1.13 1.13 0 0 1 .1-.13l1-1.1.95-1.09 1-1.1 1-1.09a.93.93 0 0 1 .14-.14.91.91 0 0 1 .17-.09.64.64 0 0 1 .18-.06.64.64 0 0 1 .2 0h2.46l.56.21.56.21.57.22.56.21.19.05h.38l.18-.07.52-.27.52-.28.52-.27.52-.28h3.17a2.47 2.47 0 0 1 .54.05 3.21 3.21 0 0 1 .53.15 3.62 3.62 0 0 1 .48.25 2.94 2.94 0 0 1 .44.35l.61.58.61.59.61.59.61.59.1.1.07.12.06.12a.74.74 0 0 1 0 .14l.36 1.86.37 1.87.37 1.86.36 1.87a.52.52 0 0 0 .07.15.53.53 0 0 0 .12.1.29.29 0 0 0 .16 0 .45.45 0 0 0 .16 0H168.45l.17-.06H169.45a.33.33 0 0 0 .17 0 .37.37 0 0 0 .14-.07.34.34 0 0 0 .09-.12.47.47 0 0 0 0-.17l-.06-1.89-.01-2.18-.07-1.9Z" transform="translate(0 -13.98)"/><path class="cls-5" d="m161.45 20.26-3.91.52-3.9.52-3.91.53-3.91.52-.38 2.48-.39 2.48-.38 2.47-.39 2.48h.72a.18.18 0 0 0-.05.07.25.25 0 0 0 0 .07.16.16 0 0 0 0 .08.28.28 0 0 0 0 .09v3a.51.51 0 0 0 0 .17.71.71 0 0 0 .1.14.42.42 0 0 0 .14.09.33.33 0 0 0 .17 0H146.89l.07-.07 1.18-1.29 1.17-1.3 1.15-1.31 1.18-1.3 2.5-2.7 2.44-2.59 2.42-2.57Z" transform="translate(0 -13.98)"/></g><circle cx="462.36" cy="169" r="29.68" style="fill:#53627f"/><g style="clip-path:url(#clip-path-3)"><path class="cls-12" d="m449.74 162-.3-.14-.3-.14-.31-.14-.3-.14h-.87a.8.8 0 0 0-.34.11 1 1 0 0 0-.26.23.89.89 0 0 0-.15.31 1.08 1.08 0 0 0 0 .36l.18 1.38.18 1.39.19 1.38.18 1.39a.47.47 0 0 0 0 .17.77.77 0 0 0 .07.16 1.3 1.3 0 0 0 .1.15l.13.12.4.31.4.3.4.31.4.3a.56.56 0 0 0 .15.1l.16.06a.57.57 0 0 0 .18 0h.48a.7.7 0 0 0 .35-.12 1 1 0 0 0 .26-.23 1 1 0 0 0 .15-.32.93.93 0 0 0 0-.37l-.26-1.56-.26-1.55-.26-1.56-.26-1.55a1.29 1.29 0 0 0-.06-.21.76.76 0 0 0-.12-.19.75.75 0 0 0-.15-.16 1.18 1.18 0 0 0-.16-.15Z" transform="translate(0 -13.98)"/><path class="cls-13" d="M450.26 162.62a.79.79 0 0 0-.06-.22 1.08 1.08 0 0 0-.11-.18.81.81 0 0 0-.16-.16.62.62 0 0 0-.19-.12l-.3-.14-.3-.13-.31-.14-.3-.14h-.91a1.06 1.06 0 0 0-.34.12 1 1 0 0 0-.26.23.81.81 0 0 0-.15.31 1.05 1.05 0 0 0 0 .36l.05.35.05.35v.7a1.11 1.11 0 0 1 0-.37.88.88 0 0 1 .16-.32.78.78 0 0 1 .27-.24 1 1 0 0 1 .35-.12h.89l.31.14.32.14.31.15.31.14.13.07.12.1.1.11.08.12-.05-.28v-.56Z" transform="translate(0 -13.98)"/><path d="m499.13 211.18-.59-7.52-.58-7.51V196l-.08-1.21-.07-1.2a.57.57 0 0 0 0-.18.6.6 0 0 0-.09-.15.49.49 0 0 0-.12-.13l-.15-.09-11.47-4.77-11.46-4.77h-.14l-.06-.05-.06-.06-1.28-1.64-1.29-1.63a.57.57 0 0 0-.11-.11l-.13-.08H471.16l-9.27.46-9.26.47h-.22l-.1.05-.09.07-2.48 2.31-2.48 2.32a.1.1 0 0 0-.05 0h-.12l-10.18 3.62-10.19 3.62-.15.07-.12.11-.09.14a1 1 0 0 0-.05.16l-1 10.59-1 10.59h75.83l-.5-1.69Z" transform="translate(0 -13.98)" style="fill:#eeeced"/><path class="cls-9" d="m472.42 185.93 10.74 4 10.75 4a1.33 1.33 0 0 1 .37.2 1.38 1.38 0 0 1 .31.28 1.67 1.67 0 0 1 .36.76l.11.62.11.62.86 7.44.87 7.44.1 1.71.11 1.62h3l-.5-1.69-.49-1.7-.59-7.52-.59-7.51-.09-1.35-.1-1.34a.5.5 0 0 0 0-.12.21.21 0 0 0-.06-.1.24.24 0 0 0-.08-.09.21.21 0 0 0-.1-.06l-11.46-4.76-11.45-4.76H474.48l-.05-.05-1.21-1.48-1.2-1.48a.16.16 0 0 0-.09 0 .15.15 0 0 0-.15.07.1.1 0 0 0 0 .09l.35 2.69Z" transform="translate(0 -13.98)"/><path class="cls-12" d="m471.87 196.89-2.26-1.16-2.26-1.16-2.27-1.16-2.26-1.16h-1.08l-2.21 1.22-2.22 1.22-2.21 1.21-2.22 1.22v.05h.05l2.31-.85 2.31-.86 2.3-.85 2.31-.86h.05l2.4.8 2.4.8 2.4.8 2.4.8h.05Z" transform="translate(0 -13.98)"/><path class="cls-5" d="M459.32 184.28v.68l-.24.95-.25.95-.23 6.87-.23 6.86H465.84l-.46-6.95-.47-6.96-.48-1.03-.49-1.03v-.69l.89-2.09.89-2.08-1.46-.75-1.45-.74h-1.05l-1.99 1.09-1.98 1.09.76 1.92.77 1.91z"/><path class="cls-12" d="m471.84 171.48-10.13-.08-10.13-.08.41 7.38.41 7.38 4.28 2.73 4.28 2.73a1.89 1.89 0 0 0 1.14.31 1.94 1.94 0 0 0 1.12-.4l4.39-3.35 4.39-3.36-.08-6.63Z" transform="translate(0 -13.98)"/><path class="cls-11" d="m471.84 157.5-10.13-.07-10.13-.08 5.82 10.06 5.82 10.06 4.39-3.35 4.39-3.36-.08-6.63-.08-6.63z"/><path class="cls-12" d="m475.28 162 .3-.14.3-.14.31-.14.3-.14h.86a.76.76 0 0 1 .34.11.83.83 0 0 1 .26.23.77.77 0 0 1 .16.31.87.87 0 0 1 0 .36l-.18 1.38-.18 1.39-.18 1.38-.18 1.39a.85.85 0 0 1 0 .17.77.77 0 0 1-.07.16l-.1.15-.13.12-.4.31-.4.3-.4.31-.4.3-.15.1-.16.06a.57.57 0 0 1-.18 0h-.48a.7.7 0 0 1-.35-.12 1 1 0 0 1-.26-.23 1.07 1.07 0 0 1-.16-.32 1.15 1.15 0 0 1 0-.37l.26-1.56.26-1.55.26-1.56.26-1.55a.73.73 0 0 1 .06-.21 1.18 1.18 0 0 1 .11-.19l.16-.16a.86.86 0 0 1 .16-.15Z" transform="translate(0 -13.98)"/><path class="cls-13" d="M477.36 161.36h-.87l-.3.14-.31.14-.3.13-.3.14a.76.76 0 0 0-.19.12.81.81 0 0 0-.16.16 1.08 1.08 0 0 0-.11.18.79.79 0 0 0-.06.22l-.05.3v.31l-.05.31-.05.3a.73.73 0 0 1 .07-.19 1 1 0 0 1 .11-.17.54.54 0 0 1 .15-.15.78.78 0 0 1 .18-.11l.31-.14.31-.14.31-.15.32-.14h.12a.28.28 0 0 1 .13 0h.64a1 1 0 0 1 .29.08.87.87 0 0 1 .41.41.84.84 0 0 1 .09.28v-1.02a1.05 1.05 0 0 0 0-.36.81.81 0 0 0-.15-.31 1 1 0 0 0-.26-.23 1.06 1.06 0 0 0-.28-.11Z" transform="translate(0 -13.98)"/><path class="cls-12" d="M471.8 148.38a1.68 1.68 0 0 0-.58-.8 1.63 1.63 0 0 0-.94-.31h-15.47a1.6 1.6 0 0 0-.94.31 1.56 1.56 0 0 0-.58.8l-1.5 4.73-1.5 4.72a2.1 2.1 0 0 0-.06.24 1.94 1.94 0 0 0 0 .24v15.43a1.56 1.56 0 0 0 .34 1l2.38 3.08 2.38 3.07a2.13 2.13 0 0 0 .3.3 1.72 1.72 0 0 0 .38.2l2.15.84 2.15.83a1.47 1.47 0 0 0 .28.08h3.65a1.43 1.43 0 0 0 .29 0 1.29 1.29 0 0 0 .28-.08l2.15-.83 2.15-.84a1.52 1.52 0 0 0 .38-.2 1.77 1.77 0 0 0 .31-.3l2.38-3.07 2.38-3.08a1.5 1.5 0 0 0 .24-.45 1.54 1.54 0 0 0 .09-.52v-15.46a1.94 1.94 0 0 0 0-.24 2 2 0 0 0-.05-.24l-1.5-4.72Z" transform="translate(0 -13.98)"/><path class="cls-11" d="m474.8 157.83-1.5-4.72-1.5-4.73a1.68 1.68 0 0 0-.58-.8 1.63 1.63 0 0 0-.94-.31h-4.66a1.6 1.6 0 0 1 .94.31 1.56 1.56 0 0 1 .58.8l1.5 4.73 1.5 4.72a2.1 2.1 0 0 1 .06.24 1.94 1.94 0 0 1 0 .24v15.43a1.56 1.56 0 0 1-.34 1l-2.38 3.08-2.38 3.07a2.13 2.13 0 0 1-.3.3 1.72 1.72 0 0 1-.38.2l-2.11.82-2.11.82a1.47 1.47 0 0 0 .28.08h3.65a1.43 1.43 0 0 0 .29 0 1.29 1.29 0 0 0 .28-.08l2.15-.83 2.15-.84a1.52 1.52 0 0 0 .38-.2 1.77 1.77 0 0 0 .31-.3l2.38-3.07 2.38-3.08a1.5 1.5 0 0 0 .24-.45 1.54 1.54 0 0 0 .09-.52v-15.43a1.94 1.94 0 0 0 0-.24 2 2 0 0 0 .02-.24Z" transform="translate(0 -13.98)"/><path class="cls-5" d="m475.72 148.62-1.33-1.3-1.33-1.32-1.33-1.31-1.33-1.31H470.23l-1.08-.35-1.08-.36-1.08-.35-1.09-.35h-4.5l-2.08.8-2.08.81-2.09.81-2.08.8h-.11l-.84.88-.84.88-.84.88-.84.88-.06.07a212634183064.23 212634183064.23 0 0 1-.08.16s0 .06 0 .09l-.17 1.28-.17 1.29-.16 1.29-.17 1.29v.12l.16 1.81.05 1.89.16 1.81.17 1.81a.42.42 0 0 0 0 .15.39.39 0 0 0 .08.14.57.57 0 0 0 .11.11.35.35 0 0 0 .15.07h.1l.14.07a.4.4 0 0 1 .12.1l.08.13a.83.83 0 0 1 0 .15l.05.41.06.4.05.4.06.4h1v-3.88l.19-1.33.18-1.33.19-1.33.19-1.33a.3.3 0 0 1 0-.1.36.36 0 0 1 0-.09.47.47 0 0 1 .06-.09l.06-.07.81-.69.8-.7.8-.7.81-.7a.58.58 0 0 1 .25-.12.46.46 0 0 1 .26 0 .51.51 0 0 1 .38.37v.13l.05.12v.26a.59.59 0 0 0 .06.14 1.27 1.27 0 0 0 .1.12l.13.08.15.05 2.4.39 2.39.39 2.4.39 2.4.39H466.56l.08.05.06.07.8.85.8.86.79.86.8.86-.18-1-.17-1-.18-1-.18-1a.45.45 0 0 1 0-.2.64.64 0 0 1 .06-.18.86.86 0 0 1 .13-.14.42.42 0 0 1 .17-.1l.32-.11.33-.11.32-.11.32-.12a.83.83 0 0 1 .22 0l.21.06a.7.7 0 0 1 .17.13.59.59 0 0 1 .11.19l.39 1.14.38 1.14.39 1.14.39 1.14v.1l.25 1.56.24 1.57.25 1.57.25 1.56h.49l.08-.52.07-.51.08-.52.08-.52a.23.23 0 0 1 0-.11v-.1l.07-.09.09-.07h.05l.1-.09.07-.11a.5.5 0 0 0 .05-.13.53.53 0 0 0 0-.13V149a.41.41 0 0 0 0-.11.29.29 0 0 0 0-.1.31.31 0 0 0 0-.1Z" transform="translate(0 -13.98)"/><path class="cls-5" d="M465.64 141.82h-4.28l-2.08.8-2.09.81-2.08.81-2.08.8h-.16l-.85.88-.84.88-.84.88-.84.88v.07a.56.56 0 0 0-.05.08v1.22l1.3-1 1.43-1.08 1.25-.93.72-.54h.05l1.91-.61 1.92-.62 1.92-.62 1.92-.62h3.81l1.05.25 1.05.26 1.05.25 1.05.25h.05l1.48 1 1.48 1 1.49 1 1.48 1v-.22l-1.37-1.35-1.37-1.35-1.37-1.35-1.38-1.35H470.2l-1.09-.35-1.08-.36-1.08-.35-1.08-.35h-.17Z" transform="translate(0 -13.98)"/><path class="cls-9" d="M452.11 180.88h-.19l-2.57 2.39-2.56 2.4h-.22l-10.19 3.62-10.18 3.62-.15.07a.65.65 0 0 0-.12.11.55.55 0 0 0-.09.14 1 1 0 0 0 0 .16l-1 10.53-1 10.52h2.56l.14-1.75.14-1.75.57-7.65.56-7.64a.38.38 0 0 1 .06-.13.36.36 0 0 1 .08-.12.52.52 0 0 1 .11-.1l.13-.07 9.64-3.82 9.64-3.83H447.68l2.17-2.17 2.17-2.16.09-.11.06-.11v-.13a.57.57 0 0 0 0-.13l-.05-1Z" transform="translate(0 -13.98)"/></g><path class="cls-5" d="M342.29 281H167.15a3.07 3.07 0 0 1-3.08-3.08V168.39a3.06 3.06 0 0 1 .9-2.18 3.13 3.13 0 0 1 1-.66 3.17 3.17 0 0 1 1.2-.24h175.12a3.21 3.21 0 0 1 1.2.24 3.08 3.08 0 0 1 1.64 1.64 3.17 3.17 0 0 1 .24 1.2v109.5a3.17 3.17 0 0 1-.24 1.2 3.13 3.13 0 0 1-.66 1 3 3 0 0 1-1 .66 3 3 0 0 1-1.18.25Z" transform="translate(0 -13.98)"/><path style="fill:#d5d9dc" d="M368.13 265.14H141.3v-5.29H368.13V265.14z"/><path d="M356.49 282.83H153a21.86 21.86 0 0 1-2.68-.29c-1.19-.19-2.58-.46-3.91-.8a19 19 0 0 1-3.52-1.18c-.94-.44-1.54-.93-1.54-1.44h226.78c0 .51-.6 1-1.53 1.44a19.28 19.28 0 0 1-3.52 1.18c-1.33.34-2.72.61-3.91.8a22.06 22.06 0 0 1-2.68.29Z" transform="translate(0 -13.98)" style="fill:#c6ccd1"/><path style="fill:#96a6ae" d="M292.57 259.85h-75.7l1.98.89 1.99.9 1.98.89 1.99.89h59.82l1.98-.89 1.99-.89 1.98-.9 1.99-.89z"/><path class="cls-7" d="M340.68 255.56H168.9v-98.24H340.68v98.24z"/><path d="m169 171.13 6.41 6.19 6.41 6.2q3.21 3.09 6.41 6.19l6.42 6.19 19 18.31 19 18.3 19 18.29q9.5 9.15 19 18.29h70.31v-98H169Z" transform="translate(0 -13.98)" style="fill:url(#linear-gradient)"/><path d="M180.21 279.11a2.79 2.79 0 0 0 2.8-2.79v-87a5.7 5.7 0 0 0-5.69-5.69h-67.46a5.7 5.7 0 0 0-5.69 5.69v89.82Z" transform="translate(0 -13.98)" style="opacity:.3;mix-blend-mode:multiply;fill:#0c3b5d"/><path class="cls-24" d="M287.38 187.14h34.21v6.66h-34.21zM287.38 208.06h34.21v6.66h-34.21zM287.38 228.98h34.21v6.66h-34.21z"/><path class="cls-24" d="m273.62 249.81-1 1-1 1-2.1-2.11-2.1-2.1 1-1 1-1 1.13 1.13 1.13 1.13 3.06-3.07 3.06-3.06 1 1 1 1-3.06 3.06ZM273.62 229.5l-1 1-1 1-2.1-2.1-2.1-2.1 1-1 1-1 1.13 1.13 1.13 1.13 3.06-3.07 3.06-3.06 1 1 1 1-3.06 3.06ZM273.62 207.05l-1 1-1 1-2.1-2.1-2.1-2.11 1-1 1-1 1.13 1.13 1.13 1.13 3.06-3.07 3.06-3.03 1 1 1 1-3.12 3ZM204.14 249.81l-1 1-1 1-2.1-2.11-2.1-2.1 1-1 1-1 1.13 1.13 1.13 1.13 3.06-3.07 3.06-3.06 1 1 1 1-3.06 3.06ZM204.14 229.5l-1 1-1 1-2.1-2.1-2.1-2.1 1-1 1-1 1.13 1.13 1.13 1.13 3.06-3.07 3.06-3.06 1 1 1 1-3.06 3.06Z" transform="translate(0 -13.98)"/><path class="cls-6" d="m204.14 207.05-1 1-1 1-2.1-2.1-2.1-2.11 1-1 1-1 1.13 1.13 1.13 1.13 3.06-3.07 3.06-3.06 1 1 1 1-3.12 3.03Z" transform="translate(0 -13.98)"/><path class="cls-24" d="M221.1 187.14h34.21v6.66H221.1zM221.1 208.06h34.21v6.66H221.1zM221.1 228.98h34.21v6.66H221.1z"/><path class="cls-5" d="M174.52 181.53a5.7 5.7 0 0 0-5.69-5.69h-67.46a5.7 5.7 0 0 0-5.69 5.69v96.24a5.7 5.7 0 0 0 5.69 5.69h67.46a5.7 5.7 0 0 0 5.69-5.69v-96.24Z" transform="translate(0 -13.98)"/><path d="M138.57 277.13a3.48 3.48 0 1 0-1 2.45 3.45 3.45 0 0 0 1-2.45Z" transform="translate(0 -13.98)" style="fill:#3d5372"/><path class="cls-7" d="M169.29 256.78h-68.38v-89.87h68.38v89.87z"/><path style="fill:url(#linear-gradient-2)" d="M169.29 210.1V236.47l-32.02-34.78-32.03-34.78H169.29v43.19z"/><path class="cls-6" d="m121.24 215.8-1.69 1.69-1.7 1.7-3.65-3.66-3.65-3.66 1.69-1.69 1.69-1.69 2 2 2 2 5.33-5.33 5.33-5.33 1.69 1.69 1.69 1.69-5.33 5.33Z" transform="translate(0 -13.98)"/><path class="cls-24" d="m149.62 215.8-1.7 1.69-1.69 1.7-3.65-3.66-3.65-3.66 1.69-1.69 1.69-1.69 2 2 2 2 5.33-5.33 5.33-5.33 1.69 1.69 1.69 1.69-5.33 5.33ZM121.24 247.61l-1.69 1.69-1.7 1.69-3.65-3.65-3.65-3.66 1.69-1.69 1.69-1.69 2 2 2 2 5.33-5.33 5.33-5.33 1.69 1.7 1.69 1.69-5.33 5.33ZM149.62 247.61l-1.7 1.69-1.69 1.7-3.65-3.65-3.65-3.66 1.69-1.69 1.69-1.69 2 2 2 2 5.33-5.33 5.33-5.33 1.69 1.7 1.69 1.69-5.33 5.33Z" transform="translate(0 -13.98)"/></g></g></g></svg>