<svg xmlns="http://www.w3.org/2000/svg" xmlns:xlink="http://www.w3.org/1999/xlink" viewBox="0 0 494.75 295.86"><defs><linearGradient id="linear-gradient" x1="152.51" y1="163.9" x2="352.96" y2="163.9" gradientUnits="userSpaceOnUse"><stop offset="0" stop-color="#fff" stop-opacity="0"/><stop offset="1" stop-color="#059ad6"/></linearGradient><linearGradient id="linear-gradient-2" x1="109.31" y1="187.1" x2="175.91" y2="187.1" xlink:href="#linear-gradient"/><style>.cls-2{fill:none;stroke:#66c3e9;stroke-miterlimit:10}.cls-3{fill:#66c3e9}.cls-4{fill:#003a5d}.cls-5{fill:#009bdb}.cls-6{fill:#fff}.cls-14{fill:#ffe600}</style></defs><g style="isolation:isolate"><g id="Layer_2" data-name="Layer 2"><g id="Layer_1-2" data-name="Layer 1"><path class="cls-2" d="M214.57 295.36h80"/><path class="cls-3" d="M474.5 257.86h-49.58l.07-.56a176.44 176.44 0 0 0 1.36-21.79c0-96.07-78.16-174.23-174.24-174.23S77.88 139.44 77.88 235.51a178.28 178.28 0 0 0 1.35 21.79l.07.56H29.73l-.05-.45c-.7-7.29-1.06-14.66-1.06-21.9a223.5 223.5 0 0 1 381.53-158 222 222 0 0 1 65.46 158c0 7.24-.36 14.61-1.07 21.9Zm-48.44-1h47.53c.68-7.11 1-14.29 1-21.35A222.51 222.51 0 0 0 94.78 78.18a221.06 221.06 0 0 0-65.16 157.33c0 7.06.34 14.24 1 21.35h47.55a177.18 177.18 0 0 1-1.29-21.35c0-96.62 78.61-175.23 175.23-175.23s175.24 78.61 175.24 175.23a179.26 179.26 0 0 1-1.29 21.35Z"/><path class="cls-3" d="M425.93 257.86H364l.11-.6A114.09 114.09 0 0 0 256 121.53a114 114 0 0 0-117.87 110.13 114.75 114.75 0 0 0 2 25.6l.12.6H78.3l-.06-.44a178.26 178.26 0 0 1-1.36-21.91c0-96.62 78.61-175.23 175.23-175.23s175.24 78.61 175.24 175.23a178.26 178.26 0 0 1-1.35 21.91Zm-60.75-1h59.87a177.19 177.19 0 0 0 1.3-21.35c0-96.07-78.16-174.23-174.24-174.23S77.88 139.44 77.88 235.51a177.19 177.19 0 0 0 1.3 21.35H139a115.06 115.06 0 1 1 228.1-17.46 116.43 116.43 0 0 1-1.92 17.46Z"/><path class="cls-3" d="M365 257.86H139.23l-.08-.41a116.13 116.13 0 0 1-2-25.82 115.05 115.05 0 0 1 230 7.77h-.5.5a116.52 116.52 0 0 1-2 18Zm-224.94-1h224.1a115.69 115.69 0 0 0 1.94-17.5 114.05 114.05 0 1 0-226 17.5Z"/><circle class="cls-4" cx="474.81" cy="216.37" r="4.24"/><circle class="cls-4" cx="98.64" cy="71.59" r="4.24"/><path class="cls-2" d="M494.75 257.36H0M162.32 277.86h173.31"/><circle class="cls-5" cx="227.71" cy="16.27" r="16.27"/><path class="cls-6" d="M287.38 173.68h34.21v6.66h-34.21zM287.38 194.6h34.21v6.66h-34.21zM287.38 215.52h34.21v6.66h-34.21zM273.62 222.37l-1 1-1 1-2.1-2.1-2.1-2.1 1-1 1-1 1.13 1.13 1.13 1.13 3.06-3.06 3.06-3.06 1 1 1 1-3.06 3.06ZM273.62 202.06l-1 1-1 1-2.1-2.1-2.1-2.1 1-1 1-1 1.13 1.13 1.13 1.13 3.06-3.06 3.06-3.06 1 1 1 1-3.12 3ZM273.62 179.62l-1 1-1 1-2.1-2.1-2.1-2.1 1-1 1-1 1.13 1.13 1.13 1.13 3.06-3.06 3.06-3.06 1 1 1 1-3.06 3.06Z"/><path d="M270.34 247.23v-20.65h-37.57v20.65a6.85 6.85 0 0 1-.15 1 8.73 8.73 0 0 1-.79 2.18 6 6 0 0 1-1.9 2.19 6.14 6.14 0 0 1-3.51 1h50.28a6.14 6.14 0 0 1-3.51-1 6 6 0 0 1-1.9-2.19 8.35 8.35 0 0 1-.79-2.18 8.09 8.09 0 0 1-.16-1Z" style="fill:#bdc7cc"/><path d="M283.68 253.59h-65.76a3 3 0 0 0-1.2.24 3 3 0 0 0-1 .66 2.81 2.81 0 0 0-.65 1 2.94 2.94 0 0 0-.24 1.19h71.88a2.94 2.94 0 0 0-.24-1.19 3.14 3.14 0 0 0-1.63-1.63 2.94 2.94 0 0 0-1.16-.27Z" style="fill:#cfd6da"/><path style="mix-blend-mode:multiply;fill:#a9b6bc;opacity:.55" d="M232.76 233.37h37.6V245.5h-37.6V233.37z"/><path class="cls-4" d="M355.88 234.2H147.23a2.79 2.79 0 0 1-1.15-.24 3 3 0 0 1-.94-.64 3 3 0 0 1-.63-1 3.06 3.06 0 0 1-.24-1.17V103.43a3.11 3.11 0 0 1 .87-2.13 3 3 0 0 1 .94-.64 2.79 2.79 0 0 1 1.15-.24h208.65a2.83 2.83 0 0 1 1.16.24 3 3 0 0 1 .94.64 3.26 3.26 0 0 1 .63 1 3.05 3.05 0 0 1 .23 1.17v127.72a3.05 3.05 0 0 1-.23 1.17 3.14 3.14 0 0 1-.63 1 3 3 0 0 1-.94.64 2.83 2.83 0 0 1-1.16.2Z"/><path class="cls-5" d="M151.3 221.78H353.09V106.83H151.3V221.78z"/><path class="cls-4" d="M255 227.58a3.35 3.35 0 0 0-.28-1.34 3.19 3.19 0 0 0-.74-1.1 3.44 3.44 0 0 0-2.44-1 3.39 3.39 0 0 0-1.35.27 3.55 3.55 0 0 0-1.1.74 3.44 3.44 0 0 0-1 2.44 3.57 3.57 0 0 0 .27 1.35 3.45 3.45 0 0 0 1.84 1.84 3.57 3.57 0 0 0 1.35.27 3.44 3.44 0 0 0 2.44-1 3.51 3.51 0 0 0 1-2.45ZM353.09 114.54H151.31v-7.67h201.78v7.67z"/><path d="M152.51 106.79 160 114l7.48 7.22 7.47 7.22 7.48 7.22L204.54 157l22.14 21.33 22.15 21.33L271 221h82V106.79H152.51Z" style="fill:url(#linear-gradient)"/><path class="cls-6" d="M217.7 192.8h-18.67v11.47h18.67V192.8zM249.22 204.27h-18.68v-71.86h18.68v71.86zM280.73 204.27h-18.67v-59.2h18.67v59.2zM293.57 132.41v71.86h18.68v-71.86h-18.68z"/><path d="M190.6 235.7h-17v-89.21h9.27a7.75 7.75 0 0 1 7.75 7.76v81.45Z" style="opacity:.3;mix-blend-mode:multiply;fill:#003a5d"/><path class="cls-4" d="M181.05 151.61a5.94 5.94 0 0 0-5.91-5.92H105a5.92 5.92 0 0 0-5.91 5.92v100.07a5.92 5.92 0 0 0 5.91 5.91h70.15a5.94 5.94 0 0 0 5.91-5.91V151.61Z"/><path class="cls-5" d="M175.62 244.38h-71.11v-93.44h71.11v93.44z"/><path style="fill:url(#linear-gradient-2)" d="M175.91 195.85v27.41l-33.3-36.16-33.3-36.16h66.6v44.91z"/><path d="M133.32 173.49a27.6 27.6 0 0 0-6.46 2.66 27.3 27.3 0 0 0-12.77 16.67l5.64 1.52 5.65 1.52a15.53 15.53 0 0 1 7.28-9.51 15.43 15.43 0 0 1 3.68-1.51l-1.51-5.68Z" style="fill:#75c9eb"/><path class="cls-6" d="M140.37 172.56a28.09 28.09 0 0 0-3.55.23 27.79 27.79 0 0 0-3.5.7l1.51 5.67 1.51 5.68a13.75 13.75 0 0 1 2-.4 15.4 15.4 0 0 1 13 4.42l4.13-4.15 4.13-4.15a27.07 27.07 0 0 0-19.22-8"/><path class="cls-4" d="m159.59 180.56-4.13 4.15-4.13 4.15a15.57 15.57 0 0 1 4 7.11 15.86 15.86 0 0 1 0 7.95l5.64 1.52 5.65 1.52a27.62 27.62 0 0 0 .06-13.93 27.21 27.21 0 0 0-7.1-12.47"/><path class="cls-14" d="M155.34 203.92a15.64 15.64 0 0 1-1.51 3.71 15.89 15.89 0 0 1-2.5 3.29 15.27 15.27 0 0 1-7 4l1.51 5.68 1.52 5.67a27.25 27.25 0 0 0 12.19-7.07 27.56 27.56 0 0 0 4.38-5.77 27.05 27.05 0 0 0 2.66-6.49l-5.59-1.5Z"/><path d="M129.39 210.92a15.51 15.51 0 0 1-4-7.12 15.71 15.71 0 0 1 0-7.94l-5.65-1.52-5.64-1.52c-.1.38-.2.77-.28 1.16s-.15.77-.22 1.16v.56c-.06.39-.12.78-.16 1.17s-.09.78-.11 1.17a27.26 27.26 0 0 0 7.9 21.15l3.73-3.74 3.73-3.75.4-.4Z" style="fill:#dae0e3"/><path d="m142.18 227.16 1.18-.11 1.17-.16h.27l.28-.05 1.16-.22c.39-.08.77-.18 1.16-.28l-1.52-5.67-1.51-5.68c-.31.09-.63.16-1 .23l-1 .16h-.06c-.31 0-.63.07-.95.09s-.63 0-.95 0h-1l-.89-.08h-.5c-.22 0-.44-.06-.66-.11s-.44-.08-.66-.14l-.26-.06-.26-.06-.82-.25c-.27-.09-.54-.18-.81-.29-.29-.12-.56-.24-.84-.38s-.55-.27-.82-.42l-.22-.13-.22-.14c-.2-.12-.4-.24-.59-.37l-.58-.4-.22-.16-.22-.17c-.25-.19-.5-.39-.74-.6s-.48-.43-.7-.66l-.85.84-.84.85-3.29 3.3-3.28 3.31a27.07 27.07 0 0 0 21 7.94Z" style="fill:#96a6ae"/><path d="M144.24 251.1a4.17 4.17 0 1 0-1.22 3 4.17 4.17 0 0 0 1.22-3Z" style="fill:#33617e"/><path class="cls-6" d="M225.36 18.81v-1.1a4.15 4.15 0 0 1 .51-2.13 5.27 5.27 0 0 1 1.82-1.68 6.7 6.7 0 0 0 1.5-1.19 1.79 1.79 0 0 0 .45-1.2 1 1 0 0 0-.48-.85 2.32 2.32 0 0 0-1.27-.32 10 10 0 0 0-4.53 1.37l-1.79-3.49a13.34 13.34 0 0 1 6.67-1.82 7.16 7.16 0 0 1 4.49 1.26 4.09 4.09 0 0 1 1.63 3.43 4.88 4.88 0 0 1-.72 2.68 7.28 7.28 0 0 1-2.32 2.15 8.75 8.75 0 0 0-1.68 1.28 1.42 1.42 0 0 0-.34.95v.66Zm-.55 4.49a2.34 2.34 0 0 1 .68-1.82 2.85 2.85 0 0 1 2-.64 2.77 2.77 0 0 1 2 .64 2.39 2.39 0 0 1 .69 1.82 2.33 2.33 0 0 1-.71 1.81 2.81 2.81 0 0 1-2 .64 2.89 2.89 0 0 1-2-.64 2.3 2.3 0 0 1-.66-1.81Z"/><circle class="cls-4" cx="432.99" cy="106.33" r="16.27"/><path class="cls-6" d="M430.64 108.86v-1.1a4.08 4.08 0 0 1 .51-2.12A5.43 5.43 0 0 1 433 104a6.91 6.91 0 0 0 1.49-1.18 1.81 1.81 0 0 0 .46-1.21 1 1 0 0 0-.49-.85 2.32 2.32 0 0 0-1.27-.32 10 10 0 0 0-4.53 1.38l-1.78-3.49a13.21 13.21 0 0 1 6.67-1.82 7.19 7.19 0 0 1 4.45 1.2 4.12 4.12 0 0 1 1.63 3.43 4.86 4.86 0 0 1-.73 2.69 7.46 7.46 0 0 1-2.31 2.15 9 9 0 0 0-1.69 1.27 1.43 1.43 0 0 0-.34 1v.65Zm-.55 4.49a2.37 2.37 0 0 1 .69-1.82 2.83 2.83 0 0 1 2-.64 2.74 2.74 0 0 1 2 .65 2.38 2.38 0 0 1 .68 1.81 2.33 2.33 0 0 1-.71 1.81 2.77 2.77 0 0 1-1.94.64 2.91 2.91 0 0 1-2-.63 2.31 2.31 0 0 1-.72-1.82Z"/><circle class="cls-14" cx="391.21" cy="129.56" r="7.06"/><path class="cls-5" d="M390.19 130.66v-.48a1.77 1.77 0 0 1 .23-.92 2.27 2.27 0 0 1 .79-.73 3.33 3.33 0 0 0 .65-.51.78.78 0 0 0 .19-.53.43.43 0 0 0-.21-.37 1 1 0 0 0-.55-.13 4.43 4.43 0 0 0-2 .59l-.77-1.51a5.73 5.73 0 0 1 2.9-.79 3.18 3.18 0 0 1 1.95.54 1.79 1.79 0 0 1 .7 1.49 2.13 2.13 0 0 1-.31 1.17 3.18 3.18 0 0 1-1 .93 4.16 4.16 0 0 0-.73.55.64.64 0 0 0-.15.42v.28Zm-.24 2a1 1 0 0 1 .3-.79 1.27 1.27 0 0 1 .88-.28 1.22 1.22 0 0 1 .85.28 1 1 0 0 1 .3.79 1 1 0 0 1-.31.79 1.23 1.23 0 0 1-.84.28 1.3 1.3 0 0 1-.87-.28 1 1 0 0 1-.26-.84Z"/><circle cx="29.97" cy="212.89" r="7.06" style="fill:#d5dbdf"/><path class="cls-4" d="M29 214v-.48a1.8 1.8 0 0 1 .22-.93 2.36 2.36 0 0 1 .79-.73 3 3 0 0 0 .65-.51.79.79 0 0 0 .2-.52.41.41 0 0 0-.22-.37.92.92 0 0 0-.55-.14 4.3 4.3 0 0 0-2 .6l-.78-1.52a5.75 5.75 0 0 1 2.9-.79 3.14 3.14 0 0 1 1.95.54 1.79 1.79 0 0 1 .71 1.49 2.14 2.14 0 0 1-.32 1.17 3.13 3.13 0 0 1-1 .93 3.79 3.79 0 0 0-.74.56.64.64 0 0 0-.14.41v.29Zm-.24 1.94a1.07 1.07 0 0 1 .29-.79 1.29 1.29 0 0 1 .88-.27 1.2 1.2 0 0 1 .86.28 1 1 0 0 1 .29.78 1 1 0 0 1-.3.79 1.45 1.45 0 0 1-1.71 0 1 1 0 0 1-.36-.79Z"/></g></g></g></svg>