<?xml version="1.0" encoding="UTF-8"?>
<svg width="440px" height="330px" viewBox="0 0 440 330" version="1.1" xmlns="http://www.w3.org/2000/svg" xmlns:xlink="http://www.w3.org/1999/xlink">
    <title>Passion</title>
    <defs>
        <linearGradient x1="50.800666%" y1="-0.0191823156%" x2="50.800666%" y2="100.241538%" id="linearGradient-1">
            <stop stop-color="#FFFFFF" stop-opacity="0" offset="0%"></stop>
            <stop stop-color="#FFE600" offset="85%"></stop>
        </linearGradient>
        <linearGradient x1="40.0046296%" y1="26.8630224%" x2="76.1922717%" y2="83.0566243%" id="linearGradient-2">
            <stop stop-color="#FFFFFF" stop-opacity="0.2" offset="0%"></stop>
            <stop stop-color="#FFE600" offset="63%"></stop>
        </linearGradient>
        <linearGradient x1="50.1086396%" y1="0.000150105773%" x2="50.1086396%" y2="99.9914994%" id="linearGradient-3">
            <stop stop-color="#FFFFFF" stop-opacity="0" offset="0%"></stop>
            <stop stop-color="#FFE600" offset="85%"></stop>
        </linearGradient>
        <linearGradient x1="50.0061341%" y1="2.89575246e-06%" x2="50.0061341%" y2="100%" id="linearGradient-4">
            <stop stop-color="#FFFFFF" stop-opacity="0" offset="0%"></stop>
            <stop stop-color="#FFE600" offset="74%"></stop>
        </linearGradient>
        <linearGradient x1="50.014714%" y1="100%" x2="50.014714%" y2="0%" id="linearGradient-5">
            <stop stop-color="#FFFFFF" offset="0%"></stop>
            <stop stop-color="#87A2B3" offset="100%"></stop>
            <stop stop-color="#000000" offset="100%"></stop>
        </linearGradient>
    </defs>
    <g id="Passion" stroke="none" stroke-width="1" fill="none" fill-rule="evenodd">
        <path d="M294.205168,20.7387999 L294.205168,0.597421043 C294.217547,0.435187821 294.321106,0.294112611 294.472173,0.233685541 C294.623241,0.17325847 294.795525,0.203996736 294.916374,0.312938291 L301.118098,6.54311057 C301.159492,6.63342091 301.159492,6.73728298 301.118098,6.82759332 L301.118098,13.6836277 C301.151315,13.7657405 301.151315,13.8575493 301.118098,13.9396621 C300.463788,14.6793173 296.537926,19.0319034 294.887926,20.9948344 C294.777617,21.1079144 294.610901,21.1451105 294.462987,21.0896429 C294.315073,21.0341752 294.213923,20.8965291 294.205168,20.7387999 Z" id="Path" fill="url(#linearGradient-1)" fill-rule="nonzero"></path>
        <rect id="Rectangle" fill="#023852" fill-rule="nonzero" x="356.819821" y="52.2025923" width="12.3465515" height="12.3465515"></rect>
        <rect id="Rectangle" fill="#023852" fill-rule="nonzero" x="262.257754" y="52.2025923" width="6.17327573" height="6.17327573"></rect>
        <rect id="Rectangle" fill="#023852" fill-rule="nonzero" x="356.819821" y="95.6146603" width="6.17327573" height="6.17327573"></rect>
        <rect id="Rectangle" fill="#023852" fill-rule="nonzero" x="163.314653" y="35.1620755" width="6.17327573" height="6.17327573"></rect>
        <path d="M347.943959,38.3482823 L327.688787,38.3482823 C325.552646,38.3698225 323.51003,39.2277214 321.999132,40.7379374 L288.686202,73.9655229 C287.175986,75.4764202 286.318087,77.5190367 286.296547,79.6551779 L286.296547,95.0172466 C286.275007,97.1533878 285.417108,99.1960042 283.906892,100.706902 L275.03103,109.554315 C273.527165,111.074969 271.480046,111.934759 269.341375,111.94397 L242.20172,111.94397 C240.068064,111.977445 238.029745,112.833539 236.512065,114.333625 L216.598273,134.247418 C213.643544,137.206112 211.985685,141.217721 211.989389,145.399142 L211.989389,159.2819 C211.936776,179.33607 219.858426,198.588639 234.009536,212.798446 C248.160646,227.008252 267.380261,235.009525 287.434478,235.039657 L287.434478,235.039657 C329.164351,235.039657 362.993097,201.210911 362.993097,159.481038 L362.993097,145.42759 C362.969541,141.240512 361.292642,137.232314 358.32758,134.275866 L337.87327,113.793108 C336.394308,112.268501 335.56772,110.227542 335.56896,108.103453 L335.56896,98.8577637 C335.54742,96.7216225 334.689521,94.679006 333.179305,93.1681087 L324.18965,84.1215571 C322.684536,82.6072382 321.82755,80.5667953 321.799994,78.4319021 L321.799994,58.062937 C321.83347,55.9292805 322.689563,53.8909618 324.18965,52.373282 L330.789649,45.8017304 C332.704309,43.8313769 335.325202,42.7052121 338.072408,42.6724201 L338.413787,42.6724201 C340.809571,42.6583252 343.128453,41.825134 344.985339,40.3112133 C346.379304,39.0879374 347.943959,37.9215582 347.943959,38.3482823 Z" id="Path" fill="url(#linearGradient-2)" fill-rule="nonzero"></path>
        <path d="M236.938789,16.5000069 L225.957755,27.4525929 C225.360437,28.0600434 225.023633,28.8765373 225.018962,29.7284549 L225.018962,51.8043165 C225.020597,52.6568414 225.357856,53.4744375 225.957755,54.0801785 L236.853445,64.9758679 C237.453344,65.5816088 237.790602,66.399205 237.792238,67.2517299 L237.792238,79.3422469 C237.790001,80.6441685 238.573252,81.8188887 239.775947,82.3174153 C240.978642,82.8159418 242.363276,82.5398266 243.282755,81.6181089 L250.224134,74.5629367 C250.845329,73.9692817 251.195089,73.1463156 251.191405,72.2870746 L251.191405,53.1413854 C251.195089,52.2821444 250.845329,51.4591783 250.224134,50.8655234 L238.275858,38.8887995 C237.662284,38.292227 237.322539,37.4686017 237.337065,36.6129375 L237.337065,26.6560412 C237.337065,26.6560412 237.5931,15.8456966 236.938789,16.5000069 Z" id="Path" fill="url(#linearGradient-3)" fill-rule="nonzero"></path>
        <path d="M301.231891,191.001727 L284.020685,173.762072 C283.112998,172.857528 282.60141,171.629718 282.598271,170.348279 L282.598271,152.824142 C282.595132,151.542703 282.083545,150.314893 281.175857,149.410349 L222.629307,90.8637984 C221.719937,89.9487569 221.208721,88.711616 221.206893,87.4215571 L221.206893,64.3215576 C221.210032,63.0401185 221.72162,61.8123087 222.629307,60.9077645 L272.413789,11.1232829 C273.318333,10.2155957 274.546143,9.70400831 275.827582,9.70086912 L286.23965,9.70086912 C288.884748,9.75648974 291.121767,7.75560016 291.36034,5.12069681 C291.438783,3.7895161 290.964099,2.4850181 290.048494,1.51555341 C289.132888,0.546088716 287.857621,0 286.524133,0 L232.102583,0 C230.821144,0.00314645278 229.593334,0.514733875 228.68879,1.42242103 L184.622411,45.5172476 C183.707735,46.4287495 183.195569,47.6681914 183.199998,48.9594889 L183.199998,102.584488 C183.203137,103.865927 183.714724,105.093737 184.622411,105.998281 L190.482756,111.94397 C191.395793,112.844916 191.908353,114.07506 191.90517,115.357763 L191.90517,119.482763 C191.90517,122.153727 189.739926,124.31897 187.068963,124.31897 L171.792239,124.31897 C170.500942,124.323399 169.2615,123.811233 168.349998,122.896556 L154.324998,108.871557 C153.410322,107.960055 152.898156,106.720613 152.902584,105.429315 L152.902584,72.5715574 C152.900756,71.2814984 152.389541,70.0443575 151.480171,69.1293161 L139.78793,57.4655232 C125.205221,42.8273176 105.48573,34.4577615 84.8258618,34.1379375 L71,34.1379375 C71.0031392,35.4193766 71.5147266,36.6471865 72.4224138,37.5517306 L101.126723,66.2844886 C105.476112,70.5638111 107.943065,76.3985135 107.982758,82.5 L107.982758,121.331901 C107.985183,126.484748 110.031354,131.426251 113.672413,135.072418 L143.116378,164.57328 C146.745453,168.180939 148.792183,173.082855 148.806033,178.200003 L148.806033,201.66983 C148.823669,207.115078 150.979289,212.33556 154.808619,216.206899 L187.893963,249.406036 C188.798507,250.313723 190.026317,250.825311 191.307756,250.82845 L273.21034,250.82845 C274.491779,250.825311 275.719589,250.313723 276.624133,249.406036 L301.231891,224.741382 C302.146568,223.82988 302.658734,222.590438 302.654334,221.29914 L302.654334,194.41552 C302.651166,193.134081 302.139579,191.906271 301.231891,191.001727 Z" id="Path" fill="url(#linearGradient-4)" fill-rule="nonzero"></path>
        <path d="M290.36465,147.276714 C274.389659,147.265132 259.199227,154.201023 248.744824,166.280176 C233.666638,148.90356 209.379783,142.723308 187.829814,150.779194 C166.279845,158.835079 152.002722,179.431454 152.020671,202.437934 C152.020671,223.034485 169.089653,258.793967 189.657756,279.760346 C189.657756,279.760346 219.898273,313.044828 248.716375,330 L248.716375,330 C277.50603,312.931035 307.86034,279.760346 307.86034,279.760346 C328.371546,258.879312 345.497408,223.034485 345.497408,202.437934 C345.497408,171.984347 320.818233,147.292434 290.36465,147.276714 Z" id="Path" fill="#0099DA" fill-rule="nonzero"></path>
        <g id="Group" opacity="0.4" transform="translate(262.257754, 159.124257)" fill="#FFFFFF" fill-rule="nonzero">
            <path d="M14.053448,7.49729803 C40.260311,7.49729803 61.5051711,28.7421581 61.5051711,54.9490211 C61.5051711,66.8972967 54.8198264,84.7343653 45.062068,100.636951 C59.5137918,83.7671239 70.9501145,58.6757452 70.9501145,43.7404007 C70.9886336,26.935691 61.3746375,11.601797 46.2315927,4.31564878 C31.0885479,-2.97049947 13.107196,-0.914238917 0,9.6024704 C4.55010823,8.18989325 9.28914741,7.47999669 14.053448,7.49729803 L14.053448,7.49729803 Z" id="Path"></path>
        </g>
        <path d="M207.124997,147.276728 C192.49795,147.276728 178.470405,153.089244 168.130189,163.434796 C157.789973,173.780347 151.984692,187.810889 151.992232,202.437934 C151.992232,223.034485 169.061205,258.793967 189.629308,279.760346 C189.629308,279.760346 219.869824,313.044828 248.687927,330 L248.687927,166.280176 C238.244209,154.219134 223.079304,147.28542 207.124997,147.276728 Z" id="Path" fill="url(#linearGradient-5)" fill-rule="nonzero" style="mix-blend-mode: multiply;"></path>
    </g>
</svg>